<?xml version="1.0" encoding="utf-8"?>
<!-- Generator: Adobe Illustrator 24.0.1, SVG Export Plug-In . SVG Version: 6.00 Build 0)  -->
<svg version="1.1" id="Layer_1" xmlns="http://www.w3.org/2000/svg" xmlns:xlink="http://www.w3.org/1999/xlink" x="0px" y="0px"
	 viewBox="0 0 500 500" style="enable-background:new 0 0 500 500;" xml:space="preserve">
<path d="M291.3343811,152.5702515c0.9906616-1.8992767,1.5393066-4.0246429,1.5393066-6.2029877v-2.3945465
	c0-3.0827026-1.0633545-6.0342407-2.9452209-8.3812103c1.8818665-2.3469543,2.9452209-5.2984924,2.9452209-8.3811874v-2.3940506
	c0-3.082695-1.0633545-6.0342407-2.9452209-8.3811951c1.8818665-2.3469543,2.9452209-5.2985001,2.9452209-8.3811951v-2.3945541
	c0-7.3396225-5.8814697-13.3105698-13.111145-13.3105698h-4.4754333C270.6136169,86.0117188,260.9444885,82.0023956,250,82.0023956
	s-20.6136322,4.0093231-25.2870941,10.3463593h-4.4754639c-7.2296448,0-13.1111298,5.9709473-13.1111298,13.3105698v2.3945541
	c0,3.082695,1.0633698,6.0342407,2.9452209,8.3811951c-1.8818512,2.3469543-2.9452209,5.2985001-2.9452209,8.3811951v2.3940506
	c0,3.082695,1.0633698,6.0337296,2.9452209,8.3811874c-1.8818512,2.3474731-2.9452209,5.2985077-2.9452209,8.3812103v2.3945465
	c0,2.1780853,0.5487671,4.3035126,1.5398254,6.2031097c-31.0540009,13.8722382-50.9035034,42.2783356-50.9035034,73.3903961
	c0,23.2984314,8.766861,71.5252533,23.4381561,111.9010162C194.4844971,374.4186401,217.2039337,417.9975891,250,417.9975891
	c32.7965698,0,55.5155029-43.578949,68.7992249-80.1358032c14.6712952-40.3757629,23.4381409-88.6020813,23.4381409-111.9010162
	C342.2373657,194.848587,322.3877869,166.4424896,291.3343811,152.5702515z M213.255188,143.9727173
	c0-2.3110199,1.1326904-4.4888458,3.030014-5.825119c0.8249664-0.5812988,1.3172455-1.5362854,1.3172455-2.5560913
	c0-1.0197906-0.4922791-1.9747772-1.3172455-2.556076c-1.8973236-1.3362732-3.030014-3.5140991-3.030014-5.8251114v-2.3940506
	c0-2.3115082,1.1326904-4.4888382,3.0295105-5.8251114c0.82547-0.5812988,1.317749-1.5362854,1.317749-2.5560837
	s-0.4922791-1.9747849-1.317749-2.5560837c-1.8968201-1.3362732-3.0295105-3.5135956-3.0295105-5.8251114v-2.3945541
	c0-3.9085617,3.1322632-7.0884705,6.982254-7.0884705h6.1109314c1.0878143,0,2.0938263-0.58535,2.6439667-1.5378036
	C231.9864502,91.8464508,240.6251373,88.2244949,250,88.2244949c9.3748779,0,18.0135498,3.6219559,21.0076599,8.8085556
	c0.5501404,0.9524536,1.5561523,1.5378036,2.6439819,1.5378036h6.1109009c3.8500061,0,6.9822693,3.1799088,6.9822693,7.0884705
	v2.3945541c0,2.3115158-1.1326904,4.4888382-3.0295105,5.8251114c-0.8249817,0.5812988-1.3172607,1.5362854-1.3172607,2.5560837
	s0.4922791,1.9747849,1.3172607,2.5560837c1.8968201,1.3362732,3.0295105,3.5136032,3.0295105,5.8251114v2.3940506
	c0,2.3115158-1.1326904,4.4888382-3.0295105,5.8251114c-0.8249817,0.5812988-1.3172607,1.5362854-1.3172607,2.556076
	c0,1.0198059,0.4922791,1.9747925,1.3172607,2.5560913c1.8968201,1.3362732,3.0295105,3.5135956,3.0295105,5.825119v2.3945465
	c0,1.5960388-0.5436401,3.1470032-1.5182495,4.3941498h-70.4521332c-0.9750977-1.2476501-1.5192413-2.7986298-1.5192413-4.3941498
	V143.9727173z M250,411.7755127c-52.2814789,0-86.1085052-138.0446472-86.1085052-185.814743
	c0-29.5984955,19.6968994-56.6161041,50.230545-68.9772491h71.7564087
	c30.5331726,12.361145,50.2300415,39.3787537,50.2300415,68.9772491C336.10849,273.7308655,302.2814636,411.7755127,250,411.7755127
	z"/>
</svg>
