  0
SECTION
  2
HEADER
  9
$ACADVER
  1
AC1024
  9
$ACADMAINTVER
 70
     6
  9
$DWGCODEPAGE
  3
ANSI_1252
  9
$INSBASE
 10
0.0
 20
0.0
 30
0.0
  9
$EXTMIN
 10
1.000000000000000E+20
 20
1.000000000000000E+20
 30
1.000000000000000E+20
  9
$EXTMAX
 10
-1.000000000000000E+20
 20
-1.000000000000000E+20
 30
-1.000000000000000E+20
  9
$LIMMIN
 10
0.0
 20
0.0
  9
$LIMMAX
 10
12.0
 20
9.0
  9
$ORTHOMODE
 70
     0
  9
$REGENMODE
 70
     1
  9
$FILLMODE
 70
     1
  9
$QTEXTMODE
 70
     0
  9
$MIRRTEXT
 70
     1
  9
$LTSCALE
 40
1.0
  9
$ATTMODE
 70
     1
  9
$TEXTSIZE
 40
0.2
  9
$TRACEWID
 40
0.05
  9
$TEXTSTYLE
  7
Standard
  9
$CLAYER
  8
0
  9
$CELTYPE
  6
ByLayer
  9
$CECOLOR
 62
   256
  9
$CELTSCALE
 40
1.0
  9
$DISPSILH
 70
     0
  9
$DIMSCALE
 40
1.0
  9
$DIMASZ
 40
0.18
  9
$DIMEXO
 40
0.0625
  9
$DIMDLI
 40
0.38
  9
$DIMRND
 40
0.0
  9
$DIMDLE
 40
0.0
  9
$DIMEXE
 40
0.18
  9
$DIMTP
 40
0.0
  9
$DIMTM
 40
0.0
  9
$DIMTXT
 40
0.18
  9
$DIMCEN
 40
0.09
  9
$DIMTSZ
 40
0.0
  9
$DIMTOL
 70
     0
  9
$DIMLIM
 70
     0
  9
$DIMTIH
 70
     1
  9
$DIMTOH
 70
     1
  9
$DIMSE1
 70
     0
  9
$DIMSE2
 70
     0
  9
$DIMTAD
 70
     0
  9
$DIMZIN
 70
     0
  9
$DIMBLK
  1

  9
$DIMASO
 70
     1
  9
$DIMSHO
 70
     1
  9
$DIMPOST
  1

  9
$DIMAPOST
  1

  9
$DIMALT
 70
     0
  9
$DIMALTD
 70
     2
  9
$DIMALTF
 40
25.4
  9
$DIMLFAC
 40
1.0
  9
$DIMTOFL
 70
     0
  9
$DIMTVP
 40
0.0
  9
$DIMTIX
 70
     0
  9
$DIMSOXD
 70
     0
  9
$DIMSAH
 70
     0
  9
$DIMBLK1
  1

  9
$DIMBLK2
  1

  9
$DIMSTYLE
  2
Standard
  9
$DIMCLRD
 70
     0
  9
$DIMCLRE
 70
     0
  9
$DIMCLRT
 70
     0
  9
$DIMTFAC
 40
1.0
  9
$DIMGAP
 40
0.09
  9
$DIMJUST
 70
     0
  9
$DIMSD1
 70
     0
  9
$DIMSD2
 70
     0
  9
$DIMTOLJ
 70
     1
  9
$DIMTZIN
 70
     0
  9
$DIMALTZ
 70
     0
  9
$DIMALTTZ
 70
     0
  9
$DIMUPT
 70
     0
  9
$DIMDEC
 70
     4
  9
$DIMTDEC
 70
     4
  9
$DIMALTU
 70
     2
  9
$DIMALTTD
 70
     2
  9
$DIMTXSTY
  7
Standard
  9
$DIMAUNIT
 70
     0
  9
$DIMADEC
 70
     0
  9
$DIMALTRND
 40
0.0
  9
$DIMAZIN
 70
     0
  9
$DIMDSEP
 70
    46
  9
$DIMATFIT
 70
     3
  9
$DIMFRAC
 70
     0
  9
$DIMLDRBLK
  1

  9
$DIMLUNIT
 70
     2
  9
$DIMLWD
 70
    -2
  9
$DIMLWE
 70
    -2
  9
$DIMTMOVE
 70
     0
  9
$DIMFXL
 40
1.0
  9
$DIMFXLON
 70
     0
  9
$DIMJOGANG
 40
0.7853981633974483
  9
$DIMTFILL
 70
     0
  9
$DIMTFILLCLR
 70
     0
  9
$DIMARCSYM
 70
     0
  9
$DIMLTYPE
  6

  9
$DIMLTEX1
  6

  9
$DIMLTEX2
  6

  9
$DIMTXTDIRECTION
 70
     0
  9
$LUNITS
 70
     2
  9
$LUPREC
 70
     4
  9
$SKETCHINC
 40
0.1
  9
$FILLETRAD
 40
0.5
  9
$AUNITS
 70
     0
  9
$AUPREC
 70
     0
  9
$MENU
  1
.
  9
$ELEVATION
 40
0.0
  9
$PELEVATION
 40
0.0
  9
$THICKNESS
 40
0.0
  9
$LIMCHECK
 70
     0
  9
$CHAMFERA
 40
0.5
  9
$CHAMFERB
 40
0.5
  9
$CHAMFERC
 40
1.0
  9
$CHAMFERD
 40
0.0
  9
$SKPOLY
 70
     0
  9
$TDCREATE
 40
2460220.885139514
  9
$TDUCREATE
 40
2460221.010139514
  9
$TDUPDATE
 40
2460220.885139514
  9
$TDUUPDATE
 40
2460221.010139514
  9
$TDINDWG
 40
0.0000000116
  9
$TDUSRTIMER
 40
0.0000000116
  9
$USRTIMER
 70
     1
  9
$ANGBASE
 50
0.0
  9
$ANGDIR
 70
     0
  9
$PDMODE
 70
     0
  9
$PDSIZE
 40
0.0
  9
$PLINEWID
 40
0.0
  9
$SPLFRAME
 70
     0
  9
$SPLINETYPE
 70
     6
  9
$SPLINESEGS
 70
     8
  9
$HANDSEED
  5
47
  9
$SURFTAB1
 70
     6
  9
$SURFTAB2
 70
     6
  9
$SURFTYPE
 70
     6
  9
$SURFU
 70
     6
  9
$SURFV
 70
     6
  9
$UCSBASE
  2

  9
$UCSNAME
  2

  9
$UCSORG
 10
0.0
 20
0.0
 30
0.0
  9
$UCSXDIR
 10
1.0
 20
0.0
 30
0.0
  9
$UCSYDIR
 10
0.0
 20
1.0
 30
0.0
  9
$UCSORTHOREF
  2

  9
$UCSORTHOVIEW
 70
     0
  9
$UCSORGTOP
 10
0.0
 20
0.0
 30
0.0
  9
$UCSORGBOTTOM
 10
0.0
 20
0.0
 30
0.0
  9
$UCSORGLEFT
 10
0.0
 20
0.0
 30
0.0
  9
$UCSORGRIGHT
 10
0.0
 20
0.0
 30
0.0
  9
$UCSORGFRONT
 10
0.0
 20
0.0
 30
0.0
  9
$UCSORGBACK
 10
0.0
 20
0.0
 30
0.0
  9
$PUCSBASE
  2

  9
$PUCSNAME
  2

  9
$PUCSORG
 10
0.0
 20
0.0
 30
0.0
  9
$PUCSXDIR
 10
1.0
 20
0.0
 30
0.0
  9
$PUCSYDIR
 10
0.0
 20
1.0
 30
0.0
  9
$PUCSORTHOREF
  2

  9
$PUCSORTHOVIEW
 70
     0
  9
$PUCSORGTOP
 10
0.0
 20
0.0
 30
0.0
  9
$PUCSORGBOTTOM
 10
0.0
 20
0.0
 30
0.0
  9
$PUCSORGLEFT
 10
0.0
 20
0.0
 30
0.0
  9
$PUCSORGRIGHT
 10
0.0
 20
0.0
 30
0.0
  9
$PUCSORGFRONT
 10
0.0
 20
0.0
 30
0.0
  9
$PUCSORGBACK
 10
0.0
 20
0.0
 30
0.0
  9
$USERI1
 70
     0
  9
$USERI2
 70
     0
  9
$USERI3
 70
     0
  9
$USERI4
 70
     0
  9
$USERI5
 70
     0
  9
$USERR1
 40
0.0
  9
$USERR2
 40
0.0
  9
$USERR3
 40
0.0
  9
$USERR4
 40
0.0
  9
$USERR5
 40
0.0
  9
$WORLDVIEW
 70
     1
  9
$SHADEDGE
 70
     3
  9
$SHADEDIF
 70
    70
  9
$TILEMODE
 70
     1
  9
$MAXACTVP
 70
    64
  9
$PINSBASE
 10
0.0
 20
0.0
 30
0.0
  9
$PLIMCHECK
 70
     0
  9
$PEXTMIN
 10
1.000000000000000E+20
 20
1.000000000000000E+20
 30
1.000000000000000E+20
  9
$PEXTMAX
 10
-1.000000000000000E+20
 20
-1.000000000000000E+20
 30
-1.000000000000000E+20
  9
$PLIMMIN
 10
0.0
 20
0.0
  9
$PLIMMAX
 10
12.0
 20
9.0
  9
$UNITMODE
 70
     0
  9
$VISRETAIN
 70
     1
  9
$PLINEGEN
 70
     0
  9
$PSLTSCALE
 70
     1
  9
$TREEDEPTH
 70
  3020
  9
$CMLSTYLE
  2
Standard
  9
$CMLJUST
 70
     0
  9
$CMLSCALE
 40
1.0
  9
$PROXYGRAPHICS
 70
     1
  9
$MEASUREMENT
 70
     0
  9
$CELWEIGHT
370
    -1
  9
$ENDCAPS
280
     0
  9
$JOINSTYLE
280
     0
  9
$LWDISPLAY
290
     1
  9
$INSUNITS
 70
     0
  9
$HYPERLINKBASE
  1

  9
$STYLESHEET
  1

  9
$XEDIT
290
     1
  9
$CEPSNTYPE
380
     0
  9
$PSTYLEMODE
290
     1
  9
$FINGERPRINTGUID
  2
{A7AE0E8A-8530-4C70-92DD-6276ACC8595C}
  9
$VERSIONGUID
  2
{FAEB1C32-E019-11D5-929B-00C0DF256EC4}
  9
$EXTNAMES
290
     1
  9
$PSVPSCALE
 40
0.0
  9
$OLESTARTUP
290
     0
  9
$SORTENTS
280
   127
  9
$INDEXCTL
280
     0
  9
$HIDETEXT
280
     1
  9
$XCLIPFRAME
280
     2
  9
$HALOGAP
280
     0
  9
$OBSCOLOR
 70
   257
  9
$OBSLTYPE
280
     0
  9
$INTERSECTIONDISPLAY
280
     0
  9
$INTERSECTIONCOLOR
 70
   257
  9
$DIMASSOC
280
     2
  9
$PROJECTNAME
  1

  9
$CAMERADISPLAY
290
     0
  9
$LENSLENGTH
 40
50.0
  9
$CAMERAHEIGHT
 40
0.0
  9
$STEPSPERSEC
 40
2.0
  9
$STEPSIZE
 40
6.0
  9
$3DDWFPREC
 40
2.0
  9
$PSOLWIDTH
 40
0.25
  9
$PSOLHEIGHT
 40
4.0
  9
$LOFTANG1
 40
1.570796326794897
  9
$LOFTANG2
 40
1.570796326794897
  9
$LOFTMAG1
 40
0.0
  9
$LOFTMAG2
 40
0.0
  9
$LOFTPARAM
 70
     7
  9
$LOFTNORMALS
280
     1
  9
$LATITUDE
 40
37.795
  9
$LONGITUDE
 40
-122.394
  9
$NORTHDIRECTION
 40
0.0
  9
$TIMEZONE
 70
 -8000
  9
$LIGHTGLYPHDISPLAY
280
     1
  9
$TILEMODELIGHTSYNCH
280
     1
  9
$CMATERIAL
347
3C
  9
$SOLIDHIST
280
     1
  9
$SHOWHIST
280
     1
  9
$DWFFRAME
280
     2
  9
$DGNFRAME
280
     2
  9
$REALWORLDSCALE
290
     1
  9
$INTERFERECOLOR
 62
   256
  9
$CSHADOW
280
     0
  9
$SHADOWPLANELOCATION
 40
0.0
  0
ENDSEC
  0
SECTION
  2
CLASSES
  0
CLASS
  1
ACDBDICTIONARYWDFLT
  2
AcDbDictionaryWithDefault
  3
ObjectDBX Classes
 90
        0
 91
        4
280
     0
281
     0
  0
CLASS
  1
VISUALSTYLE
  2
AcDbVisualStyle
  3
ObjectDBX Classes
 90
     4095
 91
        4
280
     0
281
     0
  0
CLASS
  1
MATERIAL
  2
AcDbMaterial
  3
ObjectDBX Classes
 90
     1153
 91
        4
280
     0
281
     0
  0
CLASS
  1
SUN
  2
AcDbSun
  3
SCENEOE
 90
     1024
 91
        4
280
     0
281
     0
  0
ENDSEC
  0
SECTION
  2
TABLES
  0
TABLE
  2
VPORT
  5
8
330
0
100
AcDbSymbolTable
 70
     1
  0
VPORT
  5
29
330
8
100
AcDbSymbolTableRecord
100
AcDbViewportTableRecord
  2
*Active
 70
     0
 10
0.0
 20
0.0
 11
1.0
 21
1.0
 12
0.0
 22
0.0
 13
0.0
 23
0.0
 14
0.5
 24
0.5
 15
0.5
 25
0.5
 16
0.0
 26
0.0
 36
1.0
 17
250.0
 27
-250.0
 37
0.0
 40
500.0
 41
1.0
 42
50.0
 43
0.0
 44
0.0
 50
0.0
 51
0.0
 71
     0
 72
   100
 73
     1
 74
     3
 75
     0
 76
     0
 77
     0
 78
     0
281
     0
 65
     1
110
0.0
120
0.0
130
0.0
111
1.0
121
0.0
131
0.0
112
0.0
122
1.0
132
0.0
 79
     0
146
0.0
 60
     3
 61
     5
292
     1
282
     1
141
0.0
142
0.0
 63
   250
361
3F
  0
ENDTAB
  0
TABLE
  2
LTYPE
  5
5
330
0
100
AcDbSymbolTable
 70
     1
  0
LTYPE
  5
14
330
5
100
AcDbSymbolTableRecord
100
AcDbLinetypeTableRecord
  2
ByBlock
 70
     0
  3

 72
    65
 73
     0
 40
0.0
  0
LTYPE
  5
15
330
5
100
AcDbSymbolTableRecord
100
AcDbLinetypeTableRecord
  2
ByLayer
 70
     0
  3

 72
    65
 73
     0
 40
0.0
  0
LTYPE
  5
16
330
5
100
AcDbSymbolTableRecord
100
AcDbLinetypeTableRecord
  2
Continuous
 70
     0
  3
Solid line
 72
    65
 73
     0
 40
0.0
  0
ENDTAB
  0
TABLE
  2
LAYER
  5
2
330
0
100
AcDbSymbolTable
 70
     2
  0
LAYER
  5
10
330
2
100
AcDbSymbolTableRecord
100
AcDbLayerTableRecord
  2
0
 70
     0
 62
     7
  6
Continuous
370
    -3
390
F
347
3E
  0
LAYER
  5
40
330
2
100
AcDbSymbolTableRecord
100
AcDbLayerTableRecord
  2
Layer 1
 70
     0
 62
     7
  6
Continuous
370
    -3
390
F
347
3E
  0
ENDTAB
  0
TABLE
  2
STYLE
  5
3
330
0
100
AcDbSymbolTable
 70
     1
  0
STYLE
  5
11
330
3
100
AcDbSymbolTableRecord
100
AcDbTextStyleTableRecord
  2
Standard
 70
     0
 40
0.0
 41
1.0
 50
0.0
 71
     0
 42
0.2
  3
txt
  4

  0
ENDTAB
  0
TABLE
  2
VIEW
  5
6
330
0
100
AcDbSymbolTable
 70
     0
  0
ENDTAB
  0
TABLE
  2
UCS
  5
7
330
0
100
AcDbSymbolTable
 70
     0
  0
ENDTAB
  0
TABLE
  2
APPID
  5
9
330
0
100
AcDbSymbolTable
 70
     1
  0
APPID
  5
12
330
9
100
AcDbSymbolTableRecord
100
AcDbRegAppTableRecord
  2
ACAD
 70
     0
  0
ENDTAB
  0
TABLE
  2
DIMSTYLE
  5
A
330
0
100
AcDbSymbolTable
 70
     1
100
AcDbDimStyleTable
  0
DIMSTYLE
105
27
330
A
100
AcDbSymbolTableRecord
100
AcDbDimStyleTableRecord
  2
Standard
 70
     0
178
     0
340
11
  0
ENDTAB
  0
TABLE
  2
BLOCK_RECORD
  5
1
330
0
100
AcDbSymbolTable
 70
     1
  0
BLOCK_RECORD
  5
1F
330
1
100
AcDbSymbolTableRecord
100
AcDbBlockTableRecord
  2
*Model_Space
340
22
 70
     0
280
     1
281
     0
  0
BLOCK_RECORD
  5
1B
330
1
100
AcDbSymbolTableRecord
100
AcDbBlockTableRecord
  2
*Paper_Space
340
1E
 70
     0
280
     1
281
     0
  0
BLOCK_RECORD
  5
23
330
1
100
AcDbSymbolTableRecord
100
AcDbBlockTableRecord
  2
*Paper_Space0
340
26
 70
     0
280
     1
281
     0
  0
ENDTAB
  0
ENDSEC
  0
SECTION
  2
BLOCKS
  0
BLOCK
  5
20
330
1F
100
AcDbEntity
  8
0
100
AcDbBlockBegin
  2
*Model_Space
 70
     0
 10
0.0
 20
0.0
 30
0.0
  3
*Model_Space
  1

  0
ENDBLK
  5
21
330
1F
100
AcDbEntity
  8
0
100
AcDbBlockEnd
  0
BLOCK
  5
1C
330
1B
100
AcDbEntity
 67
     1
  8
0
100
AcDbBlockBegin
  2
*Paper_Space
 70
     0
 10
0.0
 20
0.0
 30
0.0
  3
*Paper_Space
  1

  0
ENDBLK
  5
1D
330
1B
100
AcDbEntity
 67
     1
  8
0
100
AcDbBlockEnd
  0
BLOCK
  5
24
330
23
100
AcDbEntity
  8
0
100
AcDbBlockBegin
  2
*Paper_Space0
 70
     0
 10
0.0
 20
0.0
 30
0.0
  3
*Paper_Space0
  1

  0
ENDBLK
  5
25
330
23
100
AcDbEntity
  8
0
100
AcDbBlockEnd
  0
ENDSEC
  0
SECTION
  2
ENTITIES
  0
SPLINE
  5
41
330
1F
100
AcDbEntity
  8
Layer 1
370
     0
100
AcDbSpline
210
0.0
220
0.0
230
1.0
 70
    11
 71
     3
 72
    89
 73
    85
 74
     0
 42
0.0000000001
 43
0.0000000001
 12
1.0
 22
0.0
 32
0.0
 13
1.0
 23
0.0
 33
0.0
 40
0.0
 40
0.0
 40
0.0
 40
0.0
 40
1.0
 40
1.0
 40
1.0
 40
2.0
 40
2.0
 40
2.0
 40
3.0
 40
3.0
 40
3.0
 40
4.0
 40
4.0
 40
4.0
 40
5.0
 40
5.0
 40
5.0
 40
6.0
 40
6.0
 40
6.0
 40
7.0
 40
7.0
 40
7.0
 40
8.0
 40
8.0
 40
8.0
 40
9.0
 40
9.0
 40
9.0
 40
10.0
 40
10.0
 40
10.0
 40
11.0
 40
11.0
 40
11.0
 40
12.0
 40
12.0
 40
12.0
 40
13.0
 40
13.0
 40
13.0
 40
14.0
 40
14.0
 40
14.0
 40
15.0
 40
15.0
 40
15.0
 40
16.0
 40
16.0
 40
16.0
 40
17.0
 40
17.0
 40
17.0
 40
18.0
 40
18.0
 40
18.0
 40
19.0
 40
19.0
 40
19.0
 40
20.0
 40
20.0
 40
20.0
 40
21.0
 40
21.0
 40
21.0
 40
22.0
 40
22.0
 40
22.0
 40
23.0
 40
23.0
 40
23.0
 40
24.0
 40
24.0
 40
24.0
 40
25.0
 40
25.0
 40
25.0
 40
26.0
 40
26.0
 40
26.0
 40
27.0
 40
27.0
 40
27.0
 40
28.0
 40
28.0
 40
28.0
 40
28.0
 10
291.3343682581744
 20
-152.5702458107462
 30
0.0
 10
292.3250484148339
 20
-150.6709697494225
 30
0.0
 10
292.8736944424363
 20
-148.5456059721964
 30
0.0
 10
292.8736944424363
 20
-146.3672647542626
 30
0.0
 10
292.8736944424363
 20
-146.3672647542626
 30
0.0
 10
292.8736944424363
 20
-143.9727097520299
 30
0.0
 10
292.8736944424363
 20
-143.9727097520299
 30
0.0
 10
292.8736944424363
 20
-140.8900176704901
 30
0.0
 10
291.8103186871194
 20
-137.9384716548393
 30
0.0
 10
289.9284628124442
 20
-135.5915140664783
 30
0.0
 10
291.8103186871194
 20
-133.244556478121
 30
0.0
 10
292.8736944424363
 20
-130.2930104624684
 30
0.0
 10
292.8736944424363
 20
-127.2103183809286
 30
0.0
 10
292.8736944424363
 20
-127.2103183809286
 30
0.0
 10
292.8736944424363
 20
-124.8162697341613
 30
0.0
 10
292.8736944424363
 20
-124.8162697341613
 30
0.0
 10
292.8736944424363
 20
-121.7335776526234
 30
0.0
 10
291.8103186871194
 20
-118.7820316369725
 30
0.0
 10
289.9284628124442
 20
-116.4350740486116
 30
0.0
 10
291.8103186871194
 20
-114.0881164602524
 30
0.0
 10
292.8736944424363
 20
-111.1365704446016
 30
0.0
 10
292.8736944424363
 20
-108.0538783630618
 30
0.0
 10
292.8736944424363
 20
-108.0538783630618
 30
0.0
 10
292.8736944424363
 20
-105.6593233608291
 30
0.0
 10
292.8736944424363
 20
-105.6593233608291
 30
0.0
 10
292.8736944424363
 20
-98.31970087037189
 30
0.0
 10
286.9922090265391
 20
-92.34875720652417
 30
0.0
 10
279.762550690084
 20
-92.34875720652417
 30
0.0
 10
279.762550690084
 20
-92.34875720652417
 30
0.0
 10
275.2870954121972
 20
-92.34875720652417
 30
0.0
 10
275.2870954121972
 20
-92.34875720652417
 30
0.0
 10
270.6136287952577
 20
-86.01171854021959
 30
0.0
 10
260.944490712438
 20
-82.00239595453968
 30
0.0
 10
250.0
 20
-82.00239595453968
 30
0.0
 10
239.055509287562
 20
-82.00239595453968
 30
0.0
 10
229.3863712047441
 20
-86.01171854021959
 30
0.0
 10
224.7129045878028
 20
-92.34875720652417
 30
0.0
 10
224.7129045878028
 20
-92.34875720652417
 30
0.0
 10
220.2374493099142
 20
-92.34875720652417
 30
0.0
 10
220.2374493099142
 20
-92.34875720652417
 30
0.0
 10
213.0077909734628
 20
-92.34875720652417
 30
0.0
 10
207.1263055575637
 20
-98.31970087037189
 30
0.0
 10
207.1263055575637
 20
-105.6593233608291
 30
0.0
 10
207.1263055575637
 20
-105.6593233608291
 30
0.0
 10
207.1263055575637
 20
-108.0538783630618
 30
0.0
 10
207.1263055575637
 20
-108.0538783630618
 30
0.0
 10
207.1263055575637
 20
-111.1365704446016
 30
0.0
 10
208.1896813128806
 20
-114.0881164602524
 30
0.0
 10
210.0715371875576
 20
-116.4350740486116
 30
0.0
 10
208.1896813128806
 20
-118.7820316369725
 30
0.0
 10
207.1263055575637
 20
-121.7335776526234
 30
0.0
 10
207.1263055575637
 20
-124.8162697341613
 30
0.0
 10
207.1263055575637
 20
-124.8162697341613
 30
0.0
 10
207.1263055575637
 20
-127.2103183809286
 30
0.0
 10
207.1263055575637
 20
-127.2103183809286
 30
0.0
 10
207.1263055575637
 20
-130.2930104624684
 30
0.0
 10
208.1896813128806
 20
-133.244050122652
 30
0.0
 10
210.0715371875576
 20
-135.5915140664783
 30
0.0
 10
208.1896813128806
 20
-137.9389780103047
 30
0.0
 10
207.1263055575637
 20
-140.8900176704901
 30
0.0
 10
207.1263055575637
 20
-143.9727097520299
 30
0.0
 10
207.1263055575637
 20
-143.9727097520299
 30
0.0
 10
207.1263055575637
 20
-146.3672647542626
 30
0.0
 10
207.1263055575637
 20
-146.3672647542626
 30
0.0
 10
207.1263055575637
 20
-148.5453527944628
 30
0.0
 10
207.6750762774445
 20
-150.6707798661228
 30
0.0
 10
208.666130510941
 20
-152.5703723996121
 30
0.0
 10
177.6121418872463
 20
-166.4426133554043
 30
0.0
 10
157.7626273777059
 20
-194.8487119787205
 30
0.0
 10
157.7626273777059
 20
-225.9607742163189
 30
0.0
 10
157.7626273777059
 20
-249.2592019521526
 30
0.0
 10
166.5294921296772
 20
-297.4860156712712
 30
0.0
 10
181.2007856768832
 20
-337.8617878785208
 30
0.0
 10
194.48450354337
 20
-374.4186271555882
 30
0.0
 10
217.2039355463894
 20
-417.9976040454603
 30
0.0
 10
250.0
 20
-417.9976040454603
 30
0.0
 10
282.7965632227279
 20
-417.9976040454603
 30
0.0
 10
305.5154964566282
 20
-374.4186271555882
 30
0.0
 10
318.7992143231168
 20
-337.8617878785208
 30
0.0
 10
333.4705078703228
 20
-297.4860156712712
 30
0.0
 10
342.2373726222941
 20
-249.2597083076198
 30
0.0
 10
342.2373726222941
 20
-225.9607742163189
 30
0.0
 10
342.2373726222941
 20
-194.8485853898546
 30
0.0
 10
322.3877957666118
 20
-166.4424867665366
 30
0.0
 10
291.3343682581744
 20
-152.5702458107462
 30
0.0
  0
SPLINE
  5
42
330
1F
100
AcDbEntity
  8
Layer 1
370
     0
100
AcDbSpline
210
0.0
220
0.0
230
1.0
 70
    11
 71
     3
 72
   104
 73
   100
 74
     0
 42
0.0000000001
 43
0.0000000001
 12
1.0
 22
0.0
 32
0.0
 13
1.0
 23
0.0
 33
0.0
 40
0.0
 40
0.0
 40
0.0
 40
0.0
 40
1.0
 40
1.0
 40
1.0
 40
2.0
 40
2.0
 40
2.0
 40
3.0
 40
3.0
 40
3.0
 40
4.0
 40
4.0
 40
4.0
 40
5.0
 40
5.0
 40
5.0
 40
6.0
 40
6.0
 40
6.0
 40
7.0
 40
7.0
 40
7.0
 40
8.0
 40
8.0
 40
8.0
 40
9.0
 40
9.0
 40
9.0
 40
10.0
 40
10.0
 40
10.0
 40
11.0
 40
11.0
 40
11.0
 40
12.0
 40
12.0
 40
12.0
 40
13.0
 40
13.0
 40
13.0
 40
14.0
 40
14.0
 40
14.0
 40
15.0
 40
15.0
 40
15.0
 40
16.0
 40
16.0
 40
16.0
 40
17.0
 40
17.0
 40
17.0
 40
18.0
 40
18.0
 40
18.0
 40
19.0
 40
19.0
 40
19.0
 40
20.0
 40
20.0
 40
20.0
 40
21.0
 40
21.0
 40
21.0
 40
22.0
 40
22.0
 40
22.0
 40
23.0
 40
23.0
 40
23.0
 40
24.0
 40
24.0
 40
24.0
 40
25.0
 40
25.0
 40
25.0
 40
26.0
 40
26.0
 40
26.0
 40
27.0
 40
27.0
 40
27.0
 40
28.0
 40
28.0
 40
28.0
 40
29.0
 40
29.0
 40
29.0
 40
30.0
 40
30.0
 40
30.0
 40
31.0
 40
31.0
 40
31.0
 40
32.0
 40
32.0
 40
32.0
 40
33.0
 40
33.0
 40
33.0
 40
33.0
 10
213.2551804549985
 20
-143.9727097520299
 30
0.0
 10
213.2551804549985
 20
-141.6617034018091
 30
0.0
 10
214.3878851174395
 20
-139.4838685393424
 30
0.0
 10
216.2852028347133
 20
-138.1475964626043
 30
0.0
 10
217.1101669525797
 20
-137.5663003867812
 30
0.0
 10
217.6024520700739
 20
-136.6113139765021
 30
0.0
 10
217.6024520700739
 20
-135.5915140664783
 30
0.0
 10
217.6024520700739
 20
-134.5717141564564
 30
0.0
 10
217.1101669525797
 20
-133.6167277461773
 30
0.0
 10
216.2852028347133
 20
-133.0354316703542
 30
0.0
 10
214.3878851174395
 20
-131.6991595936161
 30
0.0
 10
213.2551804549985
 20
-129.5213247311494
 30
0.0
 10
213.2551804549985
 20
-127.2103183809286
 30
0.0
 10
213.2551804549985
 20
-127.2103183809286
 30
0.0
 10
213.2551804549985
 20
-124.8162697341613
 30
0.0
 10
213.2551804549985
 20
-124.8162697341613
 30
0.0
 10
213.2551804549985
 20
-122.5047570284751
 30
0.0
 10
214.3878851174395
 20
-120.3274285214757
 30
0.0
 10
216.2847040655961
 20
-118.9911564447357
 30
0.0
 10
217.1101669525797
 20
-118.4098603689145
 30
0.0
 10
217.6024520700739
 20
-117.4548739586353
 30
0.0
 10
217.6024520700739
 20
-116.4350740486116
 30
0.0
 10
217.6024520700739
 20
-115.4152741385897
 30
0.0
 10
217.1101669525797
 20
-114.4602877283105
 30
0.0
 10
216.2847040655961
 20
-113.8789916524875
 30
0.0
 10
214.3878851174395
 20
-112.5427195757493
 30
0.0
 10
213.2551804549985
 20
-110.3653910687499
 30
0.0
 10
213.2551804549985
 20
-108.0538783630618
 30
0.0
 10
213.2551804549985
 20
-108.0538783630618
 30
0.0
 10
213.2551804549985
 20
-105.6593233608291
 30
0.0
 10
213.2551804549985
 20
-105.6593233608291
 30
0.0
 10
213.2551804549985
 20
-101.7507655130303
 30
0.0
 10
216.3874505034928
 20
-98.57085318187637
 30
0.0
 10
220.2374493099142
 20
-98.57085318187637
 30
0.0
 10
220.2374493099142
 20
-98.57085318187637
 30
0.0
 10
226.3483685191732
 20
-98.57085318187637
 30
0.0
 10
226.3483685191732
 20
-98.57085318187637
 30
0.0
 10
227.4361839611738
 20
-98.57085318187637
 30
0.0
 10
228.4422012681516
 20
-97.985506262321
 30
0.0
 10
228.9923436031022
 20
-97.03305162937431
 30
0.0
 10
231.9864546064637
 20
-91.84645258351338
 30
0.0
 10
240.6251356956218
 20
-88.22449192989188
 30
0.0
 10
250.0
 20
-88.22449192989188
 30
0.0
 10
259.3748643043782
 20
-88.22449192989188
 30
0.0
 10
268.0135453935363
 20
-91.84645258351338
 30
0.0
 10
271.0076563968978
 20
-97.03305162937431
 30
0.0
 10
271.5577987318484
 20
-97.985506262321
 30
0.0
 10
272.5638160388262
 20
-98.57085318187637
 30
0.0
 10
273.651631480825
 20
-98.57085318187637
 30
0.0
 10
273.651631480825
 20
-98.57085318187637
 30
0.0
 10
279.762550690084
 20
-98.57085318187637
 30
0.0
 10
279.762550690084
 20
-98.57085318187637
 30
0.0
 10
283.6125494965054
 20
-98.57085318187637
 30
0.0
 10
286.7448195450015
 20
-101.7507655130303
 30
0.0
 10
286.7448195450015
 20
-105.6593233608291
 30
0.0
 10
286.7448195450015
 20
-105.6593233608291
 30
0.0
 10
286.7448195450015
 20
-108.0538783630618
 30
0.0
 10
286.7448195450015
 20
-108.0538783630618
 30
0.0
 10
286.7448195450015
 20
-110.3653910687499
 30
0.0
 10
285.6121148825587
 20
-112.5427195757493
 30
0.0
 10
283.7152959344021
 20
-113.8789916524875
 30
0.0
 10
282.8903318165358
 20
-114.4602877283105
 30
0.0
 10
282.3980466990397
 20
-115.4152741385897
 30
0.0
 10
282.3980466990397
 20
-116.4350740486116
 30
0.0
 10
282.3980466990397
 20
-117.4548739586353
 30
0.0
 10
282.8903318165358
 20
-118.4098603689145
 30
0.0
 10
283.7152959344021
 20
-118.9911564447357
 30
0.0
 10
285.6121148825587
 20
-120.3274285214757
 30
0.0
 10
286.7448195450015
 20
-122.5047570284751
 30
0.0
 10
286.7448195450015
 20
-124.8162697341613
 30
0.0
 10
286.7448195450015
 20
-124.8162697341613
 30
0.0
 10
286.7448195450015
 20
-127.2103183809286
 30
0.0
 10
286.7448195450015
 20
-127.2103183809286
 30
0.0
 10
286.7448195450015
 20
-129.5218310866167
 30
0.0
 10
285.6121148825587
 20
-131.6991595936161
 30
0.0
 10
283.7152959344021
 20
-133.0354316703542
 30
0.0
 10
282.8903318165358
 20
-133.6167277461773
 30
0.0
 10
282.3980466990397
 20
-134.5717141564564
 30
0.0
 10
282.3980466990397
 20
-135.5915140664783
 30
0.0
 10
282.3980466990397
 20
-136.6113139765021
 30
0.0
 10
282.8903318165358
 20
-137.5663003867812
 30
0.0
 10
283.7152959344021
 20
-138.1475964626043
 30
0.0
 10
285.6121148825587
 20
-139.4838685393424
 30
0.0
 10
286.7448195450015
 20
-141.6611970463418
 30
0.0
 10
286.7448195450015
 20
-143.9727097520299
 30
0.0
 10
286.7448195450015
 20
-143.9727097520299
 30
0.0
 10
286.7448195450015
 20
-146.3672647542626
 30
0.0
 10
286.7448195450015
 20
-146.3672647542626
 30
0.0
 10
286.7448195450015
 20
-147.9632971854408
 30
0.0
 10
286.2011612085589
 20
-149.5142639800779
 30
0.0
 10
285.2265663558901
 20
-150.7614174946684
 30
0.0
 10
285.2265663558901
 20
-150.7614174946684
 30
0.0
 10
214.7744311823426
 20
-150.7614174946684
 30
0.0
 10
214.7744311823426
 20
-150.7614174946684
 30
0.0
 10
213.7993375605583
 20
-149.5137576246125
 30
0.0
 10
213.2551804549985
 20
-147.9627908299735
 30
0.0
 10
213.2551804549985
 20
-146.3672647542626
 30
0.0
 10
213.2551804549985
 20
-146.3672647542626
 30
0.0
 10
213.2551804549985
 20
-143.9727097520299
 30
0.0
 10
213.2551804549985
 20
-143.9727097520299
 30
0.0
  0
SPLINE
  5
43
330
1F
100
AcDbEntity
  8
Layer 1
370
     0
100
AcDbSpline
210
0.0
220
0.0
230
1.0
 70
    11
 71
     3
 72
    20
 73
    16
 74
     0
 42
0.0000000001
 43
0.0000000001
 12
1.0
 22
0.0
 32
0.0
 13
1.0
 23
0.0
 33
0.0
 40
0.0
 40
0.0
 40
0.0
 40
0.0
 40
1.0
 40
1.0
 40
1.0
 40
2.0
 40
2.0
 40
2.0
 40
3.0
 40
3.0
 40
3.0
 40
4.0
 40
4.0
 40
4.0
 40
5.0
 40
5.0
 40
5.0
 40
5.0
 10
250.0
 20
-411.7755080701063
 30
0.0
 10
197.7185224915302
 20
-411.7755080701063
 30
0.0
 10
163.8915022751407
 20
-273.7308553044331
 30
0.0
 10
163.8915022751407
 20
-225.9607742163189
 30
0.0
 10
163.8915022751407
 20
-196.3622717632516
 30
0.0
 10
183.5883934351859
 20
-169.3446631241823
 30
0.0
 10
214.1220411786107
 20
-156.9835134700224
 30
0.0
 10
214.1220411786107
 20
-156.9835134700224
 30
0.0
 10
285.8784575905047
 20
-156.9835134700224
 30
0.0
 10
285.8784575905047
 20
-156.9835134700224
 30
0.0
 10
316.4116065648122
 20
-169.3446631241823
 30
0.0
 10
336.1084977248574
 20
-196.3622717632516
 30
0.0
 10
336.1084977248574
 20
-225.9607742163189
 30
0.0
 10
336.1084977248574
 20
-273.7308553044331
 30
0.0
 10
302.2814775084698
 20
-411.7755080701063
 30
0.0
 10
250.0
 20
-411.7755080701063
 30
0.0
  0
HATCH
  5
44
330
1F
100
AcDbEntity
  8
Layer 1
 62
     7
420
 16777215
100
AcDbHatch
 10
0.0
 20
0.0
 30
0.0
210
0.0
220
0.0
230
1.0
  2
SOLID
 70
     1
 71
     0
 91
        3
 92
        1
 93
        1
 72
     4
 94
        3
 73
     0
 74
     1
 95
       89
 96
       85
 40
0.0
 40
0.0
 40
0.0
 40
0.0
 40
1.0
 40
1.0
 40
1.0
 40
2.0
 40
2.0
 40
2.0
 40
3.0
 40
3.0
 40
3.0
 40
4.0
 40
4.0
 40
4.0
 40
5.0
 40
5.0
 40
5.0
 40
6.0
 40
6.0
 40
6.0
 40
7.0
 40
7.0
 40
7.0
 40
8.0
 40
8.0
 40
8.0
 40
9.0
 40
9.0
 40
9.0
 40
10.0
 40
10.0
 40
10.0
 40
11.0
 40
11.0
 40
11.0
 40
12.0
 40
12.0
 40
12.0
 40
13.0
 40
13.0
 40
13.0
 40
14.0
 40
14.0
 40
14.0
 40
15.0
 40
15.0
 40
15.0
 40
16.0
 40
16.0
 40
16.0
 40
17.0
 40
17.0
 40
17.0
 40
18.0
 40
18.0
 40
18.0
 40
19.0
 40
19.0
 40
19.0
 40
20.0
 40
20.0
 40
20.0
 40
21.0
 40
21.0
 40
21.0
 40
22.0
 40
22.0
 40
22.0
 40
23.0
 40
23.0
 40
23.0
 40
24.0
 40
24.0
 40
24.0
 40
25.0
 40
25.0
 40
25.0
 40
26.0
 40
26.0
 40
26.0
 40
27.0
 40
27.0
 40
27.0
 40
28.0
 40
28.0
 40
28.0
 40
28.0
 10
291.3343682581744
 20
-152.5702458107462
 10
292.3250484148339
 20
-150.6709697494225
 10
292.8736944424363
 20
-148.5456059721964
 10
292.8736944424363
 20
-146.3672647542626
 10
292.8736944424363
 20
-146.3672647542626
 10
292.8736944424363
 20
-143.9727097520299
 10
292.8736944424363
 20
-143.9727097520299
 10
292.8736944424363
 20
-140.8900176704901
 10
291.8103186871194
 20
-137.9384716548393
 10
289.9284628124442
 20
-135.5915140664783
 10
291.8103186871194
 20
-133.244556478121
 10
292.8736944424363
 20
-130.2930104624684
 10
292.8736944424363
 20
-127.2103183809286
 10
292.8736944424363
 20
-127.2103183809286
 10
292.8736944424363
 20
-124.8162697341613
 10
292.8736944424363
 20
-124.8162697341613
 10
292.8736944424363
 20
-121.7335776526234
 10
291.8103186871194
 20
-118.7820316369725
 10
289.9284628124442
 20
-116.4350740486116
 10
291.8103186871194
 20
-114.0881164602524
 10
292.8736944424363
 20
-111.1365704446016
 10
292.8736944424363
 20
-108.0538783630618
 10
292.8736944424363
 20
-108.0538783630618
 10
292.8736944424363
 20
-105.6593233608291
 10
292.8736944424363
 20
-105.6593233608291
 10
292.8736944424363
 20
-98.31970087037189
 10
286.9922090265391
 20
-92.34875720652417
 10
279.762550690084
 20
-92.34875720652417
 10
279.762550690084
 20
-92.34875720652417
 10
275.2870954121972
 20
-92.34875720652417
 10
275.2870954121972
 20
-92.34875720652417
 10
270.6136287952577
 20
-86.01171854021959
 10
260.944490712438
 20
-82.00239595453968
 10
250.0
 20
-82.00239595453968
 10
239.055509287562
 20
-82.00239595453968
 10
229.3863712047441
 20
-86.01171854021959
 10
224.7129045878028
 20
-92.34875720652417
 10
224.7129045878028
 20
-92.34875720652417
 10
220.2374493099142
 20
-92.34875720652417
 10
220.2374493099142
 20
-92.34875720652417
 10
213.0077909734628
 20
-92.34875720652417
 10
207.1263055575637
 20
-98.31970087037189
 10
207.1263055575637
 20
-105.6593233608291
 10
207.1263055575637
 20
-105.6593233608291
 10
207.1263055575637
 20
-108.0538783630618
 10
207.1263055575637
 20
-108.0538783630618
 10
207.1263055575637
 20
-111.1365704446016
 10
208.1896813128806
 20
-114.0881164602524
 10
210.0715371875576
 20
-116.4350740486116
 10
208.1896813128806
 20
-118.7820316369725
 10
207.1263055575637
 20
-121.7335776526234
 10
207.1263055575637
 20
-124.8162697341613
 10
207.1263055575637
 20
-124.8162697341613
 10
207.1263055575637
 20
-127.2103183809286
 10
207.1263055575637
 20
-127.2103183809286
 10
207.1263055575637
 20
-130.2930104624684
 10
208.1896813128806
 20
-133.244050122652
 10
210.0715371875576
 20
-135.5915140664783
 10
208.1896813128806
 20
-137.9389780103047
 10
207.1263055575637
 20
-140.8900176704901
 10
207.1263055575637
 20
-143.9727097520299
 10
207.1263055575637
 20
-143.9727097520299
 10
207.1263055575637
 20
-146.3672647542626
 10
207.1263055575637
 20
-146.3672647542626
 10
207.1263055575637
 20
-148.5453527944628
 10
207.6750762774445
 20
-150.6707798661228
 10
208.666130510941
 20
-152.5703723996121
 10
177.6121418872463
 20
-166.4426133554043
 10
157.7626273777059
 20
-194.8487119787205
 10
157.7626273777059
 20
-225.9607742163189
 10
157.7626273777059
 20
-249.2592019521526
 10
166.5294921296772
 20
-297.4860156712712
 10
181.2007856768832
 20
-337.8617878785208
 10
194.48450354337
 20
-374.4186271555882
 10
217.2039355463894
 20
-417.9976040454603
 10
250.0
 20
-417.9976040454603
 10
282.7965632227279
 20
-417.9976040454603
 10
305.5154964566282
 20
-374.4186271555882
 10
318.7992143231168
 20
-337.8617878785208
 10
333.4705078703228
 20
-297.4860156712712
 10
342.2373726222941
 20
-249.2597083076198
 10
342.2373726222941
 20
-225.9607742163189
 10
342.2373726222941
 20
-194.8485853898546
 10
322.3877957666118
 20
-166.4424867665366
 10
291.3343682581744
 20
-152.5702458107462
 97
        0
 97
        0
 92
        1
 93
        1
 72
     4
 94
        3
 73
     0
 74
     1
 95
      104
 96
      100
 40
0.0
 40
0.0
 40
0.0
 40
0.0
 40
1.0
 40
1.0
 40
1.0
 40
2.0
 40
2.0
 40
2.0
 40
3.0
 40
3.0
 40
3.0
 40
4.0
 40
4.0
 40
4.0
 40
5.0
 40
5.0
 40
5.0
 40
6.0
 40
6.0
 40
6.0
 40
7.0
 40
7.0
 40
7.0
 40
8.0
 40
8.0
 40
8.0
 40
9.0
 40
9.0
 40
9.0
 40
10.0
 40
10.0
 40
10.0
 40
11.0
 40
11.0
 40
11.0
 40
12.0
 40
12.0
 40
12.0
 40
13.0
 40
13.0
 40
13.0
 40
14.0
 40
14.0
 40
14.0
 40
15.0
 40
15.0
 40
15.0
 40
16.0
 40
16.0
 40
16.0
 40
17.0
 40
17.0
 40
17.0
 40
18.0
 40
18.0
 40
18.0
 40
19.0
 40
19.0
 40
19.0
 40
20.0
 40
20.0
 40
20.0
 40
21.0
 40
21.0
 40
21.0
 40
22.0
 40
22.0
 40
22.0
 40
23.0
 40
23.0
 40
23.0
 40
24.0
 40
24.0
 40
24.0
 40
25.0
 40
25.0
 40
25.0
 40
26.0
 40
26.0
 40
26.0
 40
27.0
 40
27.0
 40
27.0
 40
28.0
 40
28.0
 40
28.0
 40
29.0
 40
29.0
 40
29.0
 40
30.0
 40
30.0
 40
30.0
 40
31.0
 40
31.0
 40
31.0
 40
32.0
 40
32.0
 40
32.0
 40
33.0
 40
33.0
 40
33.0
 40
33.0
 10
213.2551804549985
 20
-143.9727097520299
 10
213.2551804549985
 20
-141.6617034018091
 10
214.3878851174395
 20
-139.4838685393424
 10
216.2852028347133
 20
-138.1475964626043
 10
217.1101669525797
 20
-137.5663003867812
 10
217.6024520700739
 20
-136.6113139765021
 10
217.6024520700739
 20
-135.5915140664783
 10
217.6024520700739
 20
-134.5717141564564
 10
217.1101669525797
 20
-133.6167277461773
 10
216.2852028347133
 20
-133.0354316703542
 10
214.3878851174395
 20
-131.6991595936161
 10
213.2551804549985
 20
-129.5213247311494
 10
213.2551804549985
 20
-127.2103183809286
 10
213.2551804549985
 20
-127.2103183809286
 10
213.2551804549985
 20
-124.8162697341613
 10
213.2551804549985
 20
-124.8162697341613
 10
213.2551804549985
 20
-122.5047570284751
 10
214.3878851174395
 20
-120.3274285214757
 10
216.2847040655961
 20
-118.9911564447357
 10
217.1101669525797
 20
-118.4098603689145
 10
217.6024520700739
 20
-117.4548739586353
 10
217.6024520700739
 20
-116.4350740486116
 10
217.6024520700739
 20
-115.4152741385897
 10
217.1101669525797
 20
-114.4602877283105
 10
216.2847040655961
 20
-113.8789916524875
 10
214.3878851174395
 20
-112.5427195757493
 10
213.2551804549985
 20
-110.3653910687499
 10
213.2551804549985
 20
-108.0538783630618
 10
213.2551804549985
 20
-108.0538783630618
 10
213.2551804549985
 20
-105.6593233608291
 10
213.2551804549985
 20
-105.6593233608291
 10
213.2551804549985
 20
-101.7507655130303
 10
216.3874505034928
 20
-98.57085318187637
 10
220.2374493099142
 20
-98.57085318187637
 10
220.2374493099142
 20
-98.57085318187637
 10
226.3483685191732
 20
-98.57085318187637
 10
226.3483685191732
 20
-98.57085318187637
 10
227.4361839611738
 20
-98.57085318187637
 10
228.4422012681516
 20
-97.985506262321
 10
228.9923436031022
 20
-97.03305162937431
 10
231.9864546064637
 20
-91.84645258351338
 10
240.6251356956218
 20
-88.22449192989188
 10
250.0
 20
-88.22449192989188
 10
259.3748643043782
 20
-88.22449192989188
 10
268.0135453935363
 20
-91.84645258351338
 10
271.0076563968978
 20
-97.03305162937431
 10
271.5577987318484
 20
-97.985506262321
 10
272.5638160388262
 20
-98.57085318187637
 10
273.651631480825
 20
-98.57085318187637
 10
273.651631480825
 20
-98.57085318187637
 10
279.762550690084
 20
-98.57085318187637
 10
279.762550690084
 20
-98.57085318187637
 10
283.6125494965054
 20
-98.57085318187637
 10
286.7448195450015
 20
-101.7507655130303
 10
286.7448195450015
 20
-105.6593233608291
 10
286.7448195450015
 20
-105.6593233608291
 10
286.7448195450015
 20
-108.0538783630618
 10
286.7448195450015
 20
-108.0538783630618
 10
286.7448195450015
 20
-110.3653910687499
 10
285.6121148825587
 20
-112.5427195757493
 10
283.7152959344021
 20
-113.8789916524875
 10
282.8903318165358
 20
-114.4602877283105
 10
282.3980466990397
 20
-115.4152741385897
 10
282.3980466990397
 20
-116.4350740486116
 10
282.3980466990397
 20
-117.4548739586353
 10
282.8903318165358
 20
-118.4098603689145
 10
283.7152959344021
 20
-118.9911564447357
 10
285.6121148825587
 20
-120.3274285214757
 10
286.7448195450015
 20
-122.5047570284751
 10
286.7448195450015
 20
-124.8162697341613
 10
286.7448195450015
 20
-124.8162697341613
 10
286.7448195450015
 20
-127.2103183809286
 10
286.7448195450015
 20
-127.2103183809286
 10
286.7448195450015
 20
-129.5218310866167
 10
285.6121148825587
 20
-131.6991595936161
 10
283.7152959344021
 20
-133.0354316703542
 10
282.8903318165358
 20
-133.6167277461773
 10
282.3980466990397
 20
-134.5717141564564
 10
282.3980466990397
 20
-135.5915140664783
 10
282.3980466990397
 20
-136.6113139765021
 10
282.8903318165358
 20
-137.5663003867812
 10
283.7152959344021
 20
-138.1475964626043
 10
285.6121148825587
 20
-139.4838685393424
 10
286.7448195450015
 20
-141.6611970463418
 10
286.7448195450015
 20
-143.9727097520299
 10
286.7448195450015
 20
-143.9727097520299
 10
286.7448195450015
 20
-146.3672647542626
 10
286.7448195450015
 20
-146.3672647542626
 10
286.7448195450015
 20
-147.9632971854408
 10
286.2011612085589
 20
-149.5142639800779
 10
285.2265663558901
 20
-150.7614174946684
 10
285.2265663558901
 20
-150.7614174946684
 10
214.7744311823426
 20
-150.7614174946684
 10
214.7744311823426
 20
-150.7614174946684
 10
213.7993375605583
 20
-149.5137576246125
 10
213.2551804549985
 20
-147.9627908299735
 10
213.2551804549985
 20
-146.3672647542626
 10
213.2551804549985
 20
-146.3672647542626
 10
213.2551804549985
 20
-143.9727097520299
 10
213.2551804549985
 20
-143.9727097520299
 97
        0
 97
        0
 92
        1
 93
        1
 72
     4
 94
        3
 73
     0
 74
     1
 95
       20
 96
       16
 40
0.0
 40
0.0
 40
0.0
 40
0.0
 40
1.0
 40
1.0
 40
1.0
 40
2.0
 40
2.0
 40
2.0
 40
3.0
 40
3.0
 40
3.0
 40
4.0
 40
4.0
 40
4.0
 40
5.0
 40
5.0
 40
5.0
 40
5.0
 10
250.0
 20
-411.7755080701063
 10
197.7185224915302
 20
-411.7755080701063
 10
163.8915022751407
 20
-273.7308553044331
 10
163.8915022751407
 20
-225.9607742163189
 10
163.8915022751407
 20
-196.3622717632516
 10
183.5883934351859
 20
-169.3446631241823
 10
214.1220411786107
 20
-156.9835134700224
 10
214.1220411786107
 20
-156.9835134700224
 10
285.8784575905047
 20
-156.9835134700224
 10
285.8784575905047
 20
-156.9835134700224
 10
316.4116065648122
 20
-169.3446631241823
 10
336.1084977248574
 20
-196.3622717632516
 10
336.1084977248574
 20
-225.9607742163189
 10
336.1084977248574
 20
-273.7308553044331
 10
302.2814775084698
 20
-411.7755080701063
 10
250.0
 20
-411.7755080701063
 97
        0
 97
        0
 75
     2
 76
     1
 98
        0
  0
ENDSEC
  0
SECTION
  2
OBJECTS
  0
DICTIONARY
  5
C
330
0
100
AcDbDictionary
281
     1
  3
ACAD_GROUP
350
D
  3
ACAD_LAYOUT
350
1A
  3
ACAD_MATERIAL
350
3B
  3
ACAD_MLEADERSTYLE
350
46
  3
ACAD_MLINESTYLE
350
17
  3
ACAD_PLOTSETTINGS
350
19
  3
ACAD_PLOTSTYLENAME
350
E
  3
ACAD_TABLESTYLE
350
45
  3
ACAD_VISUALSTYLE
350
2A
  0
SUN
  5
3F
330
29
100
AcDbSun
 90
        1
290
     0
 63
     7
421
 16777215
 40
1.0
291
     1
 91
  2455826
 92
 54000000
292
     0
 70
     2
 71
   256
280
     1
  0
DICTIONARY
  5
D
102
{ACAD_REACTORS
330
C
102
}
330
C
100
AcDbDictionary
281
     1
  0
DICTIONARY
  5
1A
102
{ACAD_REACTORS
330
C
102
}
330
C
100
AcDbDictionary
281
     1
  3
Layout1
350
1E
  3
Layout2
350
26
  3
Model
350
22
  0
DICTIONARY
  5
3B
102
{ACAD_REACTORS
330
C
102
}
330
C
100
AcDbDictionary
281
     1
  3
ByBlock
350
3D
  3
ByLayer
350
3C
  3
Global
350
3E
  0
DICTIONARY
  5
46
102
{ACAD_REACTORS
330
C
102
}
330
C
100
AcDbDictionary
281
     1
  0
DICTIONARY
  5
17
102
{ACAD_REACTORS
330
C
102
}
330
C
100
AcDbDictionary
281
     1
  3
Standard
350
18
  0
DICTIONARY
  5
19
102
{ACAD_REACTORS
330
C
102
}
330
C
100
AcDbDictionary
281
     1
  0
ACDBDICTIONARYWDFLT
  5
E
102
{ACAD_REACTORS
330
C
102
}
330
C
100
AcDbDictionary
281
     1
  3
Normal
350
F
100
AcDbDictionaryWithDefault
340
F
  0
DICTIONARY
  5
45
102
{ACAD_REACTORS
330
C
102
}
330
C
100
AcDbDictionary
281
     1
  0
DICTIONARY
  5
2A
102
{ACAD_REACTORS
330
C
102
}
330
C
100
AcDbDictionary
281
     1
  3
2dWireframe
350
2F
  3
3D Hidden
350
31
  3
3dWireframe
350
30
  3
Basic
350
32
  3
Brighten
350
36
  3
ColorChange
350
3A
  3
Conceptual
350
34
  3
Dim
350
35
  3
Facepattern
350
39
  3
Flat
350
2B
  3
FlatWithEdges
350
2C
  3
Gouraud
350
2D
  3
GouraudWithEdges
350
2E
  3
Linepattern
350
38
  3
Realistic
350
33
  3
Thicken
350
37
  0
LAYOUT
  5
1E
102
{ACAD_REACTORS
330
1A
102
}
330
1A
100
AcDbPlotSettings
  1

  2
none_device
  4

  6

 40
0.0
 41
0.0
 42
0.0
 43
0.0
 44
0.0
 45
0.0
 46
0.0
 47
0.0
 48
0.0
 49
0.0
140
0.0
141
0.0
142
1.0
143
1.0
 70
   688
 72
     0
 73
     0
 74
     5
  7

 75
    16
 76
     0
 77
     2
 78
   300
147
1.0
148
0.0
149
0.0
100
AcDbLayout
  1
Layout1
 70
     1
 71
     1
 10
0.0
 20
0.0
 11
12.0
 21
9.0
 12
0.0
 22
0.0
 32
0.0
 14
1.000000000000000E+20
 24
1.000000000000000E+20
 34
1.000000000000000E+20
 15
-1.000000000000000E+20
 25
-1.000000000000000E+20
 35
-1.000000000000000E+20
146
0.0
 13
0.0
 23
0.0
 33
0.0
 16
1.0
 26
0.0
 36
0.0
 17
0.0
 27
1.0
 37
0.0
 76
     0
330
1B
  0
LAYOUT
  5
26
102
{ACAD_REACTORS
330
1A
102
}
330
1A
100
AcDbPlotSettings
  1

  2
none_device
  4

  6

 40
0.0
 41
0.0
 42
0.0
 43
0.0
 44
0.0
 45
0.0
 46
0.0
 47
0.0
 48
0.0
 49
0.0
140
0.0
141
0.0
142
1.0
143
1.0
 70
   688
 72
     0
 73
     0
 74
     5
  7

 75
    16
 76
     0
 77
     2
 78
   300
147
1.0
148
0.0
149
0.0
100
AcDbLayout
  1
Layout2
 70
     1
 71
     2
 10
0.0
 20
0.0
 11
0.0
 21
0.0
 12
0.0
 22
0.0
 32
0.0
 14
0.0
 24
0.0
 34
0.0
 15
0.0
 25
0.0
 35
0.0
146
0.0
 13
0.0
 23
0.0
 33
0.0
 16
1.0
 26
0.0
 36
0.0
 17
0.0
 27
1.0
 37
0.0
 76
     0
330
23
  0
LAYOUT
  5
22
102
{ACAD_REACTORS
330
1A
102
}
330
1A
100
AcDbPlotSettings
  1

  2
none_device
  4

  6

 40
0.0
 41
0.0
 42
0.0
 43
0.0
 44
0.0
 45
0.0
 46
0.0
 47
0.0
 48
0.0
 49
0.0
140
0.0
141
0.0
142
1.0
143
1.0
 70
  1712
 72
     0
 73
     0
 74
     0
  7

 75
     0
 76
     0
 77
     2
 78
   300
147
1.0
148
0.0
149
0.0
100
AcDbLayout
  1
Model
 70
     1
 71
     0
 10
0.0
 20
0.0
 11
12.0
 21
9.0
 12
0.0
 22
0.0
 32
0.0
 14
1.000000000000000E+20
 24
1.000000000000000E+20
 34
1.000000000000000E+20
 15
-1.000000000000000E+20
 25
-1.000000000000000E+20
 35
-1.000000000000000E+20
146
0.0
 13
0.0
 23
0.0
 33
0.0
 16
1.0
 26
0.0
 36
0.0
 17
0.0
 27
1.0
 37
0.0
 76
     0
330
1F
331
29
  0
MATERIAL
  5
3D
102
{ACAD_REACTORS
330
3B
102
}
330
3B
100
AcDbMaterial
  1
ByBlock
 72
     1
 94
      127
  0
MATERIAL
  5
3C
102
{ACAD_REACTORS
330
3B
102
}
330
3B
100
AcDbMaterial
  1
ByLayer
 72
     1
 94
      127
  0
MATERIAL
  5
3E
102
{ACAD_REACTORS
330
3B
102
}
330
3B
100
AcDbMaterial
  1
Global
 72
     1
 94
      127
  0
MLINESTYLE
  5
18
102
{ACAD_REACTORS
330
17
102
}
330
17
100
AcDbMlineStyle
  2
Standard
 70
     0
  3

 62
   256
 51
90.0
 52
90.0
 71
     2
 49
0.5
 62
   256
  6
BYLAYER
 49
-0.5
 62
   256
  6
BYLAYER
  0
ACDBPLACEHOLDER
  5
F
102
{ACAD_REACTORS
330
E
102
}
330
E
  0
VISUALSTYLE
  5
2F
102
{ACAD_REACTORS
330
2A
102
}
330
2A
100
AcDbVisualStyle
  2
2dWireframe
 70
     4
177
     2
291
     0
 71
     0
176
     1
 72
     2
176
     1
 73
     0
176
     1
 90
        0
176
     1
 40
-0.6
176
     1
 41
-30.0
176
     1
 62
     5
 63
     7
421
 16777215
176
     1
 74
     1
176
     1
 91
        4
176
     1
 64
     7
176
     1
 65
   257
176
     1
 75
     1
176
     1
175
     1
176
     1
 42
1.0
176
     1
 92
        0
176
     1
 66
   257
176
     1
 43
1.0
176
     1
 76
     1
176
     1
 77
     6
176
     1
 78
     2
176
     1
 67
     7
176
     1
 79
     5
176
     1
170
     0
176
     1
171
     0
176
     1
290
     0
176
     1
 93
        1
176
     1
 44
0.0
176
     1
173
     0
176
     1
  0
VISUALSTYLE
  5
31
102
{ACAD_REACTORS
330
2A
102
}
330
2A
100
AcDbVisualStyle
  2
3D Hidden
 70
     6
177
     2
291
     0
 71
     1
176
     1
 72
     2
176
     1
 73
     2
176
     1
 90
        0
176
     1
 40
-0.6
176
     1
 41
-30.0
176
     1
 62
     5
 63
     7
421
 16777215
176
     1
 74
     2
176
     1
 91
        2
176
     1
 64
     7
176
     1
 65
   257
176
     1
 75
     2
176
     1
175
     1
176
     1
 42
40.0
176
     1
 92
        0
176
     1
 66
   257
176
     1
 43
1.0
176
     1
 76
     1
176
     1
 77
     6
176
     1
 78
     2
176
     1
 67
     7
176
     1
 79
     3
176
     1
170
     0
176
     1
171
     0
176
     1
290
     0
176
     1
 93
        1
176
     1
 44
0.0
176
     1
173
     0
176
     1
  0
VISUALSTYLE
  5
30
102
{ACAD_REACTORS
330
2A
102
}
330
2A
100
AcDbVisualStyle
  2
3dWireframe
 70
     5
177
     2
291
     0
 71
     0
176
     1
 72
     2
176
     1
 73
     0
176
     1
 90
        0
176
     1
 40
-0.6
176
     1
 41
-30.0
176
     1
 62
     5
 63
     7
421
 16777215
176
     1
 74
     1
176
     1
 91
        4
176
     1
 64
     7
176
     1
 65
   257
176
     1
 75
     1
176
     1
175
     1
176
     1
 42
1.0
176
     1
 92
        0
176
     1
 66
   257
176
     1
 43
1.0
176
     1
 76
     1
176
     1
 77
     6
176
     1
 78
     2
176
     1
 67
     7
176
     1
 79
     5
176
     1
170
     0
176
     1
171
     0
176
     1
290
     0
176
     1
 93
        1
176
     1
 44
0.0
176
     1
173
     0
176
     1
  0
VISUALSTYLE
  5
32
102
{ACAD_REACTORS
330
2A
102
}
330
2A
100
AcDbVisualStyle
  2
Basic
 70
     7
177
     2
291
     1
 71
     1
176
     1
 72
     0
176
     1
 73
     1
176
     1
 90
        0
176
     1
 40
-0.6
176
     1
 41
-30.0
176
     1
 62
     5
 63
     7
421
 16777215
176
     1
 74
     0
176
     1
 91
        4
176
     1
 64
     7
176
     1
 65
   257
176
     1
 75
     1
176
     1
175
     1
176
     1
 42
1.0
176
     1
 92
        8
176
     1
 66
     7
176
     1
 43
1.0
176
     1
 76
     1
176
     1
 77
     6
176
     1
 78
     2
176
     1
 67
     7
176
     1
 79
     5
176
     1
170
     0
176
     1
171
     0
176
     1
290
     0
176
     1
 93
        1
176
     1
 44
0.0
176
     1
173
     0
176
     1
  0
VISUALSTYLE
  5
36
102
{ACAD_REACTORS
330
2A
102
}
330
2A
100
AcDbVisualStyle
  2
Brighten
 70
    12
177
     2
291
     1
 71
     2
176
     1
 72
     2
176
     1
 73
     0
176
     1
 90
        0
176
     1
 40
-0.6
176
     1
 41
-30.0
176
     1
 62
     5
 63
     7
421
 16777215
176
     1
 74
     1
176
     1
 91
        4
176
     1
 64
     7
176
     1
 65
   257
176
     1
 75
     1
176
     1
175
     1
176
     1
 42
1.0
176
     1
 92
        8
176
     1
 66
     7
176
     1
 43
1.0
176
     1
 76
     1
176
     1
 77
     6
176
     1
 78
     2
176
     1
 67
     7
176
     1
 79
     5
176
     1
170
     0
176
     1
171
     0
176
     1
290
     0
176
     1
 93
        1
176
     1
 44
50.0
176
     1
173
     0
176
     1
  0
VISUALSTYLE
  5
3A
102
{ACAD_REACTORS
330
2A
102
}
330
2A
100
AcDbVisualStyle
  2
ColorChange
 70
    16
177
     2
291
     1
 71
     2
176
     1
 72
     2
176
     1
 73
     3
176
     1
 90
        0
176
     1
 40
-0.6
176
     1
 41
-30.0
176
     1
 62
     5
 63
     8
421
  8421504
176
     1
 74
     1
176
     1
 91
        4
176
     1
 64
     7
176
     1
 65
   257
176
     1
 75
     1
176
     1
175
     1
176
     1
 42
1.0
176
     1
 92
        8
176
     1
 66
     8
424
  8421504
176
     1
 43
1.0
176
     1
 76
     1
176
     1
 77
     6
176
     1
 78
     2
176
     1
 67
     7
176
     1
 79
     5
176
     1
170
     0
176
     1
171
     0
176
     1
290
     0
176
     1
 93
        1
176
     1
 44
0.0
176
     1
173
     0
176
     1
  0
VISUALSTYLE
  5
34
102
{ACAD_REACTORS
330
2A
102
}
330
2A
100
AcDbVisualStyle
  2
Conceptual
 70
     9
177
     2
291
     0
 71
     3
176
     1
 72
     2
176
     1
 73
     0
176
     1
 90
        0
176
     1
 40
-0.6
176
     1
 41
-30.0
176
     1
 62
     5
 63
     7
421
 16777215
176
     1
 74
     2
176
     1
 91
        2
176
     1
 64
     7
176
     1
 65
   257
176
     1
 75
     1
176
     1
175
     1
176
     1
 42
40.0
176
     1
 92
        8
176
     1
 66
     7
176
     1
 43
1.0
176
     1
 76
     1
176
     1
 77
     6
176
     1
 78
     2
176
     1
 67
     7
176
     1
 79
     3
176
     1
170
     0
176
     1
171
     0
176
     1
290
     0
176
     1
 93
        1
176
     1
 44
0.0
176
     1
173
     0
176
     1
  0
VISUALSTYLE
  5
35
102
{ACAD_REACTORS
330
2A
102
}
330
2A
100
AcDbVisualStyle
  2
Dim
 70
    11
177
     2
291
     1
 71
     2
176
     1
 72
     2
176
     1
 73
     0
176
     1
 90
        0
176
     1
 40
-0.6
176
     1
 41
-30.0
176
     1
 62
     5
 63
     7
421
 16777215
176
     1
 74
     1
176
     1
 91
        4
176
     1
 64
     7
176
     1
 65
   257
176
     1
 75
     1
176
     1
175
     1
176
     1
 42
1.0
176
     1
 92
        8
176
     1
 66
     7
176
     1
 43
1.0
176
     1
 76
     1
176
     1
 77
     6
176
     1
 78
     2
176
     1
 67
     7
176
     1
 79
     5
176
     1
170
     0
176
     1
171
     0
176
     1
290
     0
176
     1
 93
        1
176
     1
 44
-50.0
176
     1
173
     0
176
     1
  0
VISUALSTYLE
  5
39
102
{ACAD_REACTORS
330
2A
102
}
330
2A
100
AcDbVisualStyle
  2
Facepattern
 70
    15
177
     2
291
     1
 71
     2
176
     1
 72
     2
176
     1
 73
     0
176
     1
 90
        0
176
     1
 40
-0.6
176
     1
 41
-30.0
176
     1
 62
     5
 63
     7
421
 16777215
176
     1
 74
     1
176
     1
 91
        4
176
     1
 64
     7
176
     1
 65
   257
176
     1
 75
     1
176
     1
175
     1
176
     1
 42
1.0
176
     1
 92
        8
176
     1
 66
     7
176
     1
 43
1.0
176
     1
 76
     1
176
     1
 77
     6
176
     1
 78
     2
176
     1
 67
     7
176
     1
 79
     5
176
     1
170
     0
176
     1
171
     0
176
     1
290
     0
176
     1
 93
        1
176
     1
 44
0.0
176
     1
173
     0
176
     1
  0
VISUALSTYLE
  5
2B
102
{ACAD_REACTORS
330
2A
102
}
330
2A
100
AcDbVisualStyle
  2
Flat
 70
     0
177
     2
291
     1
 71
     2
176
     1
 72
     1
176
     1
 73
     1
176
     1
 90
        2
176
     1
 40
-0.6
176
     1
 41
30.0
176
     1
 62
     5
 63
     7
421
 16777215
176
     1
 74
     0
176
     1
 91
        4
176
     1
 64
     7
176
     1
 65
   257
176
     1
 75
     1
176
     1
175
     1
176
     1
 42
1.0
176
     1
 92
        8
176
     1
 66
     7
176
     1
 43
1.0
176
     1
 76
     1
176
     1
 77
     6
176
     1
 78
     2
176
     1
 67
     7
176
     1
 79
     5
176
     1
170
     0
176
     1
171
     0
176
     1
290
     0
176
     1
 93
       13
176
     1
 44
0.0
176
     1
173
     0
176
     1
  0
VISUALSTYLE
  5
2C
102
{ACAD_REACTORS
330
2A
102
}
330
2A
100
AcDbVisualStyle
  2
FlatWithEdges
 70
     1
177
     2
291
     1
 71
     2
176
     1
 72
     1
176
     1
 73
     1
176
     1
 90
        2
176
     1
 40
-0.6
176
     1
 41
30.0
176
     1
 62
     5
 63
     7
421
 16777215
176
     1
 74
     1
176
     1
 91
        4
176
     1
 64
     7
176
     1
 65
   257
176
     1
 75
     1
176
     1
175
     1
176
     1
 42
1.0
176
     1
 92
        0
176
     1
 66
   257
176
     1
 43
1.0
176
     1
 76
     1
176
     1
 77
     6
176
     1
 78
     2
176
     1
 67
     7
176
     1
 79
     5
176
     1
170
     0
176
     1
171
     0
176
     1
290
     0
176
     1
 93
       13
176
     1
 44
0.0
176
     1
173
     0
176
     1
  0
VISUALSTYLE
  5
2D
102
{ACAD_REACTORS
330
2A
102
}
330
2A
100
AcDbVisualStyle
  2
Gouraud
 70
     2
177
     2
291
     1
 71
     2
176
     1
 72
     2
176
     1
 73
     1
176
     1
 90
        2
176
     1
 40
-0.6
176
     1
 41
30.0
176
     1
 62
     5
 63
     7
421
 16777215
176
     1
 74
     0
176
     1
 91
        4
176
     1
 64
     7
176
     1
 65
   257
176
     1
 75
     1
176
     1
175
     1
176
     1
 42
1.0
176
     1
 92
        0
176
     1
 66
     7
176
     1
 43
1.0
176
     1
 76
     1
176
     1
 77
     6
176
     1
 78
     2
176
     1
 67
     7
176
     1
 79
     5
176
     1
170
     0
176
     1
171
     0
176
     1
290
     0
176
     1
 93
       13
176
     1
 44
0.0
176
     1
173
     0
176
     1
  0
VISUALSTYLE
  5
2E
102
{ACAD_REACTORS
330
2A
102
}
330
2A
100
AcDbVisualStyle
  2
GouraudWithEdges
 70
     3
177
     2
291
     1
 71
     2
176
     1
 72
     2
176
     1
 73
     1
176
     1
 90
        2
176
     1
 40
-0.6
176
     1
 41
30.0
176
     1
 62
     5
 63
     7
421
 16777215
176
     1
 74
     1
176
     1
 91
        4
176
     1
 64
     7
176
     1
 65
   257
176
     1
 75
     1
176
     1
175
     1
176
     1
 42
1.0
176
     1
 92
        0
176
     1
 66
   257
176
     1
 43
1.0
176
     1
 76
     1
176
     1
 77
     6
176
     1
 78
     2
176
     1
 67
     7
176
     1
 79
     5
176
     1
170
     0
176
     1
171
     0
176
     1
290
     0
176
     1
 93
       13
176
     1
 44
0.0
176
     1
173
     0
176
     1
  0
VISUALSTYLE
  5
38
102
{ACAD_REACTORS
330
2A
102
}
330
2A
100
AcDbVisualStyle
  2
Linepattern
 70
    14
177
     2
291
     1
 71
     2
176
     1
 72
     2
176
     1
 73
     0
176
     1
 90
        0
176
     1
 40
-0.6
176
     1
 41
-30.0
176
     1
 62
     5
 63
     7
421
 16777215
176
     1
 74
     1
176
     1
 91
        4
176
     1
 64
     7
176
     1
 65
   257
176
     1
 75
     7
176
     1
175
     7
176
     1
 42
1.0
176
     1
 92
        8
176
     1
 66
     7
176
     1
 43
1.0
176
     1
 76
     1
176
     1
 77
     6
176
     1
 78
     2
176
     1
 67
     7
176
     1
 79
     5
176
     1
170
     0
176
     1
171
     0
176
     1
290
     0
176
     1
 93
        1
176
     1
 44
0.0
176
     1
173
     0
176
     1
  0
VISUALSTYLE
  5
33
102
{ACAD_REACTORS
330
2A
102
}
330
2A
100
AcDbVisualStyle
  2
Realistic
 70
     8
177
     2
291
     0
 71
     2
176
     1
 72
     2
176
     1
 73
     0
176
     1
 90
        0
176
     1
 40
-0.6
176
     1
 41
-30.0
176
     1
 62
     5
 63
     7
421
 16777215
176
     1
 74
     1
176
     1
 91
        0
176
     1
 64
     7
176
     1
 65
   257
176
     1
 75
     1
176
     1
175
     1
176
     1
 42
1.0
176
     1
 92
        8
176
     1
 66
     8
424
  7895160
176
     1
 43
1.0
176
     1
 76
     1
176
     1
 77
     6
176
     1
 78
     2
176
     1
 67
     7
176
     1
 79
     5
176
     1
170
     0
176
     1
171
     0
176
     1
290
     0
176
     1
 93
       13
176
     1
 44
0.0
176
     1
173
     0
176
     1
  0
VISUALSTYLE
  5
37
102
{ACAD_REACTORS
330
2A
102
}
330
2A
100
AcDbVisualStyle
  2
Thicken
 70
    13
177
     2
291
     1
 71
     2
176
     1
 72
     2
176
     1
 73
     0
176
     1
 90
        0
176
     1
 40
-0.6
176
     1
 41
-30.0
176
     1
 62
     5
 63
     7
421
 16777215
176
     1
 74
     1
176
     1
 91
        4
176
     1
 64
     7
176
     1
 65
   257
176
     1
 75
     1
176
     1
175
     1
176
     1
 42
1.0
176
     1
 92
       12
176
     1
 66
     7
176
     1
 43
1.0
176
     1
 76
     1
176
     1
 77
     6
176
     1
 78
     2
176
     1
 67
     7
176
     1
 79
     5
176
     1
170
     0
176
     1
171
     0
176
     1
290
     0
176
     1
 93
        1
176
     1
 44
0.0
176
     1
173
     0
176
     1
  0
ENDSEC
  0
EOF
