%TF.GenerationSoftware,KiCad,Pcbnew,9.0.6*%
%TF.CreationDate,2025-12-06T19:34:33-05:00*%
%TF.ProjectId,ChristmasOrnament25,43687269-7374-46d6-9173-4f726e616d65,rev?*%
%TF.SameCoordinates,PX8a091f5PY7e64ec2*%
%TF.FileFunction,Soldermask,Bot*%
%TF.FilePolarity,Negative*%
%FSLAX46Y46*%
G04 Gerber Fmt 4.6, Leading zero omitted, Abs format (unit mm)*
G04 Created by KiCad (PCBNEW 9.0.6) date 2025-12-06 19:34:33*
%MOMM*%
%LPD*%
G01*
G04 APERTURE LIST*
%ADD10R,1.800000X1.800000*%
%ADD11C,1.800000*%
%ADD12C,1.600000*%
%ADD13C,1.700000*%
%ADD14R,1.700000X1.700000*%
%ADD15C,2.500000*%
%ADD16R,5.100000X5.100000*%
%ADD17C,17.800000*%
G04 APERTURE END LIST*
D10*
%TO.C,D6*%
X6950000Y26949207D03*
D11*
X9490000Y26949207D03*
%TD*%
D10*
%TO.C,D4*%
X29490000Y9949207D03*
D11*
X32030000Y9949207D03*
%TD*%
D12*
%TO.C,R8*%
X18490000Y56949207D03*
X18490000Y64569207D03*
%TD*%
%TO.C,R2*%
X32680000Y51949207D03*
X40300000Y51949207D03*
%TD*%
D13*
%TO.C,SW1*%
X19690000Y74229207D03*
X26190000Y74229207D03*
X19690000Y69729207D03*
X26190000Y69729207D03*
%TD*%
D12*
%TO.C,R3*%
X25880000Y23500000D03*
X33500000Y23500000D03*
%TD*%
%TO.C,R6*%
X12880000Y23500000D03*
X20500000Y23500000D03*
%TD*%
%TO.C,R7*%
X13110000Y51949207D03*
X5490000Y51949207D03*
%TD*%
D14*
%TO.C,J1*%
X24250000Y5000000D03*
D13*
X21710000Y5000000D03*
X24250000Y7540000D03*
X21710000Y7540000D03*
X24250000Y10080000D03*
X21710000Y10080000D03*
%TD*%
D10*
%TO.C,D5*%
X13950000Y9949207D03*
D11*
X16490000Y9949207D03*
%TD*%
D10*
%TO.C,D7*%
X2750000Y45949207D03*
D11*
X5290000Y45949207D03*
%TD*%
D12*
%TO.C,R5*%
X12880000Y17500000D03*
X20500000Y17500000D03*
%TD*%
D10*
%TO.C,D1*%
X33950000Y60949207D03*
D11*
X36490000Y60949207D03*
%TD*%
D10*
%TO.C,D3*%
X36950000Y26949207D03*
D11*
X39490000Y26949207D03*
%TD*%
D10*
%TO.C,D8*%
X8950000Y60949207D03*
D11*
X11490000Y60949207D03*
%TD*%
D15*
%TO.C,H1*%
X23170000Y81019207D03*
%TD*%
D12*
%TO.C,R1*%
X27490000Y56949207D03*
X27490000Y64569207D03*
%TD*%
D10*
%TO.C,D2*%
X40490000Y45949207D03*
D11*
X43030000Y45949207D03*
%TD*%
D12*
%TO.C,R4*%
X25880000Y17500000D03*
X33500000Y17500000D03*
%TD*%
D16*
%TO.C,BT1*%
X36250000Y37750000D03*
X10650000Y37750000D03*
D17*
X23450000Y37750000D03*
%TD*%
M02*
