%TF.GenerationSoftware,KiCad,Pcbnew,9.0.6*%
%TF.CreationDate,2025-12-06T19:34:33-05:00*%
%TF.ProjectId,ChristmasOrnament25,43687269-7374-46d6-9173-4f726e616d65,rev?*%
%TF.SameCoordinates,PX8a091f5PY7e64ec2*%
%TF.FileFunction,Profile,NP*%
%FSLAX46Y46*%
G04 Gerber Fmt 4.6, Leading zero omitted, Abs format (unit mm)*
G04 Created by KiCad (PCBNEW 9.0.6) date 2025-12-06 19:34:33*
%MOMM*%
%LPD*%
G01*
G04 APERTURE LIST*
%TA.AperFunction,Profile*%
%ADD10C,0.050000*%
%TD*%
%ADD11C,0.050000*%
G04 APERTURE END LIST*
D10*
X12725876Y80929212D02*
G75*
G02*
X15725871Y83929225I2999971J42D01*
G01*
X30392930Y83929234D02*
G75*
G02*
X33392927Y80929234I17J-2999980D01*
G01*
X30392930Y83929234D02*
X15725871Y83929212D01*
X33392935Y66356840D02*
X33392935Y80929234D01*
X12725876Y66356808D02*
X12725876Y80929212D01*
D11*
X46118686Y48009207D02*
X46118646Y48047450D01*
X46118526Y48085690D01*
X46118326Y48123928D01*
X46118046Y48162163D01*
X46117686Y48200394D01*
X46117247Y48238623D01*
X46116727Y48276848D01*
X46116127Y48315070D01*
X46115447Y48353289D01*
X46114688Y48391504D01*
X46113848Y48429717D01*
X46112929Y48467925D01*
X46111929Y48506130D01*
X46110850Y48544331D01*
X46109691Y48582529D01*
X46108452Y48620722D01*
X46107133Y48658912D01*
X46105734Y48697098D01*
X46104255Y48735280D01*
X46102697Y48773458D01*
X46101058Y48811631D01*
X46099340Y48849800D01*
X46097542Y48887965D01*
X46095663Y48926126D01*
X46093706Y48964282D01*
X46091668Y49002433D01*
X46089550Y49040580D01*
X46087353Y49078722D01*
X46085075Y49116859D01*
X46082718Y49154991D01*
X46080281Y49193118D01*
X46077764Y49231241D01*
X46075167Y49269358D01*
X46072491Y49307469D01*
X46069735Y49345576D01*
X46066899Y49383677D01*
X46063983Y49421773D01*
X46060987Y49459863D01*
X46057912Y49497948D01*
X46054757Y49536026D01*
X46051521Y49574100D01*
X46048207Y49612167D01*
X46044812Y49650228D01*
X46041338Y49688283D01*
X46037784Y49726332D01*
X46034150Y49764375D01*
X46030436Y49802412D01*
X46026643Y49840442D01*
X46022770Y49878466D01*
X46018817Y49916483D01*
X46014785Y49954494D01*
X46010673Y49992497D01*
X46006481Y50030495D01*
X46002209Y50068485D01*
X45997858Y50106468D01*
X45993427Y50144444D01*
X45988916Y50182413D01*
X45984325Y50220375D01*
X45979655Y50258330D01*
X45974905Y50296277D01*
X45970076Y50334217D01*
X45965167Y50372149D01*
X45960178Y50410073D01*
X45955110Y50447990D01*
X45949961Y50485899D01*
X45944734Y50523799D01*
X45939426Y50561692D01*
X45934039Y50599577D01*
X45928573Y50637454D01*
X45923027Y50675322D01*
X45917401Y50713182D01*
X45911695Y50751033D01*
X45905910Y50788876D01*
X45900045Y50826710D01*
X45894101Y50864536D01*
X45888077Y50902352D01*
X45881974Y50940160D01*
X45875791Y50977959D01*
X45869529Y51015748D01*
X45863186Y51053529D01*
X45856765Y51091300D01*
X45850264Y51129061D01*
X45843683Y51166813D01*
X45837023Y51204556D01*
X45830283Y51242289D01*
X45823464Y51280012D01*
X45816565Y51317725D01*
X45809587Y51355429D01*
X45802529Y51393122D01*
X45795392Y51430805D01*
X45788176Y51468478D01*
X45780879Y51506140D01*
X45773504Y51543792D01*
X45766049Y51581434D01*
X45758515Y51619064D01*
X45750901Y51656685D01*
X45743207Y51694294D01*
X45735435Y51731892D01*
X45727583Y51769479D01*
X45719651Y51807056D01*
X45711640Y51844620D01*
X45703550Y51882174D01*
X45695381Y51919716D01*
X45687132Y51957247D01*
X45678804Y51994766D01*
X45670396Y52032273D01*
X45661909Y52069769D01*
X45653343Y52107252D01*
X45644697Y52144723D01*
X45635973Y52182183D01*
X45627168Y52219630D01*
X45618285Y52257065D01*
X45609322Y52294487D01*
X45600281Y52331897D01*
X45591160Y52369294D01*
X45581959Y52406678D01*
X45572680Y52444050D01*
X45563321Y52481408D01*
X45553883Y52518754D01*
X45544366Y52556086D01*
X45534770Y52593405D01*
X45525094Y52630710D01*
X45515340Y52668003D01*
X45505506Y52705281D01*
X45495593Y52742546D01*
X45485602Y52779797D01*
X45475531Y52817034D01*
X45465381Y52854257D01*
X45455152Y52891466D01*
X45444843Y52928661D01*
X45434456Y52965841D01*
X45423990Y53003007D01*
X45413445Y53040159D01*
X45402821Y53077295D01*
X45392118Y53114417D01*
X45381335Y53151524D01*
X45370474Y53188616D01*
X45359534Y53225693D01*
X45348516Y53262755D01*
X45337418Y53299802D01*
X45326241Y53336833D01*
X45314986Y53373848D01*
X45303651Y53410848D01*
X45292238Y53447832D01*
X45280746Y53484800D01*
X45269175Y53521752D01*
X45257526Y53558688D01*
X45245797Y53595608D01*
X45233990Y53632512D01*
X45222105Y53669399D01*
X45210140Y53706269D01*
X45198097Y53743123D01*
X45185975Y53779960D01*
X45173774Y53816780D01*
X45161495Y53853583D01*
X45149137Y53890370D01*
X45136701Y53927138D01*
X45124186Y53963890D01*
X45111593Y54000624D01*
X45098921Y54037340D01*
X45086170Y54074039D01*
X45073341Y54110720D01*
X45060433Y54147383D01*
X45047447Y54184028D01*
X45034383Y54220655D01*
X45021240Y54257263D01*
X45008019Y54293853D01*
X44994720Y54330425D01*
X44981342Y54366978D01*
X44967885Y54403512D01*
X44954351Y54440027D01*
X44940738Y54476523D01*
X44927047Y54513001D01*
X44913278Y54549459D01*
X44899430Y54585897D01*
X44885505Y54622316D01*
X44871501Y54658716D01*
X44857419Y54695096D01*
X44843259Y54731456D01*
X44829021Y54767796D01*
X44814705Y54804116D01*
X44800310Y54840416D01*
X44785838Y54876696D01*
X44771288Y54912955D01*
X44756660Y54949193D01*
X44741954Y54985411D01*
X44727170Y55021609D01*
X44712308Y55057785D01*
X44697368Y55093940D01*
X44682351Y55130074D01*
X44667256Y55166187D01*
X44652083Y55202278D01*
X44636832Y55238348D01*
X44621503Y55274396D01*
X44606097Y55310423D01*
X44590614Y55346427D01*
X44575052Y55382410D01*
X44559413Y55418370D01*
X44543697Y55454308D01*
X44527903Y55490224D01*
X44512031Y55526117D01*
X44496083Y55561987D01*
X44480056Y55597835D01*
X44463952Y55633660D01*
X44447771Y55669462D01*
X44431513Y55705240D01*
X44415177Y55740996D01*
X44398764Y55776728D01*
X44382274Y55812436D01*
X44365707Y55848121D01*
X44349062Y55883782D01*
X44332340Y55919419D01*
X44315542Y55955032D01*
X44298666Y55990621D01*
X44281713Y56026186D01*
X44264683Y56061726D01*
X44247576Y56097242D01*
X44230393Y56132733D01*
X44213132Y56168199D01*
X44195795Y56203640D01*
X44178381Y56239056D01*
X44160890Y56274447D01*
X44143322Y56309813D01*
X44125678Y56345153D01*
X44107957Y56380468D01*
X44090159Y56415757D01*
X44072285Y56451020D01*
X44054334Y56486257D01*
X44036307Y56521468D01*
X44018204Y56556653D01*
X44000024Y56591812D01*
X43981767Y56626944D01*
X43963434Y56662049D01*
X43945025Y56697128D01*
X43926540Y56732180D01*
X43907979Y56767205D01*
X43889341Y56802202D01*
X43870627Y56837173D01*
X43851838Y56872116D01*
X43832972Y56907031D01*
X43814030Y56941919D01*
X43795012Y56976779D01*
X43775919Y57011611D01*
X43756749Y57046415D01*
X43737504Y57081191D01*
X43718183Y57115938D01*
X43698786Y57150657D01*
X43679314Y57185348D01*
X43659766Y57220009D01*
X43640142Y57254642D01*
X43620443Y57289246D01*
X43600668Y57323821D01*
X43580818Y57358367D01*
X43560893Y57392883D01*
X43540892Y57427369D01*
X43520816Y57461826D01*
X43500665Y57496253D01*
X43480438Y57530651D01*
X43460137Y57565018D01*
X43439760Y57599355D01*
X43419308Y57633662D01*
X43398782Y57667938D01*
X43378180Y57702184D01*
X43357504Y57736399D01*
X43336752Y57770583D01*
X43315926Y57804736D01*
X43295025Y57838858D01*
X43274050Y57872948D01*
X43253000Y57907008D01*
X43231875Y57941035D01*
X43210676Y57975032D01*
X43189402Y58008996D01*
X43168054Y58042928D01*
X43146632Y58076829D01*
X43125135Y58110697D01*
X43103565Y58144532D01*
X43081919Y58178336D01*
X43060200Y58212106D01*
X43038407Y58245844D01*
X43016540Y58279549D01*
X42994599Y58313221D01*
X42972584Y58346860D01*
X42950495Y58380466D01*
X42928332Y58414038D01*
X42906096Y58447577D01*
X42883786Y58481082D01*
X42861402Y58514553D01*
X42838945Y58547990D01*
X42816414Y58581393D01*
X42793810Y58614762D01*
X42771133Y58648096D01*
X42748382Y58681396D01*
X42725559Y58714661D01*
X42702662Y58747892D01*
X42679691Y58781087D01*
X42656648Y58814248D01*
X42633532Y58847373D01*
X42610343Y58880463D01*
X42587081Y58913518D01*
X42563747Y58946537D01*
X42540339Y58979520D01*
X42516859Y59012467D01*
X42493307Y59045379D01*
X42469681Y59078254D01*
X42445984Y59111093D01*
X42422214Y59143895D01*
X42398372Y59176661D01*
X42374457Y59209391D01*
X42350470Y59242083D01*
X42326412Y59274739D01*
X42302281Y59307357D01*
X42278078Y59339939D01*
X42253803Y59372482D01*
X42229456Y59404989D01*
X42205038Y59437457D01*
X42180548Y59469888D01*
X42155986Y59502282D01*
X42131353Y59534637D01*
X42106648Y59566953D01*
X42081872Y59599232D01*
X42057025Y59631472D01*
X42032106Y59663674D01*
X42007116Y59695836D01*
X41982055Y59727960D01*
X41956923Y59760045D01*
X41931719Y59792091D01*
X41906445Y59824098D01*
X41881100Y59856065D01*
X41855685Y59887992D01*
X41830198Y59919880D01*
X41804641Y59951728D01*
X41779014Y59983537D01*
X41753316Y60015305D01*
X41727548Y60047033D01*
X41701709Y60078720D01*
X41675800Y60110367D01*
X41649821Y60141974D01*
X41623772Y60173540D01*
X41597653Y60205065D01*
X41571464Y60236549D01*
X41545205Y60267991D01*
X41518877Y60299393D01*
X41492479Y60330753D01*
X41466011Y60362071D01*
X41439473Y60393348D01*
X41412866Y60424583D01*
X41386190Y60455776D01*
X41359445Y60486927D01*
X41332630Y60518036D01*
X41305746Y60549102D01*
X41278793Y60580126D01*
X41251772Y60611107D01*
X41224681Y60642045D01*
X41197522Y60672941D01*
X41170293Y60703794D01*
X41142997Y60734603D01*
X41115631Y60765369D01*
X41088198Y60796092D01*
X41060695Y60826771D01*
X41033125Y60857406D01*
X41005486Y60887998D01*
X40977780Y60918546D01*
X40950005Y60949049D01*
X40922162Y60979509D01*
X40894252Y61009924D01*
X40866273Y61040294D01*
X40838227Y61070620D01*
X40810114Y61100901D01*
X40781932Y61131138D01*
X40753684Y61161329D01*
X40725368Y61191475D01*
X40696985Y61221576D01*
X40668534Y61251632D01*
X40640017Y61281642D01*
X40611433Y61311606D01*
X40582781Y61341525D01*
X40554063Y61371397D01*
X40525278Y61401224D01*
X40496427Y61431004D01*
X40467509Y61460738D01*
X40438525Y61490426D01*
X40424007Y61505253D01*
X40409474Y61520067D01*
X40394923Y61534870D01*
X40380357Y61549662D01*
X40365773Y61564441D01*
X40351174Y61579209D01*
X40336557Y61593965D01*
X40321924Y61608710D01*
X40307275Y61623442D01*
X40292609Y61638163D01*
X40277927Y61652872D01*
X40263228Y61667570D01*
X40248512Y61682255D01*
X40233781Y61696929D01*
X40219033Y61711590D01*
X40204268Y61726240D01*
X40189487Y61740878D01*
X40174690Y61755504D01*
X40159876Y61770118D01*
X40145046Y61784720D01*
X40130200Y61799310D01*
X40115337Y61813888D01*
X40100458Y61828455D01*
X40085562Y61843009D01*
X40070650Y61857551D01*
X40055722Y61872081D01*
X40040778Y61886599D01*
X40025817Y61901105D01*
X40010840Y61915599D01*
X39995847Y61930081D01*
X39980838Y61944550D01*
X39965812Y61959008D01*
X39950771Y61973453D01*
X39935713Y61987886D01*
X39920638Y62002307D01*
X39905548Y62016716D01*
X39890441Y62031113D01*
X39875319Y62045497D01*
X39860180Y62059869D01*
X39845025Y62074229D01*
X39829854Y62088577D01*
X39814667Y62102912D01*
X39799463Y62117235D01*
X39784244Y62131545D01*
X39769008Y62145844D01*
X39753757Y62160130D01*
X39738489Y62174403D01*
X39723206Y62188664D01*
X39707906Y62202913D01*
X39692590Y62217149D01*
X39677259Y62231373D01*
X39661911Y62245585D01*
X39646547Y62259784D01*
X39631168Y62273970D01*
X39615772Y62288144D01*
X39600361Y62302306D01*
X39584934Y62316455D01*
X39569490Y62330591D01*
X39554031Y62344715D01*
X39538556Y62358826D01*
X39523065Y62372925D01*
X39507558Y62387011D01*
X39492036Y62401084D01*
X39476497Y62415145D01*
X39460943Y62429193D01*
X39445373Y62443229D01*
X39429787Y62457251D01*
X39414185Y62471261D01*
X39398567Y62485259D01*
X39382934Y62499244D01*
X39367285Y62513215D01*
X39351620Y62527175D01*
X39335940Y62541121D01*
X39320243Y62555055D01*
X39304532Y62568975D01*
X39288804Y62582883D01*
X39273061Y62596778D01*
X39257302Y62610661D01*
X39241527Y62624530D01*
X39225737Y62638387D01*
X39209931Y62652230D01*
X39194109Y62666061D01*
X39178272Y62679879D01*
X39162420Y62693683D01*
X39146551Y62707475D01*
X39130668Y62721254D01*
X39114768Y62735020D01*
X39098853Y62748773D01*
X39082923Y62762513D01*
X39066977Y62776240D01*
X39051016Y62789954D01*
X39035039Y62803654D01*
X39019046Y62817342D01*
X39003038Y62831017D01*
X38987015Y62844678D01*
X38970976Y62858326D01*
X38954922Y62871961D01*
X38938853Y62885584D01*
X38922768Y62899192D01*
X38906667Y62912788D01*
X38890552Y62926371D01*
X38874420Y62939940D01*
X38858274Y62953496D01*
X38842112Y62967039D01*
X38825935Y62980568D01*
X38809743Y62994085D01*
X38793535Y63007587D01*
X38777312Y63021077D01*
X38761074Y63034553D01*
X38744820Y63048017D01*
X38728552Y63061466D01*
X38712267Y63074903D01*
X38695968Y63088325D01*
X38679654Y63101735D01*
X38663324Y63115131D01*
X38646980Y63128514D01*
X38630620Y63141883D01*
X38614244Y63155239D01*
X38597854Y63168581D01*
X38581449Y63181910D01*
X38565029Y63195226D01*
X38548593Y63208528D01*
X38532142Y63221816D01*
X38515677Y63235091D01*
X38499196Y63248352D01*
X38482700Y63261600D01*
X38466189Y63274834D01*
X38449663Y63288055D01*
X38433122Y63301262D01*
X38416566Y63314455D01*
X38399996Y63327635D01*
X38383410Y63340801D01*
X38366809Y63353953D01*
X38350193Y63367092D01*
X38333563Y63380217D01*
X38316917Y63393328D01*
X38300257Y63406425D01*
X38283581Y63419509D01*
X38266891Y63432579D01*
X38250186Y63445636D01*
X38233466Y63458678D01*
X38216731Y63471707D01*
X38199982Y63484722D01*
X38183217Y63497723D01*
X38166438Y63510710D01*
X38149644Y63523684D01*
X38132835Y63536643D01*
X38116011Y63549589D01*
X38099173Y63562520D01*
X38082320Y63575438D01*
X38065453Y63588342D01*
X38048570Y63601232D01*
X38031673Y63614108D01*
X38014761Y63626970D01*
X37997835Y63639818D01*
X37980894Y63652653D01*
X37963938Y63665473D01*
X37946968Y63678279D01*
X37929983Y63691071D01*
X37912983Y63703849D01*
X37895969Y63716613D01*
X37878940Y63729363D01*
X37861897Y63742098D01*
X37844839Y63754820D01*
X37827767Y63767527D01*
X37810680Y63780221D01*
X37793579Y63792900D01*
X37776463Y63805565D01*
X37759333Y63818216D01*
X37742188Y63830853D01*
X37725029Y63843475D01*
X37707855Y63856084D01*
X37690667Y63868678D01*
X37673465Y63881258D01*
X37656248Y63893823D01*
X37639017Y63906375D01*
X37621771Y63918912D01*
X37604511Y63931435D01*
X37587237Y63943943D01*
X37569948Y63956437D01*
X37552645Y63968917D01*
X37535328Y63981382D01*
X37517997Y63993833D01*
X37500651Y64006270D01*
X37483291Y64018692D01*
X37465916Y64031100D01*
X37448528Y64043494D01*
X37431125Y64055873D01*
X37413709Y64068237D01*
X37396277Y64080587D01*
X37378832Y64092923D01*
X37361373Y64105244D01*
X37343899Y64117551D01*
X37326411Y64129843D01*
X37308910Y64142121D01*
X37291393Y64154384D01*
X37273864Y64166632D01*
X37256319Y64178866D01*
X37238761Y64191086D01*
X37221189Y64203291D01*
X37203603Y64215481D01*
X37186002Y64227657D01*
X37168388Y64239817D01*
X37150760Y64251964D01*
X37133118Y64264095D01*
X37115461Y64276212D01*
X37097791Y64288315D01*
X37080107Y64300402D01*
X37062409Y64312475D01*
X37044697Y64324533D01*
X37026971Y64336577D01*
X37009231Y64348606D01*
X36991478Y64360619D01*
X36973710Y64372619D01*
X36955929Y64384603D01*
X36938134Y64396573D01*
X36920325Y64408527D01*
X36902502Y64420467D01*
X36884666Y64432392D01*
X36866815Y64444303D01*
X36848951Y64456198D01*
X36831073Y64468078D01*
X36813182Y64479944D01*
X36795276Y64491795D01*
X36777358Y64503630D01*
X36759425Y64515451D01*
X36741479Y64527257D01*
X36723518Y64539048D01*
X36705545Y64550824D01*
X36687557Y64562585D01*
X36669557Y64574331D01*
X36651542Y64586062D01*
X36633514Y64597778D01*
X36615472Y64609479D01*
X36597417Y64621165D01*
X36579348Y64632836D01*
X36561266Y64644492D01*
X36543169Y64656133D01*
X36525060Y64667758D01*
X36506937Y64679369D01*
X36488801Y64690964D01*
X36470651Y64702544D01*
X36452488Y64714109D01*
X36434311Y64725660D01*
X36416121Y64737194D01*
X36397917Y64748714D01*
X36379700Y64760218D01*
X36361470Y64771708D01*
X36343226Y64783181D01*
X36324969Y64794640D01*
X36306699Y64806084D01*
X36288414Y64817512D01*
X36270118Y64828925D01*
X36251807Y64840323D01*
X36233484Y64851705D01*
X36215146Y64863073D01*
X36196796Y64874424D01*
X36178433Y64885761D01*
X36160056Y64897082D01*
X36141666Y64908388D01*
X36123263Y64919678D01*
X36104846Y64930954D01*
X36086417Y64942213D01*
X36067974Y64953457D01*
X36049519Y64964686D01*
X36031050Y64975900D01*
X36012568Y64987098D01*
X35994072Y64998280D01*
X35975565Y65009447D01*
X35957043Y65020599D01*
X35938509Y65031735D01*
X35919961Y65042856D01*
X35901401Y65053961D01*
X35882827Y65065051D01*
X35864241Y65076125D01*
X35845641Y65087183D01*
X35827029Y65098226D01*
X35808403Y65109254D01*
X35789765Y65120266D01*
X35771113Y65131262D01*
X35752449Y65142242D01*
X35733772Y65153208D01*
X35715082Y65164157D01*
X35696379Y65175091D01*
X35677663Y65186009D01*
X35658934Y65196912D01*
X35640193Y65207798D01*
X35621438Y65218670D01*
X35602672Y65229525D01*
X35583891Y65240365D01*
X35565099Y65251189D01*
X35546293Y65261997D01*
X35527475Y65272789D01*
X35508644Y65283566D01*
X35489800Y65294327D01*
X35470944Y65305073D01*
X35452075Y65315802D01*
X35433193Y65326516D01*
X35414298Y65337213D01*
X35395391Y65347896D01*
X35376472Y65358562D01*
X35357539Y65369212D01*
X35338594Y65379847D01*
X35319636Y65390465D01*
X35300666Y65401068D01*
X35281683Y65411655D01*
X35262688Y65422226D01*
X35243680Y65432781D01*
X35224660Y65443320D01*
X35205626Y65453844D01*
X35186581Y65464351D01*
X35167523Y65474842D01*
X35148453Y65485317D01*
X35129369Y65495777D01*
X35110275Y65506220D01*
X35091166Y65516648D01*
X35072047Y65527059D01*
X35052913Y65537454D01*
X35033769Y65547833D01*
X35014611Y65558197D01*
X34995442Y65568544D01*
X34976259Y65578875D01*
X34957065Y65589190D01*
X34937858Y65599489D01*
X34918640Y65609772D01*
X34899408Y65620039D01*
X34880165Y65630289D01*
X34860908Y65640524D01*
X34841641Y65650742D01*
X34822360Y65660945D01*
X34803068Y65671131D01*
X34783762Y65681301D01*
X34764446Y65691454D01*
X34745116Y65701592D01*
X34725775Y65711713D01*
X34706421Y65721819D01*
X34687056Y65731907D01*
X34667678Y65741980D01*
X34648288Y65752036D01*
X34628886Y65762077D01*
X34609472Y65772100D01*
X34590046Y65782108D01*
X34570608Y65792099D01*
X34551157Y65802074D01*
X34531695Y65812033D01*
X34512221Y65821975D01*
X34492735Y65831901D01*
X34473236Y65841811D01*
X34453726Y65851704D01*
X34434204Y65861581D01*
X34414670Y65871441D01*
X34395123Y65881286D01*
X34375566Y65891113D01*
X34355996Y65900925D01*
X34336414Y65910720D01*
X34316820Y65920498D01*
X34297215Y65930260D01*
X34277597Y65940006D01*
X34257969Y65949735D01*
X34238327Y65959448D01*
X34218675Y65969144D01*
X34199010Y65978824D01*
X34179334Y65988487D01*
X34159645Y65998134D01*
X34139946Y66007764D01*
X34120234Y66017378D01*
X34100511Y66026975D01*
X34080775Y66036556D01*
X34061029Y66046120D01*
X34041270Y66055667D01*
X34021500Y66065198D01*
X34001718Y66074713D01*
X33981925Y66084210D01*
X33962120Y66093691D01*
X33942304Y66103156D01*
X33922475Y66112604D01*
X33902636Y66122035D01*
X33882784Y66131450D01*
X33862921Y66140847D01*
X33843046Y66150229D01*
X33823161Y66159593D01*
X33803263Y66168941D01*
X33783354Y66178272D01*
X33763433Y66187587D01*
X33743502Y66196884D01*
X33723558Y66206166D01*
X33703603Y66215430D01*
X33683636Y66224677D01*
X33663659Y66233908D01*
X33643670Y66243122D01*
X33623670Y66252319D01*
X33603657Y66261500D01*
X33583635Y66270663D01*
X33563599Y66279810D01*
X33543554Y66288940D01*
X33523496Y66298054D01*
X33503428Y66307150D01*
X33483348Y66316229D01*
X33463257Y66325292D01*
X33443154Y66334338D01*
X33423041Y66343367D01*
X33402915Y66352379D01*
X33392935Y66356840D01*
X40259147Y20033954D02*
X40287128Y20111077D01*
X40315098Y20188401D01*
X40343055Y20265926D01*
X40371000Y20343652D01*
X40398931Y20421578D01*
X40426849Y20499703D01*
X40454754Y20578028D01*
X40482644Y20656552D01*
X40510520Y20735274D01*
X40538381Y20814194D01*
X40566228Y20893312D01*
X40594058Y20972626D01*
X40621873Y21052136D01*
X40649671Y21131842D01*
X40677453Y21211743D01*
X40705218Y21291839D01*
X40732965Y21372128D01*
X40760695Y21452611D01*
X40788407Y21533287D01*
X40816100Y21614155D01*
X40843774Y21695215D01*
X40871429Y21776465D01*
X40899064Y21857906D01*
X40926679Y21939536D01*
X40954273Y22021355D01*
X40981847Y22103362D01*
X41009399Y22185557D01*
X41036929Y22267939D01*
X41064438Y22350506D01*
X41091924Y22433259D01*
X41119386Y22516197D01*
X41146826Y22599318D01*
X41174242Y22682622D01*
X41201633Y22766109D01*
X41229000Y22849777D01*
X41256342Y22933625D01*
X41283658Y23017653D01*
X41310949Y23101860D01*
X41338213Y23186245D01*
X41365450Y23270807D01*
X41392660Y23355545D01*
X41419842Y23440459D01*
X41446997Y23525547D01*
X41474122Y23610808D01*
X41501219Y23696242D01*
X41528286Y23781847D01*
X41555323Y23867623D01*
X41582330Y23953569D01*
X41609306Y24039683D01*
X41636251Y24125964D01*
X41663164Y24212412D01*
X41690044Y24299026D01*
X41716892Y24385804D01*
X41743707Y24472745D01*
X41770488Y24559848D01*
X41797235Y24647112D01*
X41823948Y24734536D01*
X41850625Y24822118D01*
X41877267Y24909859D01*
X41903872Y24997755D01*
X41930441Y25085807D01*
X41956973Y25174012D01*
X41983468Y25262371D01*
X42009924Y25350881D01*
X42036342Y25439541D01*
X42062721Y25528349D01*
X42089060Y25617306D01*
X42115359Y25706409D01*
X42141617Y25795656D01*
X42167835Y25885048D01*
X42194011Y25974581D01*
X42220145Y26064256D01*
X42246236Y26154069D01*
X42272284Y26244021D01*
X42298288Y26334109D01*
X42324248Y26424333D01*
X42350163Y26514690D01*
X42376034Y26605179D01*
X42401858Y26695799D01*
X42427636Y26786548D01*
X42453367Y26877425D01*
X42479051Y26968427D01*
X42504686Y27059554D01*
X42530274Y27150804D01*
X42555812Y27242175D01*
X42581300Y27333665D01*
X42606739Y27425274D01*
X42632127Y27516998D01*
X42657463Y27608837D01*
X42682748Y27700789D01*
X42707980Y27792853D01*
X42733160Y27885025D01*
X42758286Y27977305D01*
X42783358Y28069691D01*
X42808375Y28162181D01*
X42833337Y28254773D01*
X42858243Y28347465D01*
X42883094Y28440256D01*
X42907887Y28533144D01*
X42932623Y28626126D01*
X42957300Y28719201D01*
X42981919Y28812367D01*
X43006479Y28905622D01*
X43030980Y28998964D01*
X43055419Y29092390D01*
X43079798Y29185900D01*
X43104116Y29279490D01*
X43128371Y29373160D01*
X43152564Y29466906D01*
X43176693Y29560727D01*
X43200758Y29654621D01*
X43224759Y29748585D01*
X43248695Y29842617D01*
X43272566Y29936716D01*
X43296370Y30030878D01*
X43320107Y30125103D01*
X43343777Y30219387D01*
X43367379Y30313729D01*
X43390912Y30408125D01*
X43414376Y30502575D01*
X43437771Y30597075D01*
X43461094Y30691623D01*
X43484347Y30786217D01*
X43507528Y30880855D01*
X43530638Y30975534D01*
X43553674Y31070252D01*
X43576637Y31165007D01*
X43599526Y31259795D01*
X43622340Y31354615D01*
X43645079Y31449464D01*
X43667742Y31544340D01*
X43690329Y31639240D01*
X43712839Y31734162D01*
X43735271Y31829103D01*
X43757625Y31924061D01*
X43779901Y32019033D01*
X43802097Y32114016D01*
X43824213Y32209009D01*
X43846248Y32304007D01*
X43868202Y32399010D01*
X43890074Y32494013D01*
X43911864Y32589015D01*
X43933571Y32684013D01*
X43955195Y32779004D01*
X43976734Y32873985D01*
X43998189Y32968954D01*
X44019558Y33063908D01*
X44040841Y33158845D01*
X44062038Y33253760D01*
X44083148Y33348653D01*
X44104170Y33443519D01*
X44125103Y33538357D01*
X44145948Y33633163D01*
X44166704Y33727934D01*
X44187369Y33822668D01*
X44207944Y33917362D01*
X44228428Y34012013D01*
X44248820Y34106618D01*
X44269119Y34201174D01*
X44289326Y34295678D01*
X44309440Y34390128D01*
X44329459Y34484520D01*
X44349384Y34578852D01*
X44369214Y34673121D01*
X44388948Y34767323D01*
X44408586Y34861456D01*
X44428128Y34955516D01*
X44447572Y35049502D01*
X44466918Y35143409D01*
X44486166Y35237235D01*
X44495754Y35284121D01*
X44505315Y35330977D01*
X44514853Y35377819D01*
X44524365Y35424631D01*
X44533853Y35471428D01*
X44543314Y35518195D01*
X44552752Y35564946D01*
X44562164Y35611666D01*
X44571551Y35658369D01*
X44580912Y35705041D01*
X44590249Y35751694D01*
X44599559Y35798316D01*
X44608845Y35844919D01*
X44618104Y35891489D01*
X44627339Y35938039D01*
X44636546Y35984557D01*
X44645729Y36031053D01*
X44654886Y36077516D01*
X44664017Y36123956D01*
X44673122Y36170363D01*
X44682201Y36216746D01*
X44691254Y36263096D01*
X44700281Y36309421D01*
X44709281Y36355711D01*
X44718256Y36401976D01*
X44727204Y36448206D01*
X44736126Y36494409D01*
X44745021Y36540577D01*
X44753890Y36586716D01*
X44762733Y36632821D01*
X44771549Y36678895D01*
X44780338Y36724935D01*
X44789100Y36770943D01*
X44797836Y36816916D01*
X44806545Y36862856D01*
X44815227Y36908760D01*
X44823882Y36954632D01*
X44832510Y37000466D01*
X44841111Y37046266D01*
X44849685Y37092030D01*
X44858232Y37137757D01*
X44866752Y37183448D01*
X44875244Y37229101D01*
X44883709Y37274717D01*
X44892147Y37320296D01*
X44900558Y37365836D01*
X44908940Y37411337D01*
X44917296Y37456800D01*
X44925623Y37502222D01*
X44933924Y37547606D01*
X44942196Y37592948D01*
X44950441Y37638251D01*
X44958658Y37683512D01*
X44966847Y37728733D01*
X44975008Y37773910D01*
X44983142Y37819048D01*
X44991247Y37864141D01*
X44999325Y37909193D01*
X45007374Y37954199D01*
X45015396Y37999165D01*
X45023388Y38044084D01*
X45031354Y38088961D01*
X45039290Y38133791D01*
X45047199Y38178579D01*
X45055078Y38223317D01*
X45062930Y38268014D01*
X45070753Y38312660D01*
X45078548Y38357264D01*
X45086314Y38401817D01*
X45094052Y38446326D01*
X45101761Y38490783D01*
X45109442Y38535198D01*
X45117093Y38579558D01*
X45124717Y38623875D01*
X45132311Y38668136D01*
X45139877Y38712355D01*
X45147413Y38756517D01*
X45154921Y38800635D01*
X45162399Y38844695D01*
X45169850Y38888712D01*
X45177270Y38932669D01*
X45184663Y38976583D01*
X45192025Y39020436D01*
X45199359Y39064245D01*
X45206663Y39107992D01*
X45213939Y39151695D01*
X45221184Y39195335D01*
X45228402Y39238930D01*
X45235589Y39282462D01*
X45242748Y39325948D01*
X45249876Y39369369D01*
X45256977Y39412745D01*
X45264046Y39456055D01*
X45271088Y39499319D01*
X45278098Y39542515D01*
X45285081Y39585666D01*
X45292032Y39628748D01*
X45298956Y39671784D01*
X45305848Y39714750D01*
X45312712Y39757670D01*
X45319545Y39800519D01*
X45326350Y39843320D01*
X45333124Y39886051D01*
X45339870Y39928734D01*
X45346584Y39971344D01*
X45353270Y40013906D01*
X45359925Y40056395D01*
X45366551Y40098836D01*
X45373146Y40141202D01*
X45379713Y40183519D01*
X45386248Y40225761D01*
X45392755Y40267954D01*
X45399230Y40310070D01*
X45405677Y40352137D01*
X45412093Y40394126D01*
X45418480Y40436066D01*
X45424835Y40477927D01*
X45431163Y40519737D01*
X45437458Y40561469D01*
X45443725Y40603150D01*
X45449960Y40644750D01*
X45456167Y40686300D01*
X45462342Y40727768D01*
X45468488Y40769185D01*
X45474603Y40810520D01*
X45480689Y40851803D01*
X45486743Y40893003D01*
X45492770Y40934151D01*
X45498763Y40975214D01*
X45504729Y41016226D01*
X45510663Y41057152D01*
X45516568Y41098026D01*
X45522441Y41138813D01*
X45528286Y41179548D01*
X45534098Y41220196D01*
X45539883Y41260790D01*
X45545634Y41301297D01*
X45551358Y41341750D01*
X45557049Y41382114D01*
X45562713Y41422425D01*
X45568343Y41462645D01*
X45573946Y41502812D01*
X45579516Y41542887D01*
X45585058Y41582909D01*
X45590568Y41622839D01*
X45596049Y41662715D01*
X45601498Y41702497D01*
X45606919Y41742225D01*
X45612307Y41781859D01*
X45617667Y41821439D01*
X45622995Y41860924D01*
X45628295Y41900354D01*
X45633561Y41939688D01*
X45638801Y41978967D01*
X45644007Y42018150D01*
X45649185Y42057277D01*
X45654331Y42096307D01*
X45659449Y42135281D01*
X45664534Y42174157D01*
X45669592Y42212977D01*
X45674616Y42251698D01*
X45679613Y42290363D01*
X45684577Y42328928D01*
X45689513Y42367437D01*
X45694417Y42405845D01*
X45699293Y42444197D01*
X45704136Y42482447D01*
X45708951Y42520640D01*
X45713734Y42558731D01*
X45718489Y42596765D01*
X45723211Y42634696D01*
X45727906Y42672570D01*
X45732568Y42710339D01*
X45737203Y42748052D01*
X45741804Y42785660D01*
X45746379Y42823210D01*
X45750920Y42860655D01*
X45755434Y42898042D01*
X45759916Y42935323D01*
X45764370Y42972547D01*
X45768791Y43009663D01*
X45773185Y43046721D01*
X45777547Y43083671D01*
X45781881Y43120564D01*
X45786182Y43157348D01*
X45790457Y43194073D01*
X45794699Y43230690D01*
X45798913Y43267248D01*
X45803095Y43303696D01*
X45807250Y43340085D01*
X45811372Y43376364D01*
X45815468Y43412585D01*
X45819531Y43448694D01*
X45823567Y43484744D01*
X45827570Y43520682D01*
X45831547Y43556562D01*
X45835491Y43592328D01*
X45839408Y43628036D01*
X45843293Y43663630D01*
X45847151Y43699166D01*
X45850977Y43734587D01*
X45854776Y43769949D01*
X45858543Y43805197D01*
X45862284Y43840385D01*
X45865992Y43875458D01*
X45869673Y43910472D01*
X45873323Y43945370D01*
X45876946Y43980208D01*
X45880536Y44014930D01*
X45884101Y44049592D01*
X45887633Y44084138D01*
X45891139Y44118624D01*
X45894613Y44152992D01*
X45898061Y44187301D01*
X45901477Y44221491D01*
X45904867Y44255622D01*
X45908225Y44289634D01*
X45911557Y44323586D01*
X45914857Y44357420D01*
X45918132Y44391193D01*
X45921374Y44424846D01*
X45924591Y44458440D01*
X45927776Y44491914D01*
X45930935Y44525327D01*
X45934063Y44558620D01*
X45937165Y44591852D01*
X45940236Y44624964D01*
X45943280Y44658016D01*
X45946294Y44690946D01*
X45949282Y44723816D01*
X45952239Y44756564D01*
X45955170Y44789251D01*
X45958071Y44821817D01*
X45960946Y44854322D01*
X45963789Y44886704D01*
X45966608Y44919026D01*
X45969396Y44951225D01*
X45972158Y44983363D01*
X45974890Y45015378D01*
X45977596Y45047333D01*
X45980272Y45079163D01*
X45982923Y45110934D01*
X45985543Y45142580D01*
X45988138Y45174165D01*
X45990703Y45205626D01*
X45993243Y45237027D01*
X45995752Y45268303D01*
X45998237Y45299518D01*
X46000692Y45330608D01*
X46003122Y45361638D01*
X46005522Y45392542D01*
X46007897Y45423386D01*
X46010242Y45454104D01*
X46012563Y45484761D01*
X46014854Y45515293D01*
X46017121Y45545763D01*
X46019358Y45576108D01*
X46021570Y45606392D01*
X46023754Y45636550D01*
X46025913Y45666647D01*
X46028042Y45696618D01*
X46030147Y45726528D01*
X46032224Y45756312D01*
X46034276Y45786034D01*
X46036299Y45815630D01*
X46038298Y45845165D01*
X46040268Y45874574D01*
X46042215Y45903921D01*
X46044132Y45933141D01*
X46046026Y45962301D01*
X46047891Y45991333D01*
X46049733Y46020305D01*
X46051546Y46049149D01*
X46053336Y46077933D01*
X46055097Y46106589D01*
X46056835Y46135185D01*
X46058545Y46163653D01*
X46060231Y46192060D01*
X46061889Y46220340D01*
X46063524Y46248559D01*
X46065132Y46276650D01*
X46066716Y46304681D01*
X46068272Y46332584D01*
X46069806Y46360427D01*
X46071312Y46388142D01*
X46072795Y46415796D01*
X46074251Y46443322D01*
X46075683Y46470788D01*
X46077090Y46498126D01*
X46078472Y46525404D01*
X46079829Y46552554D01*
X46081162Y46579644D01*
X46082469Y46606605D01*
X46083753Y46633507D01*
X46085011Y46660280D01*
X46086246Y46686994D01*
X46087455Y46713579D01*
X46088641Y46740105D01*
X46089802Y46766502D01*
X46090940Y46792840D01*
X46092052Y46819050D01*
X46093142Y46845200D01*
X46094206Y46871222D01*
X46095248Y46897184D01*
X46096265Y46923019D01*
X46097259Y46948794D01*
X46098229Y46974442D01*
X46099176Y47000029D01*
X46100098Y47025490D01*
X46100998Y47050890D01*
X46101874Y47076164D01*
X46102728Y47101378D01*
X46103557Y47126464D01*
X46104364Y47151492D01*
X46105147Y47176392D01*
X46105908Y47201233D01*
X46106646Y47225947D01*
X46107361Y47250602D01*
X46108053Y47275130D01*
X46108723Y47299599D01*
X46109370Y47323941D01*
X46109995Y47348224D01*
X46110597Y47372381D01*
X46111177Y47396479D01*
X46111734Y47420451D01*
X46112270Y47444364D01*
X46112783Y47468152D01*
X46113275Y47491880D01*
X46113744Y47515483D01*
X46114192Y47539027D01*
X46114617Y47562445D01*
X46115021Y47585806D01*
X46115404Y47609041D01*
X46115765Y47632217D01*
X46116104Y47655269D01*
X46116422Y47678262D01*
X46116719Y47701131D01*
X46116995Y47723941D01*
X46117249Y47746627D01*
X46117483Y47769255D01*
X46117695Y47791759D01*
X46117887Y47814205D01*
X46118058Y47836527D01*
X46118208Y47858791D01*
X46118337Y47880932D01*
X46118446Y47903015D01*
X46118535Y47924975D01*
X46118603Y47946878D01*
X46118651Y47968657D01*
X46118678Y47990380D01*
X46118686Y48009207D01*
X23059343Y0D02*
X23086545Y40D01*
X23113737Y160D01*
X23140919Y360D01*
X23168091Y639D01*
X23195253Y999D01*
X23222405Y1439D01*
X23249547Y1958D01*
X23276680Y2557D01*
X23303804Y3236D01*
X23330918Y3994D01*
X23358023Y4833D01*
X23385119Y5751D01*
X23412206Y6748D01*
X23439284Y7826D01*
X23466353Y8983D01*
X23493413Y10220D01*
X23520466Y11536D01*
X23547509Y12932D01*
X23574544Y14408D01*
X23601572Y15963D01*
X23628591Y17598D01*
X23655602Y19313D01*
X23682605Y21107D01*
X23709600Y22981D01*
X23736588Y24934D01*
X23763568Y26967D01*
X23790541Y29080D01*
X23817506Y31272D01*
X23844465Y33544D01*
X23871416Y35896D01*
X23898360Y38327D01*
X23925297Y40838D01*
X23952228Y43429D01*
X23979152Y46099D01*
X24006069Y48850D01*
X24032980Y51679D01*
X24059884Y54589D01*
X24086783Y57578D01*
X24113675Y60647D01*
X24140561Y63796D01*
X24167441Y67025D01*
X24194316Y70333D01*
X24221184Y73722D01*
X24248048Y77190D01*
X24274905Y80738D01*
X24301758Y84366D01*
X24328605Y88075D01*
X24355447Y91863D01*
X24382284Y95731D01*
X24409116Y99679D01*
X24435943Y103708D01*
X24462766Y107816D01*
X24489583Y112005D01*
X24516397Y116274D01*
X24543206Y120623D01*
X24570010Y125053D01*
X24596811Y129563D01*
X24623607Y134153D01*
X24650400Y138824D01*
X24677188Y143576D01*
X24703973Y148407D01*
X24730754Y153320D01*
X24757532Y158313D01*
X24784306Y163387D01*
X24811076Y168541D01*
X24837844Y173777D01*
X24864608Y179093D01*
X24891369Y184490D01*
X24918128Y189968D01*
X24944883Y195528D01*
X24971636Y201168D01*
X24998386Y206889D01*
X25025134Y212692D01*
X25051879Y218576D01*
X25078622Y224542D01*
X25105362Y230588D01*
X25132101Y236717D01*
X25158837Y242927D01*
X25185572Y249218D01*
X25212304Y255592D01*
X25239035Y262047D01*
X25265765Y268584D01*
X25292492Y275203D01*
X25319219Y281904D01*
X25345944Y288687D01*
X25372668Y295552D01*
X25399390Y302500D01*
X25426112Y309530D01*
X25452833Y316642D01*
X25479552Y323837D01*
X25506272Y331114D01*
X25532990Y338475D01*
X25559708Y345918D01*
X25586425Y353443D01*
X25613142Y361052D01*
X25639859Y368744D01*
X25666576Y376519D01*
X25693292Y384378D01*
X25720009Y392320D01*
X25746726Y400345D01*
X25773443Y408454D01*
X25800160Y416646D01*
X25826877Y424922D01*
X25853595Y433283D01*
X25880314Y441727D01*
X25907033Y450255D01*
X25933753Y458867D01*
X25960474Y467564D01*
X25987196Y476345D01*
X26013919Y485211D01*
X26040643Y494161D01*
X26067369Y503196D01*
X26094095Y512316D01*
X26120823Y521520D01*
X26147553Y530810D01*
X26174284Y540185D01*
X26201016Y549646D01*
X26227751Y559192D01*
X26254487Y568823D01*
X26281225Y578541D01*
X26307965Y588344D01*
X26334708Y598233D01*
X26361452Y608208D01*
X26388199Y618269D01*
X26414948Y628416D01*
X26441700Y638650D01*
X26468454Y648971D01*
X26495211Y659379D01*
X26521970Y669873D01*
X26548732Y680454D01*
X26575497Y691122D01*
X26602265Y701878D01*
X26629036Y712721D01*
X26655811Y723652D01*
X26682588Y734670D01*
X26709369Y745776D01*
X26736153Y756970D01*
X26762940Y768252D01*
X26789731Y779623D01*
X26816526Y791082D01*
X26843324Y802629D01*
X26870126Y814265D01*
X26896932Y825990D01*
X26923741Y837804D01*
X26950555Y849707D01*
X26977373Y861700D01*
X27004195Y873782D01*
X27031021Y885953D01*
X27057852Y898215D01*
X27084686Y910566D01*
X27111526Y923007D01*
X27138370Y935539D01*
X27165218Y948161D01*
X27192071Y960873D01*
X27218929Y973677D01*
X27245792Y986571D01*
X27272659Y999556D01*
X27299532Y1012633D01*
X27326410Y1025801D01*
X27353292Y1039060D01*
X27380180Y1052411D01*
X27407074Y1065854D01*
X27433972Y1079390D01*
X27460876Y1093017D01*
X27487785Y1106737D01*
X27514700Y1120549D01*
X27541621Y1134455D01*
X27568547Y1148453D01*
X27595479Y1162544D01*
X27622417Y1176729D01*
X27649361Y1191007D01*
X27676310Y1205379D01*
X27703266Y1219844D01*
X27730227Y1234404D01*
X27757195Y1249058D01*
X27784169Y1263806D01*
X27811150Y1278649D01*
X27838136Y1293587D01*
X27865130Y1308619D01*
X27892129Y1323747D01*
X27919135Y1338970D01*
X27946148Y1354289D01*
X27973167Y1369703D01*
X28000193Y1385213D01*
X28027226Y1400819D01*
X28054266Y1416522D01*
X28081312Y1432321D01*
X28108366Y1448217D01*
X28135426Y1464210D01*
X28162494Y1480299D01*
X28189569Y1496486D01*
X28216651Y1512771D01*
X28243740Y1529153D01*
X28270836Y1545633D01*
X28297940Y1562211D01*
X28325052Y1578888D01*
X28352170Y1595663D01*
X28379297Y1612537D01*
X28406431Y1629509D01*
X28433572Y1646581D01*
X28460721Y1663752D01*
X28487878Y1681023D01*
X28515043Y1698393D01*
X28542216Y1715863D01*
X28569396Y1733434D01*
X28596585Y1751104D01*
X28623781Y1768876D01*
X28650986Y1786748D01*
X28678199Y1804721D01*
X28705420Y1822796D01*
X28732649Y1840972D01*
X28759886Y1859249D01*
X28787132Y1877629D01*
X28814386Y1896110D01*
X28841648Y1914694D01*
X28868919Y1933381D01*
X28896198Y1952170D01*
X28923486Y1971062D01*
X28950783Y1990058D01*
X28978088Y2009157D01*
X29005402Y2028359D01*
X29032724Y2047666D01*
X29060056Y2067077D01*
X29087396Y2086592D01*
X29114745Y2106211D01*
X29142103Y2125936D01*
X29169469Y2145765D01*
X29196845Y2165700D01*
X29224230Y2185740D01*
X29251624Y2205886D01*
X29279027Y2226138D01*
X29306439Y2246496D01*
X29333860Y2266961D01*
X29361291Y2287532D01*
X29388731Y2308210D01*
X29416180Y2328995D01*
X29443638Y2349888D01*
X29471106Y2370889D01*
X29498583Y2391997D01*
X29526070Y2413213D01*
X29553566Y2434538D01*
X29581072Y2455971D01*
X29608587Y2477513D01*
X29636112Y2499164D01*
X29663646Y2520925D01*
X29691190Y2542795D01*
X29718744Y2564775D01*
X29746307Y2586864D01*
X29773880Y2609065D01*
X29801463Y2631375D01*
X29829056Y2653797D01*
X29856658Y2676330D01*
X29884271Y2698973D01*
X29911893Y2721729D01*
X29939525Y2744596D01*
X29967168Y2767575D01*
X29994820Y2790667D01*
X30022482Y2813871D01*
X30050154Y2837188D01*
X30077837Y2860618D01*
X30105529Y2884161D01*
X30133231Y2907818D01*
X30160944Y2931589D01*
X30188667Y2955474D01*
X30216400Y2979473D01*
X30244143Y3003586D01*
X30271896Y3027815D01*
X30299660Y3052159D01*
X30327434Y3076618D01*
X30355218Y3101192D01*
X30383013Y3125883D01*
X30410817Y3150690D01*
X30438633Y3175613D01*
X30466458Y3200653D01*
X30494294Y3225810D01*
X30522141Y3251084D01*
X30549997Y3276475D01*
X30577865Y3301984D01*
X30605742Y3327611D01*
X30633631Y3353357D01*
X30661529Y3379221D01*
X30689439Y3405204D01*
X30717358Y3431306D01*
X30745289Y3457527D01*
X30773229Y3483868D01*
X30801181Y3510328D01*
X30829143Y3536909D01*
X30857116Y3563610D01*
X30885099Y3590432D01*
X30913093Y3617375D01*
X30941097Y3644439D01*
X30969112Y3671625D01*
X30997138Y3698932D01*
X31025174Y3726362D01*
X31053221Y3753914D01*
X31081279Y3781588D01*
X31109348Y3809385D01*
X31137427Y3837306D01*
X31165517Y3865350D01*
X31193617Y3893517D01*
X31221729Y3921809D01*
X31249851Y3950224D01*
X31277983Y3978765D01*
X31306127Y4007430D01*
X31334281Y4036220D01*
X31362446Y4065135D01*
X31390622Y4094177D01*
X31418808Y4123344D01*
X31447005Y4152637D01*
X31475213Y4182057D01*
X31503432Y4211603D01*
X31531661Y4241277D01*
X31559901Y4271078D01*
X31588152Y4301006D01*
X31616414Y4331063D01*
X31644686Y4361247D01*
X31672969Y4391560D01*
X31701263Y4422002D01*
X31729568Y4452573D01*
X31757883Y4483273D01*
X31786209Y4514103D01*
X31814546Y4545063D01*
X31842894Y4576152D01*
X31871252Y4607372D01*
X31899621Y4638723D01*
X31928001Y4670205D01*
X31956391Y4701819D01*
X31984792Y4733564D01*
X32013204Y4765440D01*
X32041626Y4797449D01*
X32070060Y4829591D01*
X32098503Y4861865D01*
X32126958Y4894272D01*
X32155423Y4926812D01*
X32183898Y4959486D01*
X32212385Y4992294D01*
X32240882Y5025236D01*
X32269389Y5058313D01*
X32297907Y5091524D01*
X32326436Y5124871D01*
X32354975Y5158352D01*
X32383525Y5191970D01*
X32412085Y5225723D01*
X32440656Y5259613D01*
X32469237Y5293639D01*
X32497829Y5327802D01*
X32526431Y5362101D01*
X32555043Y5396539D01*
X32583666Y5431114D01*
X32612300Y5465827D01*
X32640944Y5500678D01*
X32669598Y5535668D01*
X32698262Y5570796D01*
X32726937Y5606064D01*
X32755622Y5641471D01*
X32784317Y5677018D01*
X32813023Y5712705D01*
X32841739Y5748532D01*
X32870465Y5784499D01*
X32899201Y5820608D01*
X32927947Y5856858D01*
X32956704Y5893249D01*
X32985470Y5929782D01*
X33014247Y5966457D01*
X33043034Y6003274D01*
X33071831Y6040234D01*
X33100637Y6077337D01*
X33129454Y6114584D01*
X33158281Y6151973D01*
X33187117Y6189507D01*
X33215964Y6227185D01*
X33244820Y6265007D01*
X33273686Y6302973D01*
X33302562Y6341085D01*
X33331448Y6379342D01*
X33360343Y6417745D01*
X33389248Y6456293D01*
X33418163Y6494988D01*
X33447087Y6533829D01*
X33476021Y6572816D01*
X33504964Y6611951D01*
X33533917Y6651233D01*
X33562880Y6690663D01*
X33591852Y6730241D01*
X33620833Y6769967D01*
X33649824Y6809841D01*
X33678823Y6849864D01*
X33707833Y6890037D01*
X33736851Y6930358D01*
X33765879Y6970830D01*
X33794915Y7011451D01*
X33823961Y7052222D01*
X33853016Y7093144D01*
X33882080Y7134217D01*
X33911153Y7175441D01*
X33940235Y7216817D01*
X33969326Y7258344D01*
X33998426Y7300023D01*
X34027534Y7341854D01*
X34056651Y7383838D01*
X34085777Y7425975D01*
X34114912Y7468265D01*
X34144055Y7510708D01*
X34173207Y7553305D01*
X34202367Y7596056D01*
X34231536Y7638961D01*
X34260713Y7682021D01*
X34289898Y7725236D01*
X34319092Y7768606D01*
X34348294Y7812132D01*
X34377505Y7855813D01*
X34406723Y7899650D01*
X34435949Y7943643D01*
X34465184Y7987793D01*
X34494426Y8032100D01*
X34523677Y8076564D01*
X34552935Y8121186D01*
X34582201Y8165965D01*
X34611475Y8210902D01*
X34640757Y8255997D01*
X34670046Y8301251D01*
X34699342Y8346664D01*
X34728647Y8392236D01*
X34757958Y8437967D01*
X34787277Y8483858D01*
X34816604Y8529909D01*
X34845937Y8576120D01*
X34875278Y8622492D01*
X34904626Y8669024D01*
X34933981Y8715718D01*
X34963343Y8762573D01*
X34992712Y8809589D01*
X35022087Y8856767D01*
X35051470Y8904108D01*
X35080859Y8951610D01*
X35110255Y8999276D01*
X35139657Y9047104D01*
X35169066Y9095096D01*
X35198482Y9143251D01*
X35227903Y9191570D01*
X35257331Y9240053D01*
X35286766Y9288701D01*
X35316206Y9337512D01*
X35345652Y9386489D01*
X35375105Y9435631D01*
X35404563Y9484938D01*
X35434027Y9534411D01*
X35463497Y9584049D01*
X35492972Y9633854D01*
X35522453Y9683825D01*
X35551940Y9733963D01*
X35581432Y9784268D01*
X35610929Y9834740D01*
X35640432Y9885379D01*
X35669940Y9936186D01*
X35699453Y9987161D01*
X35728970Y10038304D01*
X35758493Y10089615D01*
X35788021Y10141096D01*
X35817553Y10192745D01*
X35847090Y10244563D01*
X35876632Y10296551D01*
X35906178Y10348708D01*
X35935728Y10401035D01*
X35965283Y10453533D01*
X35994842Y10506200D01*
X36024405Y10559039D01*
X36053972Y10612048D01*
X36083542Y10665228D01*
X36113117Y10718580D01*
X36142695Y10772103D01*
X36172277Y10825798D01*
X36201863Y10879665D01*
X36231452Y10933704D01*
X36261044Y10987916D01*
X36290640Y11042301D01*
X36320238Y11096858D01*
X36349840Y11151589D01*
X36379444Y11206493D01*
X36409051Y11261570D01*
X36438661Y11316821D01*
X36468274Y11372247D01*
X36497889Y11427846D01*
X36527506Y11483620D01*
X36557126Y11539569D01*
X36586748Y11595693D01*
X36616371Y11651991D01*
X36645997Y11708465D01*
X36675624Y11765115D01*
X36705254Y11821940D01*
X36734884Y11878941D01*
X36764517Y11936118D01*
X36794150Y11993471D01*
X36823785Y12051001D01*
X36853421Y12108707D01*
X36883058Y12166590D01*
X36912695Y12224651D01*
X36942334Y12282888D01*
X36971973Y12341303D01*
X37001612Y12399896D01*
X37031252Y12458666D01*
X37060892Y12517614D01*
X37090532Y12576740D01*
X37120172Y12636045D01*
X37149812Y12695528D01*
X37179452Y12755189D01*
X37209091Y12815029D01*
X37238730Y12875049D01*
X37268368Y12935247D01*
X37298005Y12995624D01*
X37327641Y13056181D01*
X37357276Y13116917D01*
X37386910Y13177834D01*
X37416543Y13238929D01*
X37446174Y13300205D01*
X37475803Y13361661D01*
X37505430Y13423297D01*
X37535056Y13485114D01*
X37564679Y13547110D01*
X37594300Y13609288D01*
X37623919Y13671646D01*
X37653535Y13734185D01*
X37683148Y13796905D01*
X37712758Y13859806D01*
X37742366Y13922889D01*
X37771970Y13986152D01*
X37801571Y14049597D01*
X37831168Y14113223D01*
X37860762Y14177031D01*
X37890352Y14241021D01*
X37919938Y14305192D01*
X37949519Y14369545D01*
X37979097Y14434080D01*
X38008670Y14498797D01*
X38038238Y14563696D01*
X38067801Y14628777D01*
X38097360Y14694040D01*
X38126913Y14759485D01*
X38156461Y14825113D01*
X38186003Y14890923D01*
X38215540Y14956915D01*
X38245071Y15023090D01*
X38274595Y15089447D01*
X38304114Y15155987D01*
X38333626Y15222709D01*
X38363131Y15289614D01*
X38392629Y15356701D01*
X38422121Y15423970D01*
X38451605Y15491422D01*
X38481082Y15559057D01*
X38510551Y15626874D01*
X38540013Y15694874D01*
X38569466Y15763056D01*
X38598912Y15831421D01*
X38628349Y15899968D01*
X38657777Y15968698D01*
X38687196Y16037610D01*
X38716607Y16106704D01*
X38746008Y16175980D01*
X38775400Y16245439D01*
X38804782Y16315080D01*
X38834154Y16384903D01*
X38863517Y16454908D01*
X38892869Y16525095D01*
X38922210Y16595464D01*
X38951541Y16666014D01*
X38980860Y16736746D01*
X39010169Y16807660D01*
X39039466Y16878755D01*
X39068751Y16950031D01*
X39098024Y17021489D01*
X39127286Y17093127D01*
X39156534Y17164947D01*
X39185771Y17236947D01*
X39214994Y17309127D01*
X39244204Y17381488D01*
X39273401Y17454030D01*
X39302584Y17526751D01*
X39331753Y17599652D01*
X39360909Y17672732D01*
X39390049Y17745992D01*
X39419175Y17819432D01*
X39448287Y17893050D01*
X39477383Y17966847D01*
X39506463Y18040822D01*
X39535528Y18114976D01*
X39564576Y18189307D01*
X39593609Y18263816D01*
X39622625Y18338503D01*
X39651624Y18413366D01*
X39680605Y18488406D01*
X39709570Y18563623D01*
X39738516Y18639016D01*
X39767445Y18714584D01*
X39796355Y18790328D01*
X39825246Y18866247D01*
X39854119Y18942341D01*
X39882972Y19018608D01*
X39911806Y19095050D01*
X39940620Y19171665D01*
X39969414Y19248454D01*
X39998187Y19325414D01*
X40026939Y19402547D01*
X40055670Y19479852D01*
X40084379Y19557327D01*
X40113067Y19634974D01*
X40141732Y19712790D01*
X40170375Y19790777D01*
X40198995Y19868932D01*
X40227592Y19947256D01*
X40256165Y20025748D01*
X40259147Y20033954D01*
X5859539Y20033954D02*
X5873855Y19994584D01*
X5888201Y19955193D01*
X5902529Y19915908D01*
X5916887Y19876603D01*
X5931226Y19837403D01*
X5945595Y19798183D01*
X5959946Y19759068D01*
X5974326Y19719934D01*
X5988689Y19680905D01*
X6003080Y19641857D01*
X6017454Y19602915D01*
X6031855Y19563953D01*
X6046240Y19525096D01*
X6060653Y19486221D01*
X6075048Y19447451D01*
X6089471Y19408663D01*
X6103877Y19369979D01*
X6118311Y19331278D01*
X6132727Y19292681D01*
X6147171Y19254068D01*
X6161597Y19215558D01*
X6176051Y19177032D01*
X6190488Y19138609D01*
X6204952Y19100171D01*
X6219398Y19061836D01*
X6233872Y19023486D01*
X6248328Y18985238D01*
X6262811Y18946976D01*
X6277277Y18908817D01*
X6291770Y18870643D01*
X6306245Y18832572D01*
X6320747Y18794486D01*
X6335232Y18756503D01*
X6349743Y18718507D01*
X6364236Y18680612D01*
X6378756Y18642705D01*
X6393259Y18604898D01*
X6407788Y18567080D01*
X6422300Y18529363D01*
X6436837Y18491634D01*
X6451357Y18454005D01*
X6465904Y18416365D01*
X6480432Y18378826D01*
X6494987Y18341276D01*
X6509524Y18303826D01*
X6524087Y18266365D01*
X6538632Y18229005D01*
X6553203Y18191634D01*
X6567757Y18154363D01*
X6582336Y18117082D01*
X6596897Y18079901D01*
X6611484Y18042710D01*
X6626053Y18005618D01*
X6640647Y17968518D01*
X6655225Y17931516D01*
X6669826Y17894506D01*
X6684411Y17857595D01*
X6699020Y17820675D01*
X6713612Y17783854D01*
X6728229Y17747025D01*
X6742828Y17710293D01*
X6757452Y17673555D01*
X6772059Y17636914D01*
X6786690Y17600267D01*
X6801303Y17563716D01*
X6815941Y17527160D01*
X6830561Y17490700D01*
X6845206Y17454234D01*
X6859833Y17417865D01*
X6874484Y17381491D01*
X6889118Y17345212D01*
X6903776Y17308929D01*
X6918416Y17272741D01*
X6933080Y17236549D01*
X6947727Y17200453D01*
X6962397Y17164352D01*
X6977050Y17128346D01*
X6991727Y17092337D01*
X7006386Y17056423D01*
X7021068Y17020504D01*
X7035733Y16984681D01*
X7050422Y16948855D01*
X7065093Y16913123D01*
X7079787Y16877388D01*
X7094464Y16841747D01*
X7109164Y16806104D01*
X7123847Y16770555D01*
X7138552Y16735003D01*
X7153240Y16699545D01*
X7167951Y16664085D01*
X7182645Y16628719D01*
X7197361Y16593350D01*
X7212060Y16558076D01*
X7226781Y16522799D01*
X7241485Y16487616D01*
X7256212Y16452431D01*
X7270921Y16417340D01*
X7285653Y16382247D01*
X7300367Y16347247D01*
X7315103Y16312247D01*
X7329823Y16277338D01*
X7344564Y16242430D01*
X7359288Y16207613D01*
X7374033Y16172796D01*
X7388762Y16138071D01*
X7403512Y16103347D01*
X7418246Y16068714D01*
X7433001Y16034081D01*
X7447738Y15999540D01*
X7462497Y15964999D01*
X7477239Y15930550D01*
X7492003Y15896101D01*
X7506749Y15861743D01*
X7521517Y15827387D01*
X7536267Y15793121D01*
X7551039Y15758857D01*
X7565793Y15724683D01*
X7580569Y15690511D01*
X7595327Y15656429D01*
X7610106Y15622349D01*
X7624869Y15588358D01*
X7639652Y15554370D01*
X7654418Y15520472D01*
X7669205Y15486576D01*
X7683974Y15452770D01*
X7698765Y15418966D01*
X7713538Y15385251D01*
X7728332Y15351540D01*
X7743108Y15317917D01*
X7757905Y15284297D01*
X7772685Y15250766D01*
X7787486Y15217239D01*
X7802269Y15183800D01*
X7817073Y15150365D01*
X7831859Y15117017D01*
X7846666Y15083674D01*
X7861455Y15050418D01*
X7876265Y15017167D01*
X7891057Y14984004D01*
X7905870Y14950844D01*
X7920665Y14917772D01*
X7935481Y14884705D01*
X7950279Y14851725D01*
X7965097Y14818750D01*
X7979898Y14785861D01*
X7994718Y14752978D01*
X8009522Y14720181D01*
X8024345Y14687390D01*
X8039151Y14654685D01*
X8053977Y14621985D01*
X8068785Y14589372D01*
X8083613Y14556764D01*
X8098424Y14524242D01*
X8113255Y14491727D01*
X8128068Y14459296D01*
X8142900Y14426872D01*
X8157716Y14394534D01*
X8172550Y14362201D01*
X8187368Y14329954D01*
X8202204Y14297713D01*
X8217024Y14265558D01*
X8231862Y14233409D01*
X8246684Y14201344D01*
X8261524Y14169287D01*
X8276347Y14137314D01*
X8291190Y14105348D01*
X8306015Y14073466D01*
X8320858Y14041592D01*
X8335685Y14009802D01*
X8350531Y13978019D01*
X8365359Y13946320D01*
X8380206Y13914628D01*
X8395036Y13883020D01*
X8409885Y13851420D01*
X8424716Y13819903D01*
X8439566Y13788394D01*
X8454399Y13756969D01*
X8469250Y13725551D01*
X8484084Y13694216D01*
X8498936Y13662890D01*
X8513772Y13631646D01*
X8528625Y13600410D01*
X8543462Y13569257D01*
X8558316Y13538113D01*
X8573154Y13507051D01*
X8588009Y13475998D01*
X8602848Y13445026D01*
X8617704Y13414064D01*
X8632544Y13383183D01*
X8647401Y13352312D01*
X8662242Y13321521D01*
X8677100Y13290741D01*
X8691941Y13260041D01*
X8706800Y13229351D01*
X8721642Y13198742D01*
X8736501Y13168143D01*
X8751344Y13137624D01*
X8766204Y13107115D01*
X8781047Y13076687D01*
X8795907Y13046268D01*
X8810751Y13015930D01*
X8825612Y12985602D01*
X8840456Y12955354D01*
X8855317Y12925117D01*
X8870162Y12894959D01*
X8885023Y12864811D01*
X8899868Y12834743D01*
X8914730Y12804686D01*
X8929575Y12774708D01*
X8944437Y12744741D01*
X8959282Y12714853D01*
X8974144Y12684976D01*
X8988989Y12655178D01*
X9003851Y12625391D01*
X9018696Y12595682D01*
X9033558Y12565985D01*
X9048404Y12536366D01*
X9063266Y12506758D01*
X9078111Y12477229D01*
X9092972Y12447711D01*
X9107817Y12418271D01*
X9122679Y12388842D01*
X9137523Y12359492D01*
X9152385Y12330153D01*
X9167229Y12300891D01*
X9182090Y12271642D01*
X9196934Y12242470D01*
X9211794Y12213309D01*
X9226638Y12184226D01*
X9241498Y12155155D01*
X9256341Y12126161D01*
X9271200Y12097179D01*
X9286043Y12068274D01*
X9300902Y12039381D01*
X9315744Y12010564D01*
X9330602Y11981760D01*
X9345443Y11953032D01*
X9360300Y11924317D01*
X9375141Y11895678D01*
X9389998Y11867051D01*
X9404837Y11838500D01*
X9419693Y11809962D01*
X9434532Y11781500D01*
X9449387Y11753050D01*
X9464225Y11724676D01*
X9479079Y11696315D01*
X9493916Y11668029D01*
X9508769Y11639756D01*
X9523605Y11611559D01*
X9538457Y11583374D01*
X9553292Y11555264D01*
X9568142Y11527168D01*
X9582976Y11499146D01*
X9597825Y11471137D01*
X9612658Y11443203D01*
X9627506Y11415282D01*
X9642338Y11387435D01*
X9657185Y11359603D01*
X9672015Y11331844D01*
X9686860Y11304098D01*
X9701689Y11276427D01*
X9716533Y11248769D01*
X9731361Y11221185D01*
X9746204Y11193614D01*
X9761030Y11166117D01*
X9775871Y11138634D01*
X9790695Y11111224D01*
X9805535Y11083829D01*
X9820358Y11056506D01*
X9835196Y11029197D01*
X9850017Y11001961D01*
X9864853Y10974739D01*
X9879673Y10947590D01*
X9894508Y10920455D01*
X9909325Y10893392D01*
X9924158Y10866344D01*
X9938974Y10839368D01*
X9953805Y10812406D01*
X9968620Y10785517D01*
X9983449Y10758642D01*
X9998261Y10731838D01*
X10013089Y10705050D01*
X10027899Y10678332D01*
X10042724Y10651630D01*
X10057533Y10624999D01*
X10072356Y10598383D01*
X10087163Y10571837D01*
X10101984Y10545307D01*
X10116789Y10518848D01*
X10131608Y10492404D01*
X10146410Y10466030D01*
X10161227Y10439672D01*
X10176027Y10413383D01*
X10190842Y10387111D01*
X10205640Y10360908D01*
X10220453Y10334721D01*
X10235248Y10308603D01*
X10250059Y10282502D01*
X10264852Y10256469D01*
X10279660Y10230453D01*
X10294451Y10204506D01*
X10309257Y10178574D01*
X10324046Y10152712D01*
X10338848Y10126866D01*
X10353635Y10101089D01*
X10368435Y10075327D01*
X10383219Y10049635D01*
X10398017Y10023958D01*
X10412799Y9998350D01*
X10427594Y9972758D01*
X10442373Y9947235D01*
X10457166Y9921728D01*
X10471942Y9896288D01*
X10486732Y9870865D01*
X10501506Y9845510D01*
X10516293Y9820172D01*
X10531064Y9794901D01*
X10545849Y9769646D01*
X10560617Y9744459D01*
X10575399Y9719289D01*
X10590165Y9694186D01*
X10604944Y9669099D01*
X10619707Y9644079D01*
X10634483Y9619077D01*
X10649243Y9594141D01*
X10664016Y9569221D01*
X10678773Y9544369D01*
X10693543Y9519533D01*
X10708298Y9494764D01*
X10723065Y9470012D01*
X10737816Y9445326D01*
X10752580Y9420656D01*
X10767329Y9396053D01*
X10782090Y9371467D01*
X10796835Y9346947D01*
X10811593Y9322444D01*
X10826335Y9298007D01*
X10841090Y9273586D01*
X10855829Y9249232D01*
X10870581Y9224894D01*
X10885317Y9200622D01*
X10900065Y9176367D01*
X10914798Y9152177D01*
X10929543Y9128004D01*
X10944273Y9103897D01*
X10959015Y9079806D01*
X10973741Y9055781D01*
X10988480Y9031772D01*
X11003203Y9007829D01*
X11017938Y8983903D01*
X11032657Y8960041D01*
X11047390Y8936196D01*
X11062106Y8912416D01*
X11076834Y8888654D01*
X11091547Y8864955D01*
X11106272Y8841274D01*
X11120981Y8817657D01*
X11135703Y8794057D01*
X11150409Y8770521D01*
X11165127Y8747003D01*
X11179829Y8723548D01*
X11194544Y8700111D01*
X11209242Y8676738D01*
X11223953Y8653382D01*
X11238648Y8630089D01*
X11253356Y8606813D01*
X11268047Y8583601D01*
X11282751Y8560407D01*
X11297439Y8537275D01*
X11312139Y8514161D01*
X11326823Y8491110D01*
X11341519Y8468077D01*
X11356199Y8445106D01*
X11370892Y8422153D01*
X11385569Y8399262D01*
X11400257Y8376389D01*
X11414930Y8353579D01*
X11429615Y8330786D01*
X11444284Y8308055D01*
X11458965Y8285342D01*
X11473631Y8262691D01*
X11488308Y8240058D01*
X11502969Y8217486D01*
X11517643Y8194933D01*
X11532300Y8172441D01*
X11546969Y8149967D01*
X11561623Y8127554D01*
X11576288Y8105160D01*
X11590938Y8082826D01*
X11605599Y8060511D01*
X11620245Y8038256D01*
X11634902Y8016020D01*
X11649544Y7993844D01*
X11664197Y7971686D01*
X11678835Y7949589D01*
X11693484Y7927511D01*
X11708118Y7905492D01*
X11722763Y7883492D01*
X11737392Y7861552D01*
X11752033Y7839630D01*
X11766658Y7817769D01*
X11781295Y7795926D01*
X11795916Y7774142D01*
X11810549Y7752377D01*
X11825166Y7730671D01*
X11839794Y7708984D01*
X11854407Y7687357D01*
X11869031Y7665748D01*
X11883639Y7644197D01*
X11898259Y7622666D01*
X11912864Y7601194D01*
X11927479Y7579740D01*
X11942079Y7558345D01*
X11956690Y7536969D01*
X11971286Y7515651D01*
X11985893Y7494352D01*
X12000484Y7473112D01*
X12015087Y7451890D01*
X12029674Y7430726D01*
X12044272Y7409582D01*
X12058854Y7388495D01*
X12073448Y7367427D01*
X12088026Y7346417D01*
X12102616Y7325426D01*
X12117189Y7304492D01*
X12131774Y7283578D01*
X12146343Y7262721D01*
X12160924Y7241883D01*
X12175488Y7221102D01*
X12190064Y7200340D01*
X12204624Y7179636D01*
X12219196Y7158950D01*
X12233752Y7138321D01*
X12248318Y7117712D01*
X12262869Y7097159D01*
X12277432Y7076625D01*
X12291978Y7056148D01*
X12306536Y7035690D01*
X12321078Y7015288D01*
X12335631Y6994906D01*
X12350168Y6974579D01*
X12364716Y6954272D01*
X12379249Y6934021D01*
X12393793Y6913789D01*
X12408321Y6893613D01*
X12422860Y6873457D01*
X12437383Y6853356D01*
X12451918Y6833274D01*
X12466436Y6813248D01*
X12480966Y6793241D01*
X12495480Y6773289D01*
X12510005Y6753357D01*
X12524514Y6733480D01*
X12539034Y6713622D01*
X12553538Y6693820D01*
X12568054Y6674036D01*
X12582553Y6654308D01*
X12597064Y6634599D01*
X12611559Y6614944D01*
X12626064Y6595309D01*
X12640555Y6575729D01*
X12655055Y6556168D01*
X12669541Y6536661D01*
X12684037Y6517174D01*
X12698517Y6497740D01*
X12713008Y6478327D01*
X12727484Y6458967D01*
X12741970Y6439627D01*
X12756441Y6420341D01*
X12770922Y6401074D01*
X12785388Y6381861D01*
X12799864Y6362667D01*
X12814325Y6343527D01*
X12828796Y6324406D01*
X12843252Y6305339D01*
X12857719Y6286291D01*
X12872170Y6267297D01*
X12886631Y6248322D01*
X12901077Y6229400D01*
X12915534Y6210498D01*
X12929975Y6191648D01*
X12944426Y6172818D01*
X12958863Y6154041D01*
X12973309Y6135284D01*
X12987740Y6116578D01*
X13002181Y6097893D01*
X13016608Y6079260D01*
X13031044Y6060647D01*
X13045465Y6042085D01*
X13059896Y6023544D01*
X13074312Y6005054D01*
X13088738Y5986584D01*
X13103149Y5968166D01*
X13117570Y5949768D01*
X13131976Y5931421D01*
X13146392Y5913095D01*
X13160793Y5894819D01*
X13175204Y5876564D01*
X13189600Y5858359D01*
X13204005Y5840175D01*
X13218396Y5822042D01*
X13232796Y5803928D01*
X13247182Y5785866D01*
X13261577Y5767823D01*
X13275958Y5749831D01*
X13290348Y5731859D01*
X13304723Y5713938D01*
X13319108Y5696036D01*
X13333478Y5678185D01*
X13347858Y5660354D01*
X13362223Y5642574D01*
X13376597Y5624813D01*
X13390957Y5607102D01*
X13405326Y5589411D01*
X13419681Y5571771D01*
X13434045Y5554150D01*
X13448394Y5536579D01*
X13462753Y5519028D01*
X13477097Y5501526D01*
X13491451Y5484045D01*
X13505790Y5466613D01*
X13520138Y5449201D01*
X13534472Y5431839D01*
X13548815Y5414496D01*
X13563143Y5397203D01*
X13577481Y5379930D01*
X13591804Y5362705D01*
X13606137Y5345501D01*
X13620454Y5328346D01*
X13634782Y5311210D01*
X13649094Y5294124D01*
X13663416Y5277057D01*
X13677723Y5260039D01*
X13692040Y5243041D01*
X13706342Y5226091D01*
X13720653Y5209162D01*
X13734950Y5192280D01*
X13749256Y5175419D01*
X13763547Y5158606D01*
X13777848Y5141813D01*
X13792134Y5125068D01*
X13806429Y5108343D01*
X13820710Y5091666D01*
X13835000Y5075008D01*
X13849275Y5058399D01*
X13863560Y5041809D01*
X13877830Y5025267D01*
X13892109Y5008746D01*
X13906374Y4992271D01*
X13920648Y4975817D01*
X13934907Y4959409D01*
X13949175Y4943022D01*
X13963429Y4926682D01*
X13977692Y4910362D01*
X13991941Y4894089D01*
X14006199Y4877836D01*
X14020442Y4861630D01*
X14034694Y4845444D01*
X14048932Y4829304D01*
X14063179Y4813185D01*
X14077412Y4797112D01*
X14091653Y4781059D01*
X14105880Y4765052D01*
X14120116Y4749066D01*
X14134338Y4733126D01*
X14148569Y4717205D01*
X14162785Y4701331D01*
X14177010Y4685477D01*
X14191221Y4669669D01*
X14205441Y4653881D01*
X14219647Y4638139D01*
X14233861Y4622416D01*
X14248061Y4606740D01*
X14262270Y4591083D01*
X14276465Y4575472D01*
X14290668Y4559881D01*
X14304858Y4544335D01*
X14319056Y4528810D01*
X14333240Y4513329D01*
X14347432Y4497869D01*
X14361611Y4482454D01*
X14375798Y4467059D01*
X14389971Y4451708D01*
X14404153Y4436378D01*
X14418321Y4421092D01*
X14432497Y4405827D01*
X14446660Y4390606D01*
X14460830Y4375405D01*
X14474987Y4360249D01*
X14489153Y4345113D01*
X14503304Y4330021D01*
X14517464Y4314949D01*
X14531610Y4299922D01*
X14545765Y4284914D01*
X14559905Y4269951D01*
X14574054Y4255007D01*
X14588190Y4240108D01*
X14602333Y4225228D01*
X14616463Y4210392D01*
X14630601Y4195577D01*
X14644726Y4180805D01*
X14658858Y4166053D01*
X14672977Y4151344D01*
X14687105Y4136656D01*
X14701218Y4122011D01*
X14715340Y4107386D01*
X14729448Y4092804D01*
X14743564Y4078243D01*
X14757667Y4063724D01*
X14771778Y4049225D01*
X14785875Y4034770D01*
X14799981Y4020334D01*
X14814073Y4005941D01*
X14828173Y3991569D01*
X14842259Y3977238D01*
X14856354Y3962928D01*
X14870435Y3948661D01*
X14884524Y3934413D01*
X14898600Y3920208D01*
X14912683Y3906023D01*
X14926754Y3891880D01*
X14940832Y3877758D01*
X14954897Y3863677D01*
X14968970Y3849616D01*
X14983029Y3835597D01*
X14997097Y3821599D01*
X15011151Y3807642D01*
X15025213Y3793705D01*
X15039261Y3779810D01*
X15053318Y3765935D01*
X15067361Y3752101D01*
X15081412Y3738288D01*
X15095450Y3724516D01*
X15109496Y3710764D01*
X15123528Y3697053D01*
X15137569Y3683362D01*
X15151596Y3669713D01*
X15165631Y3656083D01*
X15179653Y3642495D01*
X15193682Y3628926D01*
X15207699Y3615399D01*
X15221723Y3601891D01*
X15235734Y3588424D01*
X15249753Y3574977D01*
X15263758Y3561571D01*
X15277772Y3548185D01*
X15291772Y3534839D01*
X15305780Y3521513D01*
X15319775Y3508228D01*
X15333778Y3494962D01*
X15347768Y3481737D01*
X15361765Y3468532D01*
X15375749Y3455367D01*
X15389741Y3442222D01*
X15403720Y3429117D01*
X15417707Y3416031D01*
X15431680Y3402986D01*
X15445662Y3389961D01*
X15459630Y3376975D01*
X15473606Y3364009D01*
X15487569Y3351083D01*
X15501540Y3338177D01*
X15515498Y3325310D01*
X15529463Y3312464D01*
X15543415Y3299656D01*
X15557375Y3286869D01*
X15571323Y3274120D01*
X15585277Y3261392D01*
X15599219Y3248702D01*
X15613169Y3236033D01*
X15627105Y3223403D01*
X15641050Y3210792D01*
X15654981Y3198220D01*
X15668920Y3185669D01*
X15682846Y3173156D01*
X15696780Y3160663D01*
X15710701Y3148208D01*
X15724629Y3135773D01*
X15738545Y3123377D01*
X15752468Y3111001D01*
X15766378Y3098662D01*
X15780296Y3086344D01*
X15794202Y3074064D01*
X15808114Y3061804D01*
X15822015Y3049582D01*
X15835922Y3037380D01*
X15849817Y3025216D01*
X15863719Y3013071D01*
X15877609Y3000965D01*
X15891506Y2988878D01*
X15905391Y2976829D01*
X15919283Y2964800D01*
X15933162Y2952808D01*
X15947049Y2940837D01*
X15960923Y2928902D01*
X15974805Y2916988D01*
X15988674Y2905111D01*
X16002550Y2893254D01*
X16016415Y2881434D01*
X16030286Y2869634D01*
X16044145Y2857870D01*
X16058011Y2846127D01*
X16071865Y2834421D01*
X16085726Y2822734D01*
X16099575Y2811084D01*
X16113431Y2799455D01*
X16127275Y2787861D01*
X16141126Y2776288D01*
X16154964Y2764751D01*
X16168810Y2753234D01*
X16182644Y2741753D01*
X16196485Y2730293D01*
X16210314Y2718868D01*
X16224149Y2707464D01*
X16237973Y2696095D01*
X16251804Y2684747D01*
X16265623Y2673434D01*
X16279448Y2662142D01*
X16293262Y2650885D01*
X16307083Y2639648D01*
X16320892Y2628447D01*
X16334707Y2617266D01*
X16348511Y2606120D01*
X16362322Y2594994D01*
X16376121Y2583904D01*
X16389927Y2572833D01*
X16403721Y2561798D01*
X16417522Y2550783D01*
X16431311Y2539803D01*
X16445107Y2528844D01*
X16458891Y2517919D01*
X16472682Y2507014D01*
X16486462Y2496144D01*
X16500248Y2485294D01*
X16514022Y2474478D01*
X16527804Y2463683D01*
X16541573Y2452923D01*
X16555350Y2442182D01*
X16569115Y2431476D01*
X16582887Y2420790D01*
X16596647Y2410138D01*
X16610413Y2399506D01*
X16624169Y2388909D01*
X16637931Y2378332D01*
X16651681Y2367788D01*
X16665439Y2357265D01*
X16679184Y2346776D01*
X16692937Y2336307D01*
X16706678Y2325871D01*
X16720426Y2315456D01*
X16734162Y2305075D01*
X16747905Y2294713D01*
X16761637Y2284385D01*
X16775375Y2274077D01*
X16789102Y2263803D01*
X16802836Y2253549D01*
X16816558Y2243328D01*
X16830287Y2233127D01*
X16844005Y2222960D01*
X16857730Y2212812D01*
X16871443Y2202698D01*
X16885162Y2192603D01*
X16898871Y2182542D01*
X16912586Y2172501D01*
X16926290Y2162493D01*
X16940001Y2152504D01*
X16953700Y2142549D01*
X16967406Y2132614D01*
X16981101Y2122711D01*
X16994802Y2112828D01*
X17008493Y2102978D01*
X17022190Y2093148D01*
X17035875Y2083350D01*
X17049568Y2073573D01*
X17063249Y2063828D01*
X17076937Y2054102D01*
X17090614Y2044410D01*
X17104298Y2034737D01*
X17117970Y2025096D01*
X17131649Y2015475D01*
X17145317Y2005886D01*
X17158992Y1996318D01*
X17172656Y1986781D01*
X17186326Y1977264D01*
X17199985Y1967779D01*
X17213651Y1958314D01*
X17227306Y1948881D01*
X17240968Y1939468D01*
X17254618Y1930086D01*
X17268276Y1920724D01*
X17281922Y1911394D01*
X17295575Y1902084D01*
X17309217Y1892805D01*
X17322866Y1883546D01*
X17336504Y1874318D01*
X17350148Y1865111D01*
X17363782Y1855934D01*
X17377422Y1846778D01*
X17391052Y1837653D01*
X17404687Y1828547D01*
X17418313Y1819473D01*
X17431945Y1810418D01*
X17445566Y1801394D01*
X17459193Y1792391D01*
X17472811Y1783418D01*
X17486434Y1774465D01*
X17500047Y1765542D01*
X17513666Y1756640D01*
X17527275Y1747768D01*
X17540891Y1738916D01*
X17554496Y1730095D01*
X17568107Y1721293D01*
X17581708Y1712522D01*
X17595315Y1703770D01*
X17608912Y1695049D01*
X17622515Y1686348D01*
X17636108Y1677677D01*
X17649707Y1669026D01*
X17663296Y1660405D01*
X17676891Y1651804D01*
X17690476Y1643233D01*
X17704068Y1634682D01*
X17717649Y1626160D01*
X17731236Y1617659D01*
X17744814Y1609187D01*
X17758397Y1600735D01*
X17771971Y1592313D01*
X17785550Y1583910D01*
X17799120Y1575537D01*
X17812696Y1567184D01*
X17826262Y1558861D01*
X17839834Y1550557D01*
X17853396Y1542283D01*
X17866965Y1534029D01*
X17880523Y1525804D01*
X17894088Y1517598D01*
X17907643Y1509422D01*
X17921203Y1501266D01*
X17934755Y1493139D01*
X17948312Y1485031D01*
X17961859Y1476953D01*
X17975413Y1468894D01*
X17988957Y1460865D01*
X18002507Y1452855D01*
X18016047Y1444874D01*
X18029594Y1436912D01*
X18043130Y1428980D01*
X18056673Y1421067D01*
X18070206Y1413183D01*
X18083746Y1405319D01*
X18097276Y1397483D01*
X18110811Y1389667D01*
X18124338Y1381879D01*
X18137870Y1374112D01*
X18151393Y1366372D01*
X18164922Y1358652D01*
X18178441Y1350961D01*
X18191967Y1343289D01*
X18205483Y1335646D01*
X18219005Y1328022D01*
X18232518Y1320427D01*
X18246037Y1312851D01*
X18259546Y1305303D01*
X18273062Y1297775D01*
X18286568Y1290274D01*
X18300080Y1282794D01*
X18313583Y1275341D01*
X18327092Y1267908D01*
X18340592Y1260503D01*
X18354098Y1253117D01*
X18367595Y1245759D01*
X18381097Y1238421D01*
X18394591Y1231111D01*
X18408090Y1223820D01*
X18421581Y1216556D01*
X18435077Y1209313D01*
X18448564Y1202096D01*
X18462057Y1194900D01*
X18475542Y1187730D01*
X18489032Y1180580D01*
X18502513Y1173458D01*
X18516000Y1166355D01*
X18529479Y1159280D01*
X18542963Y1152224D01*
X18556438Y1145195D01*
X18569919Y1138185D01*
X18583392Y1131203D01*
X18596870Y1124240D01*
X18610340Y1117305D01*
X18623815Y1110389D01*
X18637282Y1103499D01*
X18650754Y1096630D01*
X18664218Y1089787D01*
X18677688Y1082963D01*
X18691149Y1076167D01*
X18704616Y1069390D01*
X18718075Y1062639D01*
X18731539Y1055908D01*
X18744995Y1049204D01*
X18758456Y1042519D01*
X18771910Y1035861D01*
X18785368Y1029222D01*
X18798819Y1022610D01*
X18812275Y1016017D01*
X18825723Y1009450D01*
X18839177Y1002903D01*
X18852622Y996382D01*
X18866073Y989881D01*
X18879516Y983406D01*
X18892964Y976950D01*
X18906405Y970521D01*
X18919851Y964111D01*
X18933289Y957727D01*
X18946732Y951362D01*
X18960168Y945024D01*
X18973609Y938705D01*
X18987042Y932412D01*
X19000481Y926138D01*
X19013912Y919890D01*
X19027348Y913661D01*
X19040777Y907459D01*
X19054211Y901275D01*
X19067637Y895118D01*
X19081069Y888979D01*
X19094493Y882867D01*
X19107923Y876774D01*
X19121345Y870706D01*
X19134772Y864658D01*
X19148192Y858635D01*
X19161617Y852632D01*
X19175035Y846653D01*
X19188458Y840695D01*
X19201874Y834762D01*
X19215295Y828848D01*
X19228708Y822959D01*
X19242127Y817090D01*
X19255539Y811246D01*
X19268956Y805421D01*
X19282366Y799621D01*
X19295781Y793841D01*
X19309188Y788086D01*
X19322602Y782350D01*
X19336007Y776639D01*
X19349419Y770948D01*
X19362823Y765281D01*
X19376232Y759634D01*
X19389634Y754011D01*
X19403042Y748408D01*
X19416443Y742830D01*
X19429849Y737271D01*
X19443247Y731737D01*
X19456652Y726222D01*
X19470049Y720732D01*
X19483451Y715261D01*
X19496847Y709814D01*
X19510248Y704387D01*
X19523642Y698984D01*
X19537041Y693601D01*
X19550433Y688242D01*
X19563831Y682903D01*
X19577222Y677588D01*
X19590618Y672292D01*
X19604008Y667020D01*
X19617402Y661768D01*
X19630790Y656540D01*
X19644184Y651332D01*
X19657570Y646147D01*
X19670962Y640982D01*
X19684348Y635841D01*
X19697738Y630719D01*
X19711122Y625622D01*
X19724511Y620543D01*
X19737894Y615489D01*
X19751282Y610454D01*
X19764664Y605442D01*
X19778051Y600450D01*
X19791431Y595482D01*
X19804817Y590534D01*
X19818196Y585609D01*
X19831581Y580703D01*
X19844959Y575821D01*
X19858342Y570958D01*
X19871719Y566119D01*
X19885102Y561300D01*
X19898478Y556504D01*
X19911859Y551727D01*
X19925235Y546973D01*
X19938615Y542240D01*
X19951990Y537529D01*
X19965369Y532838D01*
X19978743Y528170D01*
X19992121Y523522D01*
X20005494Y518896D01*
X20018872Y514291D01*
X20032244Y509708D01*
X20045621Y505145D01*
X20058992Y500605D01*
X20072368Y496084D01*
X20085739Y491587D01*
X20099115Y487108D01*
X20112484Y482653D01*
X20125860Y478218D01*
X20139229Y473805D01*
X20152603Y469411D01*
X20165972Y465041D01*
X20179346Y460690D01*
X20192714Y456362D01*
X20206088Y452053D01*
X20219455Y447767D01*
X20232828Y443500D01*
X20246196Y439256D01*
X20259568Y435032D01*
X20272935Y430830D01*
X20286307Y426648D01*
X20299674Y422488D01*
X20313046Y418347D01*
X20326412Y414230D01*
X20339784Y410131D01*
X20353150Y406055D01*
X20366522Y401999D01*
X20379888Y397965D01*
X20393259Y393950D01*
X20406625Y389958D01*
X20419996Y385985D01*
X20433362Y382035D01*
X20446733Y378104D01*
X20460099Y374195D01*
X20473469Y370306D01*
X20486835Y366439D01*
X20500206Y362592D01*
X20513572Y358766D01*
X20526943Y354960D01*
X20540309Y351177D01*
X20553680Y347412D01*
X20567046Y343670D01*
X20580418Y339947D01*
X20593784Y336246D01*
X20607155Y332565D01*
X20620522Y328906D01*
X20633894Y325266D01*
X20647261Y321648D01*
X20660633Y318049D01*
X20674000Y314473D01*
X20687372Y310916D01*
X20700740Y307380D01*
X20714113Y303865D01*
X20727481Y300371D01*
X20740854Y296896D01*
X20754223Y293443D01*
X20767596Y290010D01*
X20780966Y286598D01*
X20794340Y283206D01*
X20807710Y279836D01*
X20821084Y276485D01*
X20834455Y273155D01*
X20847830Y269845D01*
X20861201Y266557D01*
X20874578Y263288D01*
X20887949Y260041D01*
X20901326Y256813D01*
X20914699Y253607D01*
X20928077Y250420D01*
X20941450Y247254D01*
X20954829Y244108D01*
X20968203Y240984D01*
X20981582Y237879D01*
X20994958Y234795D01*
X21008338Y231731D01*
X21021714Y228688D01*
X21035096Y225665D01*
X21048473Y222663D01*
X21061855Y219680D01*
X21075234Y216719D01*
X21088617Y213777D01*
X21101997Y210857D01*
X21115382Y207956D01*
X21128762Y205076D01*
X21142148Y202216D01*
X21155530Y199377D01*
X21168917Y196557D01*
X21182301Y193758D01*
X21195689Y190979D01*
X21209074Y188221D01*
X21222463Y185483D01*
X21235849Y182765D01*
X21249240Y180067D01*
X21262628Y177391D01*
X21276021Y174733D01*
X21289410Y172097D01*
X21302804Y169480D01*
X21316194Y166884D01*
X21329590Y164308D01*
X21342982Y161752D01*
X21356379Y159216D01*
X21369773Y156701D01*
X21383172Y154206D01*
X21396567Y151731D01*
X21409968Y149276D01*
X21423365Y146842D01*
X21436768Y144427D01*
X21450167Y142033D01*
X21463571Y139659D01*
X21476972Y137305D01*
X21490378Y134971D01*
X21503781Y132657D01*
X21517189Y130364D01*
X21530594Y128091D01*
X21544003Y125837D01*
X21557410Y123604D01*
X21570822Y121391D01*
X21584231Y119198D01*
X21597645Y117025D01*
X21611056Y114873D01*
X21624472Y112740D01*
X21637886Y110627D01*
X21651304Y108535D01*
X21664720Y106463D01*
X21678140Y104410D01*
X21691558Y102378D01*
X21704981Y100366D01*
X21718401Y98374D01*
X21731826Y96401D01*
X21745249Y94450D01*
X21758676Y92517D01*
X21772101Y90606D01*
X21785531Y88714D01*
X21798959Y86842D01*
X21812391Y84990D01*
X21825821Y83158D01*
X21839256Y81346D01*
X21852689Y79555D01*
X21866127Y77783D01*
X21879562Y76031D01*
X21893002Y74299D01*
X21906440Y72588D01*
X21919883Y70896D01*
X21933324Y69224D01*
X21946770Y67572D01*
X21960214Y65940D01*
X21973662Y64328D01*
X21987109Y62737D01*
X22000560Y61165D01*
X22014010Y59613D01*
X22027464Y58081D01*
X22040917Y56569D01*
X22054374Y55077D01*
X22067830Y53605D01*
X22081290Y52153D01*
X22094749Y50721D01*
X22108212Y49309D01*
X22121674Y47917D01*
X22135140Y46544D01*
X22148605Y45192D01*
X22162075Y43860D01*
X22175544Y42547D01*
X22189017Y41255D01*
X22202488Y39982D01*
X22215965Y38730D01*
X22229440Y37497D01*
X22242919Y36284D01*
X22256398Y35092D01*
X22269881Y33919D01*
X22283363Y32766D01*
X22296849Y31633D01*
X22310335Y30520D01*
X22323825Y29427D01*
X22337314Y28354D01*
X22350808Y27300D01*
X22364301Y26267D01*
X22377798Y25254D01*
X22391294Y24260D01*
X22404795Y23287D01*
X22418296Y22333D01*
X22431800Y21399D01*
X22445304Y20486D01*
X22458813Y19592D01*
X22472321Y18718D01*
X22485833Y17864D01*
X22499345Y17030D01*
X22512861Y16216D01*
X22526377Y15422D01*
X22539898Y14647D01*
X22553417Y13893D01*
X22566942Y13158D01*
X22580466Y12444D01*
X22593994Y11749D01*
X22607522Y11075D01*
X22621055Y10420D01*
X22634587Y9785D01*
X22648124Y9170D01*
X22661660Y8575D01*
X22675201Y8000D01*
X22688742Y7445D01*
X22702288Y6910D01*
X22715833Y6395D01*
X22729382Y5900D01*
X22742932Y5424D01*
X22756486Y4969D01*
X22770040Y4534D01*
X22783599Y4118D01*
X22797158Y3723D01*
X22810721Y3347D01*
X22824284Y2991D01*
X22837852Y2656D01*
X22851420Y2340D01*
X22864992Y2044D01*
X22878565Y1768D01*
X22892142Y1513D01*
X22905719Y1277D01*
X22919301Y1061D01*
X22932883Y865D01*
X22946470Y689D01*
X22960057Y533D01*
X22973648Y397D01*
X22987240Y281D01*
X23000837Y185D01*
X23014434Y109D01*
X23028035Y53D01*
X23041637Y17D01*
X23055243Y1D01*
X23059343Y0D01*
X0Y48009207D02*
X40Y47965995D01*
X160Y47922423D01*
X362Y47878492D01*
X645Y47834201D01*
X1011Y47789547D01*
X1459Y47744532D01*
X1992Y47699152D01*
X2609Y47653409D01*
X3310Y47607301D01*
X4098Y47560827D01*
X4972Y47513986D01*
X5932Y47466779D01*
X6981Y47419203D01*
X8117Y47371259D01*
X9343Y47322945D01*
X10657Y47274262D01*
X12062Y47225208D01*
X13558Y47175784D01*
X15145Y47125987D01*
X16824Y47075819D01*
X18596Y47025278D01*
X20461Y46974365D01*
X22420Y46923078D01*
X24473Y46871417D01*
X26621Y46819382D01*
X28865Y46766973D01*
X31204Y46714189D01*
X33641Y46661030D01*
X36175Y46607496D01*
X38807Y46553586D01*
X41538Y46499301D01*
X44367Y46444640D01*
X47297Y46389603D01*
X50326Y46334191D01*
X53456Y46278402D01*
X56688Y46222238D01*
X60021Y46165698D01*
X63457Y46108781D01*
X66996Y46051490D01*
X70638Y45993822D01*
X74384Y45935779D01*
X78234Y45877361D01*
X82190Y45818568D01*
X86250Y45759400D01*
X90417Y45699857D01*
X94691Y45639941D01*
X99071Y45579650D01*
X103559Y45518987D01*
X108154Y45457950D01*
X112858Y45396541D01*
X117671Y45334760D01*
X122593Y45272608D01*
X127624Y45210085D01*
X132766Y45147192D01*
X138019Y45083929D01*
X143382Y45020298D01*
X148857Y44956298D01*
X154443Y44891931D01*
X160142Y44827197D01*
X165953Y44762098D01*
X171877Y44696634D01*
X177915Y44630806D01*
X184066Y44564615D01*
X190331Y44498062D01*
X196711Y44431148D01*
X203206Y44363874D01*
X209815Y44296241D01*
X216540Y44228251D01*
X223381Y44159903D01*
X230338Y44091201D01*
X237411Y44022144D01*
X244601Y43952734D01*
X251908Y43882973D01*
X259332Y43812861D01*
X266873Y43742401D01*
X274532Y43671593D01*
X282309Y43600439D01*
X290204Y43528940D01*
X298218Y43457099D01*
X306351Y43384915D01*
X314602Y43312392D01*
X322972Y43239531D01*
X331462Y43166333D01*
X340071Y43092799D01*
X348800Y43018933D01*
X357648Y42944735D01*
X366617Y42870207D01*
X375706Y42795351D01*
X384915Y42720169D01*
X394244Y42644663D01*
X403694Y42568834D01*
X413264Y42492685D01*
X422955Y42416218D01*
X432767Y42339434D01*
X442700Y42262336D01*
X452754Y42184925D01*
X462929Y42107204D01*
X473225Y42029175D01*
X483642Y41950841D01*
X494181Y41872202D01*
X504840Y41793262D01*
X515621Y41714022D01*
X526523Y41634486D01*
X537546Y41554654D01*
X548691Y41474530D01*
X559956Y41394116D01*
X571343Y41313415D01*
X582851Y41232428D01*
X594480Y41151158D01*
X606230Y41069608D01*
X618101Y40987779D01*
X630093Y40905675D01*
X642205Y40823299D01*
X654439Y40740652D01*
X666792Y40657737D01*
X679267Y40574556D01*
X691862Y40491114D01*
X704577Y40407411D01*
X717412Y40323451D01*
X730367Y40239236D01*
X743441Y40154769D01*
X756636Y40070053D01*
X769949Y39985090D01*
X783382Y39899884D01*
X796935Y39814437D01*
X810606Y39728751D01*
X824395Y39642830D01*
X838303Y39556677D01*
X852329Y39470293D01*
X866474Y39383683D01*
X880735Y39296849D01*
X895115Y39209794D01*
X909611Y39122520D01*
X924225Y39035031D01*
X938955Y38947330D01*
X953802Y38859419D01*
X968764Y38771302D01*
X983843Y38682981D01*
X999036Y38594460D01*
X1014345Y38505741D01*
X1022044Y38461305D01*
X1029769Y38416827D01*
X1037525Y38372296D01*
X1045308Y38327722D01*
X1053120Y38283096D01*
X1060960Y38238428D01*
X1068830Y38193709D01*
X1076727Y38148949D01*
X1084653Y38104138D01*
X1092607Y38059286D01*
X1100589Y38014386D01*
X1108600Y37969445D01*
X1116639Y37924456D01*
X1124705Y37879427D01*
X1132801Y37834351D01*
X1140923Y37789235D01*
X1149075Y37744074D01*
X1157254Y37698873D01*
X1165461Y37653628D01*
X1173695Y37608344D01*
X1181958Y37563017D01*
X1190248Y37517650D01*
X1198566Y37472242D01*
X1206912Y37426795D01*
X1215285Y37381308D01*
X1223686Y37335782D01*
X1232115Y37290217D01*
X1240570Y37244614D01*
X1249054Y37198973D01*
X1257564Y37153294D01*
X1266102Y37107578D01*
X1274667Y37061825D01*
X1283259Y37016036D01*
X1291879Y36970210D01*
X1300525Y36924349D01*
X1309199Y36878452D01*
X1317899Y36832521D01*
X1326627Y36786554D01*
X1335381Y36740555D01*
X1344162Y36694520D01*
X1352970Y36648454D01*
X1361804Y36602352D01*
X1370665Y36556221D01*
X1379553Y36510054D01*
X1388467Y36463858D01*
X1397408Y36417628D01*
X1406374Y36371370D01*
X1415368Y36325078D01*
X1424387Y36278760D01*
X1433433Y36232407D01*
X1442505Y36186029D01*
X1451604Y36139618D01*
X1460727Y36093182D01*
X1469878Y36046713D01*
X1479053Y36000221D01*
X1488256Y35953696D01*
X1497483Y35907150D01*
X1506737Y35860571D01*
X1516015Y35813971D01*
X1525320Y35767339D01*
X1534650Y35720688D01*
X1544006Y35674005D01*
X1553386Y35627303D01*
X1562793Y35580571D01*
X1572224Y35533820D01*
X1581682Y35487039D01*
X1591163Y35440242D01*
X1600671Y35393415D01*
X1610203Y35346572D01*
X1619761Y35299699D01*
X1629342Y35252812D01*
X1638949Y35205896D01*
X1648580Y35158966D01*
X1658237Y35112008D01*
X1667917Y35065037D01*
X1677624Y35018038D01*
X1687353Y34971028D01*
X1697108Y34923990D01*
X1706886Y34876942D01*
X1716690Y34829866D01*
X1726517Y34782781D01*
X1736369Y34735669D01*
X1746244Y34688549D01*
X1756144Y34641403D01*
X1766067Y34594249D01*
X1776015Y34547069D01*
X1785985Y34499884D01*
X1795982Y34452672D01*
X1805999Y34405456D01*
X1816043Y34358214D01*
X1826107Y34310969D01*
X1836198Y34263699D01*
X1846309Y34216426D01*
X1856446Y34169128D01*
X1866604Y34121829D01*
X1876788Y34074505D01*
X1886992Y34027181D01*
X1897222Y33979833D01*
X1907473Y33932486D01*
X1917749Y33885115D01*
X1928045Y33837746D01*
X1938366Y33790353D01*
X1948707Y33742964D01*
X1959074Y33695551D01*
X1969461Y33648142D01*
X1979873Y33600711D01*
X1990304Y33553285D01*
X2000761Y33505836D01*
X2011237Y33458394D01*
X2021738Y33410929D01*
X2032258Y33363472D01*
X2042803Y33315994D01*
X2053367Y33268523D01*
X2063957Y33221031D01*
X2074564Y33173549D01*
X2085197Y33126046D01*
X2095848Y33078553D01*
X2106525Y33031039D01*
X2117219Y32983537D01*
X2127938Y32936014D01*
X2138675Y32888504D01*
X2149437Y32840974D01*
X2160217Y32793458D01*
X2171021Y32745922D01*
X2181843Y32698400D01*
X2192689Y32650860D01*
X2203553Y32603334D01*
X2214441Y32555790D01*
X2225346Y32508262D01*
X2236276Y32460716D01*
X2247223Y32413188D01*
X2258194Y32365641D01*
X2269182Y32318112D01*
X2280194Y32270566D01*
X2291222Y32223039D01*
X2302275Y32175495D01*
X2313343Y32127971D01*
X2324437Y32080430D01*
X2335545Y32032910D01*
X2346678Y31985374D01*
X2357827Y31937859D01*
X2369000Y31890329D01*
X2380188Y31842822D01*
X2391400Y31795298D01*
X2402628Y31747799D01*
X2413879Y31700284D01*
X2425146Y31652794D01*
X2436436Y31605289D01*
X2447741Y31557809D01*
X2459070Y31510315D01*
X2470413Y31462848D01*
X2481780Y31415366D01*
X2493161Y31367911D01*
X2504566Y31320443D01*
X2515985Y31273003D01*
X2527428Y31225549D01*
X2538884Y31178124D01*
X2550364Y31130687D01*
X2561858Y31083279D01*
X2573375Y31035859D01*
X2584905Y30988469D01*
X2596459Y30941067D01*
X2608026Y30893696D01*
X2619616Y30846314D01*
X2631219Y30798964D01*
X2642845Y30751602D01*
X2654484Y30704273D01*
X2666147Y30656934D01*
X2677821Y30609628D01*
X2689519Y30562311D01*
X2701229Y30515030D01*
X2712962Y30467737D01*
X2724707Y30420481D01*
X2736475Y30373214D01*
X2748254Y30325984D01*
X2760057Y30278743D01*
X2771871Y30231541D01*
X2783708Y30184328D01*
X2795556Y30137154D01*
X2807427Y30089970D01*
X2819309Y30042825D01*
X2831213Y29995672D01*
X2843129Y29948558D01*
X2855067Y29901436D01*
X2867015Y29854353D01*
X2878987Y29807263D01*
X2890968Y29760214D01*
X2902972Y29713157D01*
X2914987Y29666142D01*
X2927023Y29619120D01*
X2939070Y29572140D01*
X2951139Y29525153D01*
X2963217Y29478209D01*
X2975318Y29431259D01*
X2987428Y29384352D01*
X2999561Y29337439D01*
X3011703Y29290571D01*
X3023867Y29243697D01*
X3036040Y29196868D01*
X3048235Y29150034D01*
X3060438Y29103245D01*
X3072664Y29056452D01*
X3084898Y29009705D01*
X3097155Y28962952D01*
X3109419Y28916248D01*
X3121706Y28869538D01*
X3134000Y28822877D01*
X3146316Y28776212D01*
X3158641Y28729595D01*
X3170987Y28682974D01*
X3183340Y28636402D01*
X3195716Y28589827D01*
X3208098Y28543302D01*
X3220503Y28496774D01*
X3232914Y28450296D01*
X3245347Y28403815D01*
X3257787Y28357385D01*
X3270249Y28310953D01*
X3282717Y28264573D01*
X3295207Y28218190D01*
X3307703Y28171860D01*
X3320221Y28125528D01*
X3332745Y28079248D01*
X3345290Y28032968D01*
X3357841Y27986740D01*
X3370414Y27940512D01*
X3382992Y27894338D01*
X3395591Y27848162D01*
X3408197Y27802042D01*
X3420823Y27755920D01*
X3433455Y27709855D01*
X3446107Y27663788D01*
X3458766Y27617778D01*
X3471444Y27571768D01*
X3484128Y27525814D01*
X3496833Y27479860D01*
X3509543Y27433964D01*
X3522273Y27388067D01*
X3535009Y27342229D01*
X3547764Y27296391D01*
X3560525Y27250612D01*
X3573305Y27204834D01*
X3586091Y27159114D01*
X3598896Y27113396D01*
X3611706Y27067737D01*
X3624536Y27022079D01*
X3637370Y26976482D01*
X3650225Y26930886D01*
X3663083Y26885351D01*
X3675961Y26839818D01*
X3688843Y26794346D01*
X3701745Y26748876D01*
X3714651Y26703468D01*
X3727576Y26658062D01*
X3740505Y26612718D01*
X3753453Y26567377D01*
X3766405Y26522099D01*
X3779376Y26476824D01*
X3792351Y26431612D01*
X3805345Y26386403D01*
X3818342Y26341258D01*
X3831358Y26296116D01*
X3844377Y26251039D01*
X3857416Y26205965D01*
X3870457Y26160956D01*
X3883517Y26115951D01*
X3896579Y26071011D01*
X3909661Y26026075D01*
X3922745Y25981205D01*
X3935849Y25936339D01*
X3948954Y25891539D01*
X3962078Y25846744D01*
X3975204Y25802016D01*
X3988349Y25757293D01*
X4001495Y25712636D01*
X4014661Y25667985D01*
X4027828Y25623401D01*
X4041014Y25578822D01*
X4054201Y25534311D01*
X4067406Y25489807D01*
X4080613Y25445370D01*
X4093839Y25400939D01*
X4107065Y25356577D01*
X4120310Y25312221D01*
X4133556Y25267934D01*
X4146820Y25223653D01*
X4160085Y25179442D01*
X4173368Y25135238D01*
X4186652Y25091103D01*
X4199954Y25046976D01*
X4213256Y25002918D01*
X4226577Y24958868D01*
X4239897Y24914888D01*
X4253236Y24870916D01*
X4266575Y24827014D01*
X4279932Y24783120D01*
X4293288Y24739298D01*
X4306663Y24695483D01*
X4320037Y24651740D01*
X4333429Y24608005D01*
X4346820Y24564342D01*
X4360230Y24520688D01*
X4373638Y24477105D01*
X4387065Y24433532D01*
X4400490Y24390031D01*
X4413933Y24346539D01*
X4427375Y24303119D01*
X4440835Y24259709D01*
X4454293Y24216372D01*
X4467770Y24173045D01*
X4481244Y24129791D01*
X4494736Y24086546D01*
X4508227Y24043376D01*
X4521735Y24000215D01*
X4535241Y23957128D01*
X4548765Y23914052D01*
X4562286Y23871049D01*
X4575825Y23828057D01*
X4589362Y23785140D01*
X4602916Y23742233D01*
X4616468Y23699401D01*
X4630037Y23656580D01*
X4643604Y23613834D01*
X4657188Y23571099D01*
X4670769Y23528440D01*
X4684367Y23485792D01*
X4697963Y23443219D01*
X4711575Y23400658D01*
X4725185Y23358173D01*
X4738811Y23315699D01*
X4752435Y23273302D01*
X4766075Y23230917D01*
X4779712Y23188608D01*
X4793366Y23146311D01*
X4807017Y23104090D01*
X4820684Y23061883D01*
X4834348Y23019751D01*
X4848028Y22977633D01*
X4861705Y22935592D01*
X4875398Y22893563D01*
X4889087Y22851612D01*
X4902794Y22809673D01*
X4916495Y22767813D01*
X4930214Y22725965D01*
X4943928Y22684195D01*
X4957659Y22642439D01*
X4971386Y22600760D01*
X4985128Y22559095D01*
X4998867Y22517508D01*
X5012622Y22475935D01*
X5026371Y22434440D01*
X5040138Y22392960D01*
X5053899Y22351557D01*
X5067677Y22310169D01*
X5081450Y22268860D01*
X5095239Y22227565D01*
X5109023Y22186349D01*
X5122823Y22145147D01*
X5136618Y22104025D01*
X5150428Y22062917D01*
X5164234Y22021889D01*
X5178055Y21980875D01*
X5191871Y21939941D01*
X5205703Y21899022D01*
X5219529Y21858183D01*
X5233371Y21817359D01*
X5247207Y21776614D01*
X5261059Y21735885D01*
X5274905Y21695236D01*
X5288767Y21654603D01*
X5302623Y21614049D01*
X5316494Y21573512D01*
X5330359Y21533055D01*
X5344240Y21492613D01*
X5358115Y21452252D01*
X5372005Y21411908D01*
X5385888Y21371643D01*
X5399787Y21331395D01*
X5413680Y21291228D01*
X5427587Y21251077D01*
X5441489Y21211007D01*
X5455405Y21170954D01*
X5469315Y21130981D01*
X5483240Y21091025D01*
X5497158Y21051151D01*
X5511091Y21011293D01*
X5525017Y20971516D01*
X5538958Y20931757D01*
X5552892Y20892078D01*
X5566841Y20852418D01*
X5580783Y20812838D01*
X5594740Y20773276D01*
X5608689Y20733795D01*
X5622653Y20694332D01*
X5636610Y20654951D01*
X5650581Y20615587D01*
X5664545Y20576305D01*
X5678524Y20537041D01*
X5692495Y20497859D01*
X5706481Y20458694D01*
X5720459Y20419612D01*
X5734451Y20380548D01*
X5748435Y20341565D01*
X5762435Y20302602D01*
X5776425Y20263720D01*
X5790431Y20224856D01*
X5804428Y20186075D01*
X5818440Y20147312D01*
X5832443Y20108632D01*
X5846461Y20069970D01*
X5859539Y20033954D01*
X12725876Y66356808D02*
X12685631Y66338786D01*
X12645431Y66320697D01*
X12605276Y66302540D01*
X12565167Y66284316D01*
X12525102Y66266025D01*
X12485084Y66247667D01*
X12445110Y66229241D01*
X12405182Y66210749D01*
X12365300Y66192189D01*
X12325464Y66173563D01*
X12285673Y66154869D01*
X12245929Y66136109D01*
X12206231Y66117283D01*
X12166579Y66098389D01*
X12126973Y66079430D01*
X12087414Y66060404D01*
X12047902Y66041311D01*
X12008436Y66022152D01*
X11969017Y66002927D01*
X11929646Y65983637D01*
X11890321Y65964280D01*
X11851043Y65944857D01*
X11811812Y65925368D01*
X11772629Y65905813D01*
X11733494Y65886193D01*
X11694406Y65866507D01*
X11655366Y65846756D01*
X11616373Y65826939D01*
X11577429Y65807057D01*
X11538532Y65787110D01*
X11499684Y65767097D01*
X11460884Y65747019D01*
X11422132Y65726877D01*
X11383429Y65706669D01*
X11344775Y65686397D01*
X11306169Y65666059D01*
X11267612Y65645658D01*
X11229104Y65625191D01*
X11190645Y65604660D01*
X11152235Y65584065D01*
X11113874Y65563405D01*
X11075563Y65542681D01*
X11037302Y65521893D01*
X10999089Y65501041D01*
X10960927Y65480124D01*
X10922815Y65459144D01*
X10884752Y65438101D01*
X10846740Y65416993D01*
X10808777Y65395822D01*
X10770865Y65374587D01*
X10733004Y65353289D01*
X10695193Y65331927D01*
X10657432Y65310503D01*
X10638571Y65299766D01*
X10619723Y65289015D01*
X10600886Y65278247D01*
X10582064Y65267464D01*
X10563253Y65256664D01*
X10544456Y65245850D01*
X10525670Y65235019D01*
X10506899Y65224173D01*
X10488139Y65213310D01*
X10469393Y65202433D01*
X10450659Y65191539D01*
X10431939Y65180630D01*
X10413230Y65169705D01*
X10394536Y65158765D01*
X10375853Y65147809D01*
X10357184Y65136838D01*
X10338528Y65125850D01*
X10319885Y65114848D01*
X10301254Y65103829D01*
X10282636Y65092795D01*
X10264031Y65081746D01*
X10245440Y65070681D01*
X10226861Y65059600D01*
X10208296Y65048504D01*
X10189743Y65037392D01*
X10171204Y65026265D01*
X10152677Y65015122D01*
X10134164Y65003964D01*
X10115663Y64992791D01*
X10097176Y64981602D01*
X10078701Y64970397D01*
X10060241Y64959177D01*
X10041792Y64947942D01*
X10023358Y64936691D01*
X10004936Y64925425D01*
X9986528Y64914144D01*
X9968132Y64902846D01*
X9949751Y64891534D01*
X9931381Y64880207D01*
X9913026Y64868864D01*
X9894683Y64857505D01*
X9876355Y64846132D01*
X9858038Y64834743D01*
X9839736Y64823339D01*
X9821447Y64811919D01*
X9803171Y64800485D01*
X9784908Y64789035D01*
X9766659Y64777570D01*
X9748423Y64766089D01*
X9730201Y64754594D01*
X9711991Y64743083D01*
X9693796Y64731557D01*
X9675613Y64720015D01*
X9657444Y64708459D01*
X9639288Y64696887D01*
X9621147Y64685301D01*
X9603018Y64673699D01*
X9584903Y64662082D01*
X9566801Y64650450D01*
X9548713Y64638803D01*
X9530638Y64627141D01*
X9512578Y64615464D01*
X9494530Y64603771D01*
X9476496Y64592064D01*
X9458475Y64580342D01*
X9440469Y64568605D01*
X9422476Y64556852D01*
X9404496Y64545085D01*
X9386530Y64533302D01*
X9368578Y64521505D01*
X9350639Y64509693D01*
X9332715Y64497866D01*
X9314803Y64486024D01*
X9296906Y64474167D01*
X9279022Y64462295D01*
X9261152Y64450408D01*
X9243295Y64438506D01*
X9225453Y64426590D01*
X9207624Y64414658D01*
X9189809Y64402712D01*
X9172008Y64390751D01*
X9154221Y64378775D01*
X9136447Y64366785D01*
X9118687Y64354779D01*
X9100941Y64342759D01*
X9083209Y64330724D01*
X9065491Y64318674D01*
X9047787Y64306610D01*
X9030096Y64294531D01*
X9012420Y64282437D01*
X8994758Y64270328D01*
X8977109Y64258205D01*
X8959475Y64246067D01*
X8941854Y64233915D01*
X8924247Y64221747D01*
X8906655Y64209566D01*
X8889076Y64197369D01*
X8871512Y64185158D01*
X8853961Y64172932D01*
X8836425Y64160692D01*
X8818903Y64148437D01*
X8801395Y64136168D01*
X8783900Y64123884D01*
X8766420Y64111586D01*
X8748954Y64099273D01*
X8731503Y64086946D01*
X8714065Y64074604D01*
X8696642Y64062248D01*
X8679232Y64049877D01*
X8661838Y64037492D01*
X8644457Y64025092D01*
X8627090Y64012678D01*
X8609738Y64000249D01*
X8592400Y63987806D01*
X8575076Y63975349D01*
X8557766Y63962878D01*
X8540471Y63950392D01*
X8523190Y63937891D01*
X8505923Y63925377D01*
X8488671Y63912848D01*
X8471433Y63900304D01*
X8454210Y63887747D01*
X8437000Y63875175D01*
X8419806Y63862589D01*
X8402625Y63849989D01*
X8385459Y63837375D01*
X8368308Y63824746D01*
X8351171Y63812103D01*
X8334048Y63799446D01*
X8316940Y63786775D01*
X8299846Y63774089D01*
X8282767Y63761390D01*
X8265702Y63748676D01*
X8248652Y63735948D01*
X8231616Y63723206D01*
X8214596Y63710450D01*
X8197589Y63697680D01*
X8180597Y63684896D01*
X8163620Y63672098D01*
X8146657Y63659286D01*
X8129709Y63646460D01*
X8112775Y63633620D01*
X8095856Y63620765D01*
X8078952Y63607897D01*
X8062063Y63595015D01*
X8045188Y63582119D01*
X8028328Y63569209D01*
X8011483Y63556285D01*
X7994652Y63543347D01*
X7977836Y63530395D01*
X7961035Y63517430D01*
X7944248Y63504450D01*
X7927477Y63491457D01*
X7910720Y63478450D01*
X7893978Y63465429D01*
X7877251Y63452394D01*
X7860538Y63439345D01*
X7843841Y63426283D01*
X7827158Y63413207D01*
X7810490Y63400117D01*
X7793837Y63387013D01*
X7777200Y63373896D01*
X7760576Y63360765D01*
X7743968Y63347620D01*
X7727375Y63334461D01*
X7710797Y63321289D01*
X7694233Y63308104D01*
X7677685Y63294904D01*
X7661152Y63281691D01*
X7644633Y63268465D01*
X7628130Y63255224D01*
X7611642Y63241971D01*
X7595169Y63228703D01*
X7578710Y63215422D01*
X7562267Y63202128D01*
X7545839Y63188820D01*
X7529426Y63175498D01*
X7513029Y63162164D01*
X7496646Y63148815D01*
X7480278Y63135453D01*
X7463926Y63122078D01*
X7447589Y63108689D01*
X7431267Y63095287D01*
X7414960Y63081871D01*
X7398668Y63068442D01*
X7382392Y63055000D01*
X7366130Y63041544D01*
X7349884Y63028075D01*
X7333654Y63014593D01*
X7317438Y63001097D01*
X7301238Y62987588D01*
X7285053Y62974066D01*
X7268883Y62960530D01*
X7252729Y62946981D01*
X7236590Y62933419D01*
X7220467Y62919844D01*
X7204358Y62906255D01*
X7188266Y62892654D01*
X7172188Y62879039D01*
X7156126Y62865411D01*
X7140079Y62851770D01*
X7124048Y62838115D01*
X7108032Y62824448D01*
X7092032Y62810767D01*
X7076047Y62797073D01*
X7060078Y62783367D01*
X7044124Y62769647D01*
X7028185Y62755914D01*
X7012262Y62742168D01*
X6996355Y62728409D01*
X6980463Y62714637D01*
X6964587Y62700852D01*
X6948726Y62687055D01*
X6932881Y62673244D01*
X6917051Y62659420D01*
X6901237Y62645583D01*
X6885439Y62631734D01*
X6869656Y62617871D01*
X6853889Y62603996D01*
X6838137Y62590107D01*
X6822401Y62576206D01*
X6806681Y62562292D01*
X6790977Y62548366D01*
X6775288Y62534426D01*
X6759615Y62520474D01*
X6743958Y62506509D01*
X6728316Y62492531D01*
X6712690Y62478540D01*
X6697080Y62464537D01*
X6681486Y62450520D01*
X6665907Y62436492D01*
X6650345Y62422450D01*
X6634798Y62408396D01*
X6619267Y62394329D01*
X6603751Y62380250D01*
X6588252Y62366158D01*
X6572769Y62352053D01*
X6557301Y62337936D01*
X6541849Y62323806D01*
X6526413Y62309664D01*
X6510993Y62295509D01*
X6495589Y62281341D01*
X6480201Y62267161D01*
X6464829Y62252969D01*
X6449473Y62238764D01*
X6434133Y62224546D01*
X6418809Y62210317D01*
X6403500Y62196074D01*
X6388208Y62181819D01*
X6372932Y62167552D01*
X6357672Y62153273D01*
X6342428Y62138981D01*
X6327200Y62124677D01*
X6311988Y62110360D01*
X6296792Y62096031D01*
X6281612Y62081690D01*
X6266448Y62067336D01*
X6251301Y62052970D01*
X6236169Y62038592D01*
X6221054Y62024202D01*
X6205955Y62009800D01*
X6190872Y61995385D01*
X6175805Y61980958D01*
X6160754Y61966519D01*
X6145720Y61952067D01*
X6130702Y61937604D01*
X6115700Y61923128D01*
X6100714Y61908640D01*
X6085745Y61894141D01*
X6070791Y61879629D01*
X6055855Y61865105D01*
X6040934Y61850568D01*
X6026030Y61836020D01*
X6011141Y61821460D01*
X5996270Y61806888D01*
X5981414Y61792304D01*
X5966575Y61777708D01*
X5951753Y61763100D01*
X5936946Y61748480D01*
X5922156Y61733848D01*
X5907383Y61719204D01*
X5892626Y61704548D01*
X5877885Y61689880D01*
X5863161Y61675201D01*
X5848453Y61660509D01*
X5833761Y61645806D01*
X5819086Y61631091D01*
X5804428Y61616364D01*
X5789786Y61601626D01*
X5775160Y61586875D01*
X5760551Y61572113D01*
X5745959Y61557339D01*
X5731383Y61542554D01*
X5716823Y61527756D01*
X5702281Y61512947D01*
X5687754Y61498126D01*
X5673245Y61483294D01*
X5658752Y61468450D01*
X5644275Y61453594D01*
X5629815Y61438727D01*
X5615372Y61423848D01*
X5600945Y61408958D01*
X5586535Y61394056D01*
X5572142Y61379142D01*
X5557765Y61364217D01*
X5543405Y61349281D01*
X5529062Y61334333D01*
X5514735Y61319373D01*
X5500425Y61304402D01*
X5486132Y61289420D01*
X5471856Y61274426D01*
X5457596Y61259421D01*
X5443353Y61244404D01*
X5429127Y61229376D01*
X5414918Y61214337D01*
X5400725Y61199286D01*
X5386549Y61184224D01*
X5372390Y61169150D01*
X5358248Y61154065D01*
X5344123Y61138969D01*
X5330014Y61123862D01*
X5315922Y61108743D01*
X5301848Y61093614D01*
X5287790Y61078473D01*
X5273749Y61063321D01*
X5259725Y61048157D01*
X5245718Y61032983D01*
X5231727Y61017797D01*
X5217754Y61002600D01*
X5203798Y60987392D01*
X5189858Y60972173D01*
X5175936Y60956943D01*
X5162030Y60941702D01*
X5148142Y60926449D01*
X5134270Y60911186D01*
X5120416Y60895911D01*
X5106578Y60880626D01*
X5092758Y60865330D01*
X5078954Y60850023D01*
X5065168Y60834704D01*
X5051399Y60819375D01*
X5037646Y60804035D01*
X5023911Y60788684D01*
X5010193Y60773322D01*
X4996492Y60757949D01*
X4982808Y60742565D01*
X4969142Y60727171D01*
X4955492Y60711766D01*
X4941860Y60696350D01*
X4928244Y60680923D01*
X4914647Y60665485D01*
X4901065Y60650036D01*
X4887502Y60634577D01*
X4873955Y60619107D01*
X4860426Y60603627D01*
X4846914Y60588135D01*
X4833419Y60572634D01*
X4819941Y60557121D01*
X4806481Y60541598D01*
X4793038Y60526064D01*
X4779612Y60510519D01*
X4766203Y60494964D01*
X4752812Y60479399D01*
X4739438Y60463822D01*
X4726082Y60448236D01*
X4712742Y60432638D01*
X4699420Y60417031D01*
X4686115Y60401412D01*
X4672828Y60385784D01*
X4659558Y60370144D01*
X4646306Y60354495D01*
X4633070Y60338834D01*
X4619853Y60323164D01*
X4606652Y60307483D01*
X4593469Y60291792D01*
X4580303Y60276090D01*
X4567155Y60260379D01*
X4554024Y60244656D01*
X4540911Y60228924D01*
X4527815Y60213181D01*
X4514737Y60197428D01*
X4501676Y60181664D01*
X4488633Y60165891D01*
X4475607Y60150107D01*
X4462599Y60134313D01*
X4449608Y60118508D01*
X4436635Y60102694D01*
X4423679Y60086869D01*
X4410741Y60071035D01*
X4397820Y60055190D01*
X4384917Y60039335D01*
X4372031Y60023470D01*
X4359163Y60007595D01*
X4346313Y59991710D01*
X4333480Y59975815D01*
X4320665Y59959910D01*
X4307868Y59943995D01*
X4295088Y59928069D01*
X4282326Y59912134D01*
X4269581Y59896189D01*
X4256854Y59880234D01*
X4244145Y59864269D01*
X4231453Y59848295D01*
X4218779Y59832309D01*
X4206123Y59816315D01*
X4193485Y59800310D01*
X4180864Y59784297D01*
X4168261Y59768272D01*
X4155676Y59752239D01*
X4143108Y59736195D01*
X4130559Y59720141D01*
X4118027Y59704078D01*
X4105513Y59688005D01*
X4093016Y59671922D01*
X4080538Y59655830D01*
X4068076Y59639728D01*
X4055634Y59623617D01*
X4043208Y59607495D01*
X4030801Y59591365D01*
X4018411Y59575224D01*
X4006040Y59559074D01*
X3993686Y59542914D01*
X3981350Y59526745D01*
X3969032Y59510566D01*
X3956732Y59494378D01*
X3944449Y59478179D01*
X3932185Y59461972D01*
X3919938Y59445755D01*
X3907710Y59429529D01*
X3895499Y59413293D01*
X3883307Y59397048D01*
X3871132Y59380793D01*
X3858975Y59364530D01*
X3846836Y59348256D01*
X3834715Y59331974D01*
X3822612Y59315681D01*
X3810528Y59299380D01*
X3798460Y59283069D01*
X3786412Y59266749D01*
X3774380Y59250420D01*
X3762368Y59234082D01*
X3750373Y59217734D01*
X3738396Y59201377D01*
X3726437Y59185010D01*
X3714497Y59168635D01*
X3702574Y59152250D01*
X3690670Y59135857D01*
X3678783Y59119454D01*
X3666915Y59103042D01*
X3655064Y59086621D01*
X3643232Y59070191D01*
X3631418Y59053752D01*
X3619622Y59037304D01*
X3607844Y59020846D01*
X3596085Y59004380D01*
X3584343Y58987904D01*
X3572620Y58971420D01*
X3560914Y58954927D01*
X3549228Y58938425D01*
X3537558Y58921913D01*
X3525908Y58905394D01*
X3514275Y58888864D01*
X3502661Y58872327D01*
X3491065Y58855780D01*
X3479488Y58839225D01*
X3467928Y58822660D01*
X3456387Y58806087D01*
X3444863Y58789504D01*
X3433359Y58772914D01*
X3421872Y58756314D01*
X3410404Y58739706D01*
X3398953Y58723089D01*
X3387522Y58706464D01*
X3376108Y58689829D01*
X3364713Y58673186D01*
X3353336Y58656534D01*
X3341978Y58639874D01*
X3330637Y58623204D01*
X3319316Y58606527D01*
X3308012Y58589840D01*
X3296727Y58573146D01*
X3285460Y58556442D01*
X3274212Y58539731D01*
X3262981Y58523010D01*
X3251770Y58506281D01*
X3240576Y58489543D01*
X3229402Y58472798D01*
X3218245Y58456043D01*
X3207107Y58439280D01*
X3195987Y58422509D01*
X3184886Y58405729D01*
X3173803Y58388941D01*
X3162739Y58372145D01*
X3151692Y58355340D01*
X3140665Y58338527D01*
X3129656Y58321705D01*
X3118666Y58304876D01*
X3107693Y58288037D01*
X3096740Y58271191D01*
X3085804Y58254336D01*
X3074888Y58237474D01*
X3063989Y58220602D01*
X3053110Y58203724D01*
X3042249Y58186836D01*
X3031406Y58169941D01*
X3020582Y58153036D01*
X3009777Y58136125D01*
X2998990Y58119204D01*
X2988221Y58102277D01*
X2977471Y58085340D01*
X2966740Y58068396D01*
X2956027Y58051443D01*
X2945333Y58034484D01*
X2934658Y58017515D01*
X2924001Y58000539D01*
X2913362Y57983554D01*
X2902743Y57966562D01*
X2892141Y57949561D01*
X2881559Y57932554D01*
X2870995Y57915537D01*
X2860450Y57898514D01*
X2849923Y57881481D01*
X2839416Y57864442D01*
X2828926Y57847394D01*
X2818456Y57830339D01*
X2808004Y57813275D01*
X2797571Y57796204D01*
X2787156Y57779125D01*
X2776760Y57762039D01*
X2766383Y57744944D01*
X2756025Y57727842D01*
X2745684Y57710732D01*
X2735364Y57693615D01*
X2725061Y57676489D01*
X2714778Y57659357D01*
X2704513Y57642216D01*
X2694267Y57625068D01*
X2684039Y57607912D01*
X2673831Y57590749D01*
X2663641Y57573578D01*
X2653470Y57556400D01*
X2643317Y57539213D01*
X2633184Y57522020D01*
X2623069Y57504818D01*
X2612974Y57487610D01*
X2602896Y57470394D01*
X2592838Y57453171D01*
X2582798Y57435939D01*
X2572778Y57418701D01*
X2562776Y57401455D01*
X2552793Y57384202D01*
X2542828Y57366941D01*
X2532883Y57349674D01*
X2522957Y57332398D01*
X2513049Y57315116D01*
X2503160Y57297825D01*
X2493291Y57280529D01*
X2483439Y57263223D01*
X2473607Y57245912D01*
X2463794Y57228593D01*
X2454000Y57211267D01*
X2444224Y57193933D01*
X2434468Y57176593D01*
X2424730Y57159244D01*
X2415011Y57141890D01*
X2405311Y57124527D01*
X2395630Y57107158D01*
X2385968Y57089781D01*
X2376325Y57072398D01*
X2366701Y57055007D01*
X2357096Y57037610D01*
X2347510Y57020205D01*
X2337943Y57002794D01*
X2328394Y56985374D01*
X2318865Y56967949D01*
X2309355Y56950516D01*
X2299864Y56933077D01*
X2290391Y56915629D01*
X2280938Y56898176D01*
X2271503Y56880715D01*
X2262088Y56863248D01*
X2252692Y56845773D01*
X2243315Y56828293D01*
X2233956Y56810804D01*
X2224617Y56793310D01*
X2215297Y56775808D01*
X2205996Y56758300D01*
X2196713Y56740784D01*
X2187451Y56723263D01*
X2178206Y56705733D01*
X2168982Y56688198D01*
X2159776Y56670655D01*
X2150589Y56653107D01*
X2141421Y56635551D01*
X2132273Y56617989D01*
X2123143Y56600420D01*
X2114033Y56582845D01*
X2104941Y56565262D01*
X2095869Y56547674D01*
X2086815Y56530078D01*
X2077782Y56512476D01*
X2068766Y56494867D01*
X2059771Y56477253D01*
X2050794Y56459631D01*
X2041837Y56442003D01*
X2032898Y56424368D01*
X2023979Y56406728D01*
X2015079Y56389079D01*
X2006198Y56371426D01*
X1997336Y56353765D01*
X1988493Y56336099D01*
X1979670Y56318425D01*
X1970866Y56300746D01*
X1962080Y56283059D01*
X1953315Y56265368D01*
X1944567Y56247669D01*
X1935840Y56229964D01*
X1927131Y56212252D01*
X1918443Y56194536D01*
X1909772Y56176811D01*
X1901122Y56159082D01*
X1892490Y56141345D01*
X1883878Y56123603D01*
X1875285Y56105854D01*
X1866711Y56088100D01*
X1858156Y56070338D01*
X1849621Y56052572D01*
X1841105Y56034798D01*
X1832608Y56017019D01*
X1824130Y55999233D01*
X1815672Y55981442D01*
X1807232Y55963643D01*
X1798813Y55945841D01*
X1790412Y55928030D01*
X1782031Y55910215D01*
X1773669Y55892392D01*
X1765326Y55874565D01*
X1757002Y55856731D01*
X1748698Y55838892D01*
X1740413Y55821045D01*
X1732148Y55803195D01*
X1723901Y55785336D01*
X1715675Y55767474D01*
X1707467Y55749604D01*
X1699279Y55731729D01*
X1691109Y55713847D01*
X1682960Y55695961D01*
X1674829Y55678068D01*
X1666719Y55660170D01*
X1658626Y55642265D01*
X1650554Y55624356D01*
X1642501Y55606439D01*
X1634468Y55588519D01*
X1626453Y55570591D01*
X1618459Y55552659D01*
X1610483Y55534719D01*
X1602527Y55516776D01*
X1594589Y55498825D01*
X1586672Y55480870D01*
X1578774Y55462908D01*
X1570896Y55444942D01*
X1563036Y55426969D01*
X1555196Y55408991D01*
X1547375Y55391007D01*
X1539575Y55373019D01*
X1531792Y55355023D01*
X1524031Y55337024D01*
X1516287Y55319017D01*
X1508564Y55301007D01*
X1500860Y55282989D01*
X1493175Y55264968D01*
X1485510Y55246940D01*
X1477864Y55228907D01*
X1470237Y55210868D01*
X1462631Y55192825D01*
X1455043Y55174775D01*
X1447475Y55156721D01*
X1439926Y55138661D01*
X1432397Y55120596D01*
X1424887Y55102525D01*
X1417397Y55084450D01*
X1409926Y55066368D01*
X1402475Y55048282D01*
X1395043Y55030190D01*
X1387631Y55012094D01*
X1380238Y54993990D01*
X1372865Y54975884D01*
X1365510Y54957771D01*
X1358176Y54939654D01*
X1350861Y54921530D01*
X1343566Y54903403D01*
X1336289Y54885269D01*
X1329033Y54867131D01*
X1321796Y54848987D01*
X1314578Y54830839D01*
X1307380Y54812685D01*
X1300202Y54794527D01*
X1293043Y54776362D01*
X1285904Y54758194D01*
X1278783Y54740020D01*
X1271683Y54721842D01*
X1264602Y54703657D01*
X1257541Y54685470D01*
X1250499Y54667275D01*
X1243477Y54649077D01*
X1236474Y54630873D01*
X1229491Y54612665D01*
X1222527Y54594451D01*
X1215583Y54576234D01*
X1208658Y54558010D01*
X1201754Y54539783D01*
X1194868Y54521549D01*
X1188002Y54503313D01*
X1181156Y54485069D01*
X1174329Y54466823D01*
X1167522Y54448570D01*
X1160734Y54430314D01*
X1153966Y54412052D01*
X1147218Y54393787D01*
X1140489Y54375515D01*
X1133780Y54357240D01*
X1127090Y54338959D01*
X1120420Y54320675D01*
X1113769Y54302384D01*
X1107138Y54284091D01*
X1100527Y54265791D01*
X1093935Y54247489D01*
X1087363Y54229180D01*
X1080811Y54210868D01*
X1074278Y54192550D01*
X1067765Y54174229D01*
X1061271Y54155902D01*
X1054797Y54137572D01*
X1048342Y54119236D01*
X1041908Y54100897D01*
X1035492Y54082551D01*
X1029097Y54064204D01*
X1022721Y54045849D01*
X1016365Y54027493D01*
X1010028Y54009130D01*
X1003711Y53990764D01*
X997414Y53972392D01*
X991136Y53954018D01*
X984878Y53935637D01*
X978640Y53917254D01*
X972421Y53898865D01*
X966222Y53880473D01*
X960042Y53862075D01*
X953883Y53843675D01*
X947742Y53825268D01*
X941622Y53806859D01*
X935521Y53788444D01*
X929440Y53770027D01*
X923378Y53751604D01*
X917337Y53733178D01*
X911314Y53714746D01*
X905312Y53696312D01*
X899329Y53677872D01*
X893366Y53659429D01*
X887423Y53640981D01*
X881499Y53622530D01*
X875595Y53604073D01*
X869711Y53585614D01*
X863846Y53567149D01*
X858002Y53548682D01*
X852176Y53530209D01*
X846371Y53511734D01*
X840585Y53493253D01*
X834819Y53474770D01*
X829072Y53456281D01*
X823346Y53437790D01*
X817638Y53419293D01*
X811952Y53400794D01*
X806284Y53382289D01*
X800636Y53363782D01*
X795008Y53345269D01*
X789400Y53326754D01*
X783811Y53308234D01*
X778242Y53289711D01*
X772693Y53271183D01*
X767163Y53252653D01*
X761653Y53234117D01*
X756164Y53215579D01*
X750693Y53197036D01*
X745243Y53178490D01*
X739812Y53159939D01*
X734401Y53141386D01*
X729009Y53122827D01*
X723638Y53104267D01*
X718286Y53085701D01*
X712954Y53067133D01*
X707642Y53048560D01*
X702349Y53029985D01*
X697076Y53011404D01*
X691823Y52992821D01*
X686590Y52974233D01*
X681377Y52955643D01*
X676183Y52937048D01*
X671009Y52918451D01*
X665854Y52899848D01*
X660720Y52881244D01*
X655605Y52862635D01*
X650511Y52844024D01*
X645435Y52825407D01*
X640380Y52806789D01*
X635344Y52788165D01*
X630329Y52769540D01*
X625332Y52750909D01*
X620356Y52732277D01*
X615400Y52713639D01*
X610463Y52695000D01*
X605546Y52676356D01*
X600649Y52657710D01*
X595772Y52639058D01*
X590914Y52620406D01*
X586076Y52601748D01*
X581259Y52583088D01*
X576460Y52564424D01*
X571682Y52545758D01*
X566923Y52527086D01*
X562185Y52508414D01*
X557466Y52489736D01*
X552767Y52471056D01*
X548087Y52452372D01*
X543428Y52433686D01*
X538788Y52414995D01*
X534168Y52396303D01*
X529568Y52377605D01*
X524988Y52358907D01*
X520427Y52340203D01*
X515887Y52321498D01*
X511366Y52302788D01*
X506865Y52284077D01*
X502384Y52265360D01*
X497922Y52246643D01*
X493481Y52227920D01*
X489059Y52209196D01*
X484657Y52190468D01*
X480275Y52171738D01*
X475913Y52153003D01*
X471571Y52134267D01*
X467248Y52115526D01*
X462945Y52096784D01*
X458662Y52078037D01*
X454399Y52059289D01*
X450156Y52040536D01*
X445933Y52021782D01*
X441729Y52003023D01*
X437545Y51984263D01*
X433381Y51965498D01*
X429237Y51946732D01*
X425113Y51927962D01*
X421009Y51909190D01*
X416924Y51890414D01*
X412860Y51871637D01*
X408815Y51852854D01*
X404790Y51834072D01*
X400785Y51815284D01*
X396800Y51796495D01*
X392834Y51777702D01*
X388889Y51758908D01*
X384963Y51740109D01*
X381057Y51721309D01*
X377171Y51702504D01*
X373305Y51683699D01*
X369459Y51664889D01*
X365633Y51646079D01*
X361826Y51627263D01*
X358039Y51608447D01*
X354272Y51589626D01*
X350526Y51570805D01*
X346799Y51551979D01*
X343092Y51533152D01*
X339404Y51514321D01*
X335737Y51495489D01*
X332089Y51476652D01*
X328462Y51457815D01*
X324853Y51438973D01*
X321266Y51420131D01*
X317697Y51401284D01*
X314149Y51382437D01*
X310621Y51363585D01*
X307113Y51344732D01*
X303624Y51325875D01*
X300156Y51307018D01*
X296707Y51288156D01*
X293278Y51269293D01*
X289869Y51250426D01*
X286480Y51231559D01*
X283110Y51212687D01*
X279761Y51193815D01*
X276431Y51174938D01*
X273122Y51156061D01*
X269832Y51137180D01*
X266562Y51118298D01*
X263312Y51099412D01*
X260083Y51080525D01*
X256872Y51061634D01*
X253682Y51042743D01*
X250512Y51023848D01*
X247361Y51004952D01*
X244231Y50986052D01*
X241120Y50967151D01*
X238029Y50948247D01*
X234959Y50929342D01*
X231907Y50910432D01*
X228877Y50891523D01*
X225865Y50872609D01*
X222874Y50853695D01*
X219903Y50834777D01*
X216951Y50815859D01*
X214020Y50796936D01*
X211108Y50778014D01*
X208216Y50759087D01*
X205345Y50740160D01*
X202493Y50721229D01*
X199661Y50702298D01*
X196849Y50683362D01*
X194057Y50664427D01*
X191284Y50645488D01*
X188532Y50626548D01*
X185799Y50607604D01*
X183087Y50588661D01*
X180394Y50569713D01*
X177722Y50550765D01*
X175069Y50531813D01*
X172436Y50512861D01*
X169823Y50493906D01*
X167230Y50474950D01*
X164657Y50455990D01*
X162104Y50437030D01*
X159571Y50418067D01*
X157057Y50399103D01*
X154564Y50380135D01*
X152091Y50361168D01*
X149637Y50342196D01*
X147203Y50323225D01*
X144790Y50304250D01*
X142396Y50285275D01*
X140022Y50266296D01*
X137668Y50247317D01*
X135334Y50228334D01*
X133020Y50209352D01*
X130726Y50190366D01*
X128452Y50171380D01*
X126197Y50152390D01*
X123963Y50133400D01*
X121749Y50114407D01*
X119554Y50095413D01*
X117380Y50076416D01*
X115225Y50057420D01*
X113090Y50038419D01*
X110976Y50019419D01*
X108881Y50000415D01*
X106806Y49981411D01*
X104751Y49962404D01*
X102716Y49943397D01*
X100701Y49924386D01*
X98706Y49905376D01*
X96731Y49886362D01*
X94776Y49867349D01*
X92840Y49848331D01*
X90925Y49829314D01*
X89030Y49810294D01*
X87154Y49791274D01*
X85299Y49772250D01*
X83463Y49753227D01*
X81648Y49734200D01*
X79852Y49715174D01*
X78076Y49696144D01*
X76321Y49677115D01*
X74585Y49658082D01*
X72869Y49639049D01*
X71173Y49620013D01*
X69497Y49600978D01*
X67841Y49581939D01*
X66205Y49562901D01*
X64589Y49543859D01*
X62993Y49524817D01*
X61416Y49505773D01*
X59860Y49486728D01*
X58324Y49467681D01*
X56808Y49448634D01*
X55311Y49429583D01*
X53835Y49410534D01*
X52378Y49391480D01*
X50942Y49372428D01*
X49525Y49353372D01*
X48129Y49334317D01*
X46752Y49315258D01*
X45395Y49296200D01*
X44059Y49277139D01*
X42742Y49258078D01*
X41445Y49239015D01*
X40168Y49219952D01*
X38911Y49200885D01*
X37675Y49181819D01*
X36458Y49162750D01*
X35261Y49143682D01*
X34084Y49124611D01*
X32927Y49105540D01*
X31790Y49086466D01*
X30673Y49067393D01*
X29575Y49048317D01*
X28498Y49029242D01*
X27441Y49010163D01*
X26404Y48991085D01*
X25387Y48972004D01*
X24389Y48952924D01*
X23412Y48933841D01*
X22455Y48914759D01*
X21517Y48895673D01*
X20600Y48876589D01*
X19703Y48857501D01*
X18825Y48838414D01*
X17968Y48819324D01*
X17130Y48800235D01*
X16313Y48781143D01*
X15515Y48762052D01*
X14738Y48742958D01*
X13980Y48723865D01*
X13243Y48704769D01*
X12525Y48685674D01*
X11827Y48666575D01*
X11150Y48647478D01*
X10492Y48628378D01*
X9854Y48609279D01*
X9237Y48590177D01*
X8639Y48571076D01*
X8061Y48551972D01*
X7504Y48532869D01*
X6966Y48513763D01*
X6448Y48494658D01*
X5950Y48475551D01*
X5473Y48456444D01*
X5015Y48437335D01*
X4577Y48418226D01*
X4159Y48399115D01*
X3761Y48380005D01*
X3383Y48360892D01*
X3026Y48341780D01*
X2688Y48322666D01*
X2370Y48303552D01*
X2072Y48284436D01*
X1794Y48265321D01*
X1536Y48246203D01*
X1298Y48227087D01*
X1080Y48207967D01*
X883Y48188849D01*
X705Y48169728D01*
X547Y48150608D01*
X409Y48131486D01*
X291Y48112365D01*
X193Y48093241D01*
X115Y48074118D01*
X57Y48054993D01*
X19Y48035869D01*
X2Y48016742D01*
X0Y48009207D01*
M02*
