%TF.GenerationSoftware,KiCad,Pcbnew,9.0.6*%
%TF.CreationDate,2025-12-06T19:34:33-05:00*%
%TF.ProjectId,ChristmasOrnament25,43687269-7374-46d6-9173-4f726e616d65,rev?*%
%TF.SameCoordinates,PX8a091f5PY7e64ec2*%
%TF.FileFunction,Other,Comment*%
%FSLAX46Y46*%
G04 Gerber Fmt 4.6, Leading zero omitted, Abs format (unit mm)*
G04 Created by KiCad (PCBNEW 9.0.6) date 2025-12-06 19:34:33*
%MOMM*%
%LPD*%
G01*
G04 APERTURE LIST*
%ADD10C,0.150000*%
%ADD11C,0.050000*%
G04 APERTURE END LIST*
D10*
X-9566610Y39250335D02*
X-9614229Y39155097D01*
X-9614229Y39155097D02*
X-9661848Y39107478D01*
X-9661848Y39107478D02*
X-9757086Y39059859D01*
X-9757086Y39059859D02*
X-9804705Y39059859D01*
X-9804705Y39059859D02*
X-9899943Y39107478D01*
X-9899943Y39107478D02*
X-9947562Y39155097D01*
X-9947562Y39155097D02*
X-9995181Y39250335D01*
X-9995181Y39250335D02*
X-9995181Y39440811D01*
X-9995181Y39440811D02*
X-9947562Y39536049D01*
X-9947562Y39536049D02*
X-9899943Y39583668D01*
X-9899943Y39583668D02*
X-9804705Y39631287D01*
X-9804705Y39631287D02*
X-9757086Y39631287D01*
X-9757086Y39631287D02*
X-9661848Y39583668D01*
X-9661848Y39583668D02*
X-9614229Y39536049D01*
X-9614229Y39536049D02*
X-9566610Y39440811D01*
X-9566610Y39440811D02*
X-9566610Y39250335D01*
X-9566610Y39250335D02*
X-9518991Y39155097D01*
X-9518991Y39155097D02*
X-9471372Y39107478D01*
X-9471372Y39107478D02*
X-9376134Y39059859D01*
X-9376134Y39059859D02*
X-9185658Y39059859D01*
X-9185658Y39059859D02*
X-9090420Y39107478D01*
X-9090420Y39107478D02*
X-9042800Y39155097D01*
X-9042800Y39155097D02*
X-8995181Y39250335D01*
X-8995181Y39250335D02*
X-8995181Y39440811D01*
X-8995181Y39440811D02*
X-9042800Y39536049D01*
X-9042800Y39536049D02*
X-9090420Y39583668D01*
X-9090420Y39583668D02*
X-9185658Y39631287D01*
X-9185658Y39631287D02*
X-9376134Y39631287D01*
X-9376134Y39631287D02*
X-9471372Y39583668D01*
X-9471372Y39583668D02*
X-9518991Y39536049D01*
X-9518991Y39536049D02*
X-9566610Y39440811D01*
X-9995181Y39964621D02*
X-9995181Y40583668D01*
X-9995181Y40583668D02*
X-9614229Y40250335D01*
X-9614229Y40250335D02*
X-9614229Y40393192D01*
X-9614229Y40393192D02*
X-9566610Y40488430D01*
X-9566610Y40488430D02*
X-9518991Y40536049D01*
X-9518991Y40536049D02*
X-9423753Y40583668D01*
X-9423753Y40583668D02*
X-9185658Y40583668D01*
X-9185658Y40583668D02*
X-9090420Y40536049D01*
X-9090420Y40536049D02*
X-9042800Y40488430D01*
X-9042800Y40488430D02*
X-8995181Y40393192D01*
X-8995181Y40393192D02*
X-8995181Y40107478D01*
X-8995181Y40107478D02*
X-9042800Y40012240D01*
X-9042800Y40012240D02*
X-9090420Y39964621D01*
X-9090420Y41012240D02*
X-9042800Y41059859D01*
X-9042800Y41059859D02*
X-8995181Y41012240D01*
X-8995181Y41012240D02*
X-9042800Y40964621D01*
X-9042800Y40964621D02*
X-9090420Y41012240D01*
X-9090420Y41012240D02*
X-8995181Y41012240D01*
X-8995181Y41536049D02*
X-8995181Y41726525D01*
X-8995181Y41726525D02*
X-9042800Y41821763D01*
X-9042800Y41821763D02*
X-9090420Y41869382D01*
X-9090420Y41869382D02*
X-9233277Y41964620D01*
X-9233277Y41964620D02*
X-9423753Y42012239D01*
X-9423753Y42012239D02*
X-9804705Y42012239D01*
X-9804705Y42012239D02*
X-9899943Y41964620D01*
X-9899943Y41964620D02*
X-9947562Y41917001D01*
X-9947562Y41917001D02*
X-9995181Y41821763D01*
X-9995181Y41821763D02*
X-9995181Y41631287D01*
X-9995181Y41631287D02*
X-9947562Y41536049D01*
X-9947562Y41536049D02*
X-9899943Y41488430D01*
X-9899943Y41488430D02*
X-9804705Y41440811D01*
X-9804705Y41440811D02*
X-9566610Y41440811D01*
X-9566610Y41440811D02*
X-9471372Y41488430D01*
X-9471372Y41488430D02*
X-9423753Y41536049D01*
X-9423753Y41536049D02*
X-9376134Y41631287D01*
X-9376134Y41631287D02*
X-9376134Y41821763D01*
X-9376134Y41821763D02*
X-9423753Y41917001D01*
X-9423753Y41917001D02*
X-9471372Y41964620D01*
X-9471372Y41964620D02*
X-9566610Y42012239D01*
X-9899943Y42393192D02*
X-9947562Y42440811D01*
X-9947562Y42440811D02*
X-9995181Y42536049D01*
X-9995181Y42536049D02*
X-9995181Y42774144D01*
X-9995181Y42774144D02*
X-9947562Y42869382D01*
X-9947562Y42869382D02*
X-9899943Y42917001D01*
X-9899943Y42917001D02*
X-9804705Y42964620D01*
X-9804705Y42964620D02*
X-9709467Y42964620D01*
X-9709467Y42964620D02*
X-9566610Y42917001D01*
X-9566610Y42917001D02*
X-8995181Y42345573D01*
X-8995181Y42345573D02*
X-8995181Y42964620D01*
X-8995181Y43440811D02*
X-8995181Y43631287D01*
X-8995181Y43631287D02*
X-9042800Y43726525D01*
X-9042800Y43726525D02*
X-9090420Y43774144D01*
X-9090420Y43774144D02*
X-9233277Y43869382D01*
X-9233277Y43869382D02*
X-9423753Y43917001D01*
X-9423753Y43917001D02*
X-9804705Y43917001D01*
X-9804705Y43917001D02*
X-9899943Y43869382D01*
X-9899943Y43869382D02*
X-9947562Y43821763D01*
X-9947562Y43821763D02*
X-9995181Y43726525D01*
X-9995181Y43726525D02*
X-9995181Y43536049D01*
X-9995181Y43536049D02*
X-9947562Y43440811D01*
X-9947562Y43440811D02*
X-9899943Y43393192D01*
X-9899943Y43393192D02*
X-9804705Y43345573D01*
X-9804705Y43345573D02*
X-9566610Y43345573D01*
X-9566610Y43345573D02*
X-9471372Y43393192D01*
X-9471372Y43393192D02*
X-9423753Y43440811D01*
X-9423753Y43440811D02*
X-9376134Y43536049D01*
X-9376134Y43536049D02*
X-9376134Y43726525D01*
X-9376134Y43726525D02*
X-9423753Y43821763D01*
X-9423753Y43821763D02*
X-9471372Y43869382D01*
X-9471372Y43869382D02*
X-9566610Y43917001D01*
X-9899943Y44297954D02*
X-9947562Y44345573D01*
X-9947562Y44345573D02*
X-9995181Y44440811D01*
X-9995181Y44440811D02*
X-9995181Y44678906D01*
X-9995181Y44678906D02*
X-9947562Y44774144D01*
X-9947562Y44774144D02*
X-9899943Y44821763D01*
X-9899943Y44821763D02*
X-9804705Y44869382D01*
X-9804705Y44869382D02*
X-9709467Y44869382D01*
X-9709467Y44869382D02*
X-9566610Y44821763D01*
X-9566610Y44821763D02*
X-8995181Y44250335D01*
X-8995181Y44250335D02*
X-8995181Y44869382D01*
D11*
X-500000Y0D02*
X-8886420Y0D01*
X-8886420Y83929239D02*
X-500000Y83929239D01*
X-8300000Y0D02*
X-8300000Y83929239D01*
X-8300000Y0D02*
X-8886421Y1126504D01*
X-8300000Y0D02*
X-7713579Y1126504D01*
X-8300000Y83929239D02*
X-7713579Y82802735D01*
X-8300000Y83929239D02*
X-8886421Y82802735D01*
D10*
X20630771Y-4238152D02*
X20630771Y-4904819D01*
X20392676Y-3857200D02*
X20154581Y-4571485D01*
X20154581Y-4571485D02*
X20773628Y-4571485D01*
X21583152Y-3904819D02*
X21392676Y-3904819D01*
X21392676Y-3904819D02*
X21297438Y-3952438D01*
X21297438Y-3952438D02*
X21249819Y-4000057D01*
X21249819Y-4000057D02*
X21154581Y-4142914D01*
X21154581Y-4142914D02*
X21106962Y-4333390D01*
X21106962Y-4333390D02*
X21106962Y-4714342D01*
X21106962Y-4714342D02*
X21154581Y-4809580D01*
X21154581Y-4809580D02*
X21202200Y-4857200D01*
X21202200Y-4857200D02*
X21297438Y-4904819D01*
X21297438Y-4904819D02*
X21487914Y-4904819D01*
X21487914Y-4904819D02*
X21583152Y-4857200D01*
X21583152Y-4857200D02*
X21630771Y-4809580D01*
X21630771Y-4809580D02*
X21678390Y-4714342D01*
X21678390Y-4714342D02*
X21678390Y-4476247D01*
X21678390Y-4476247D02*
X21630771Y-4381009D01*
X21630771Y-4381009D02*
X21583152Y-4333390D01*
X21583152Y-4333390D02*
X21487914Y-4285771D01*
X21487914Y-4285771D02*
X21297438Y-4285771D01*
X21297438Y-4285771D02*
X21202200Y-4333390D01*
X21202200Y-4333390D02*
X21154581Y-4381009D01*
X21154581Y-4381009D02*
X21106962Y-4476247D01*
X22106962Y-4809580D02*
X22154581Y-4857200D01*
X22154581Y-4857200D02*
X22106962Y-4904819D01*
X22106962Y-4904819D02*
X22059343Y-4857200D01*
X22059343Y-4857200D02*
X22106962Y-4809580D01*
X22106962Y-4809580D02*
X22106962Y-4904819D01*
X23106961Y-4904819D02*
X22535533Y-4904819D01*
X22821247Y-4904819D02*
X22821247Y-3904819D01*
X22821247Y-3904819D02*
X22726009Y-4047676D01*
X22726009Y-4047676D02*
X22630771Y-4142914D01*
X22630771Y-4142914D02*
X22535533Y-4190533D01*
X24059342Y-4904819D02*
X23487914Y-4904819D01*
X23773628Y-4904819D02*
X23773628Y-3904819D01*
X23773628Y-3904819D02*
X23678390Y-4047676D01*
X23678390Y-4047676D02*
X23583152Y-4142914D01*
X23583152Y-4142914D02*
X23487914Y-4190533D01*
X24630771Y-4333390D02*
X24535533Y-4285771D01*
X24535533Y-4285771D02*
X24487914Y-4238152D01*
X24487914Y-4238152D02*
X24440295Y-4142914D01*
X24440295Y-4142914D02*
X24440295Y-4095295D01*
X24440295Y-4095295D02*
X24487914Y-4000057D01*
X24487914Y-4000057D02*
X24535533Y-3952438D01*
X24535533Y-3952438D02*
X24630771Y-3904819D01*
X24630771Y-3904819D02*
X24821247Y-3904819D01*
X24821247Y-3904819D02*
X24916485Y-3952438D01*
X24916485Y-3952438D02*
X24964104Y-4000057D01*
X24964104Y-4000057D02*
X25011723Y-4095295D01*
X25011723Y-4095295D02*
X25011723Y-4142914D01*
X25011723Y-4142914D02*
X24964104Y-4238152D01*
X24964104Y-4238152D02*
X24916485Y-4285771D01*
X24916485Y-4285771D02*
X24821247Y-4333390D01*
X24821247Y-4333390D02*
X24630771Y-4333390D01*
X24630771Y-4333390D02*
X24535533Y-4381009D01*
X24535533Y-4381009D02*
X24487914Y-4428628D01*
X24487914Y-4428628D02*
X24440295Y-4523866D01*
X24440295Y-4523866D02*
X24440295Y-4714342D01*
X24440295Y-4714342D02*
X24487914Y-4809580D01*
X24487914Y-4809580D02*
X24535533Y-4857200D01*
X24535533Y-4857200D02*
X24630771Y-4904819D01*
X24630771Y-4904819D02*
X24821247Y-4904819D01*
X24821247Y-4904819D02*
X24916485Y-4857200D01*
X24916485Y-4857200D02*
X24964104Y-4809580D01*
X24964104Y-4809580D02*
X25011723Y-4714342D01*
X25011723Y-4714342D02*
X25011723Y-4523866D01*
X25011723Y-4523866D02*
X24964104Y-4428628D01*
X24964104Y-4428628D02*
X24916485Y-4381009D01*
X24916485Y-4381009D02*
X24821247Y-4333390D01*
X25345057Y-3904819D02*
X26011723Y-3904819D01*
X26011723Y-3904819D02*
X25583152Y-4904819D01*
D11*
X0Y-500000D02*
X0Y-6186420D01*
X46118686Y-6186420D02*
X46118686Y-500000D01*
X0Y-5600000D02*
X46118686Y-5600000D01*
X0Y-5600000D02*
X1126504Y-5013579D01*
X0Y-5600000D02*
X1126504Y-6186421D01*
X46118686Y-5600000D02*
X44992182Y-6186421D01*
X46118686Y-5600000D02*
X44992182Y-5013579D01*
X0Y83929239D02*
X46118686Y83929239D01*
X46118686Y0D01*
X0Y0D01*
X0Y83929239D01*
D10*
%TO.C,H1*%
X25670000Y81019207D02*
G75*
G02*
X20670000Y81019207I-2500000J0D01*
G01*
X20670000Y81019207D02*
G75*
G02*
X25670000Y81019207I2500000J0D01*
G01*
%TD*%
M02*
