M48
; DRILL file {KiCad 9.0.6} date 2025-12-06T19:34:25-0500
; FORMAT={-:-/ absolute / metric / decimal}
; #@! TF.CreationDate,2025-12-06T19:34:25-05:00
; #@! TF.GenerationSoftware,Kicad,Pcbnew,9.0.6
; #@! TF.FileFunction,Plated,1,2,PTH
FMAT,2
METRIC
; #@! TA.AperFunction,Plated,PTH,ViaDrill
T1C0.300
; #@! TA.AperFunction,Plated,PTH,ComponentDrill
T2C0.800
; #@! TA.AperFunction,Plated,PTH,ComponentDrill
T3C0.900
; #@! TA.AperFunction,Plated,PTH,ComponentDrill
T4C1.000
%
G90
G05
T1
X16.25Y55.0
T2
X5.49Y51.949
X12.88Y23.5
X12.88Y17.5
X13.11Y51.949
X18.49Y64.569
X18.49Y56.949
X20.5Y23.5
X20.5Y17.5
X25.88Y23.5
X25.88Y17.5
X27.49Y64.569
X27.49Y56.949
X32.68Y51.949
X33.5Y23.5
X33.5Y17.5
X40.3Y51.949
T3
X2.75Y45.949
X5.29Y45.949
X6.95Y26.949
X8.95Y60.949
X9.49Y26.949
X11.49Y60.949
X13.95Y9.949
X16.49Y9.949
X29.49Y9.949
X32.03Y9.949
X33.95Y60.949
X36.49Y60.949
X36.95Y26.949
X39.49Y26.949
X40.49Y45.949
X43.03Y45.949
T4
X19.69Y74.229
X19.69Y69.729
X21.71Y10.08
X21.71Y7.54
X21.71Y5.0
X24.25Y10.08
X24.25Y7.54
X24.25Y5.0
X26.19Y74.229
X26.19Y69.729
M30
